<svg id="Layer_1" data-name="Layer 1" xmlns="http://www.w3.org/2000/svg" viewBox="0 0 1080 1920"><defs><style>.cls-1,.cls-6{fill:#f3c67b;}.cls-1,.cls-11,.cls-12,.cls-3,.cls-4,.cls-7,.cls-8,.cls-9{fill-rule:evenodd;}.cls-10,.cls-14,.cls-2{fill:none;}.cls-10,.cls-2,.cls-4{stroke:#202758;stroke-miterlimit:22.93;}.cls-2,.cls-4{stroke-width:0.57px;}.cls-3{fill:#7aa0d4;}.cls-12,.cls-4{fill:#fff;}.cls-5{fill:#050606;}.cls-7{fill:#202758;}.cls-8{fill:#204183;}.cls-9{fill:#0a0b0b;}.cls-10{stroke-width:0.43px;}.cls-11{fill:#00aec0;}.cls-13{fill:#070808;}.cls-14{stroke:#070808;stroke-miterlimit:10;}</style></defs><title>1-Man</title><ellipse id="Ellipse_4" data-name="Ellipse 4" cx="579.12" cy="1674.66" rx="337.47" ry="56.24"/><path id="Path_57" data-name="Path 57" class="cls-1" d="M208.86,555.39c-2.46-4-21.52-28.95-23.3-31.49s-16-6.55-18.5-7S153,513.12,149.27,510a28.88,28.88,0,0,0-13.84-4.85c-2.47,1.91,2.52,12.64,8.34,15.53s10.58,3.83,13.43,5.63a17,17,0,0,1,4.89,6.08l-5.8,4.38s-16.6,1.16-18.6,1.93-14.19-.84-14.19-.84-7.82-8.45-10.24-7.39c-1.39,0-2.69,0-3.22,2.42-2.83-5.5-9.57-9-13.4-8.09-.82.78-1.15,3.65-1.15,3.65-1-1-5.93-2.51-7.21-1.61a2.83,2.83,0,0,0-1.12,2.45c-4-3.15-7.39-4.19-10.16-2.24a50.29,50.29,0,0,0,8.54,11.74c4.5,5.08,16.17,15,16.17,15l8.55,9.52s19.42,6,21.81,6.27,8.45,8,12.19,7.93,40.22,0,43.86,1.61a27.19,27.19,0,0,1,8.29,6.87C197.79,587.51,208.63,554.6,208.86,555.39Z"/><line id="Line_6" data-name="Line 6" class="cls-2" x1="85.87" y1="530.83" x2="108.94" y2="559.05"/><path id="Path_58" data-name="Path 58" class="cls-2" d="M95.86,529.52,111.46,550l16.81,14.23"/><path id="Path_59" data-name="Path 59" class="cls-2" d="M170.22,556.31c-8.19-1.35-10.47-1-13-.07s-11.32,4.6-11.32,4.6L135,554.7s-9.67-13.32-10.87-15.3-7-8.54-10.56-9.15"/><path id="Path_60" data-name="Path 60" class="cls-3" d="M204.76,545.05l-21.93,40,14.83,10.34,27.41-34.23Z"/><path id="Path_61" data-name="Path 61" class="cls-4" d="M338.51,631.44c-44.5-36.1-117.78-74.64-120.8-76.7-8.35,13.26-15.35,39.4-24.64,53.19,26.83,32.63,96.9,109.24,129.1,124"/><path id="Path_61-2" data-name="Path 61" class="cls-4" d="M322.17,732c57.27-7.77,77.88-37.63,102.88-71C435.76,646.7,553.7,450.45,454.8,407.43c-39.6,27-86.55,121.84-116,222.07l-.31,1.94"/><rect id="Rectangle_12" data-name="Rectangle 12" class="cls-5" x="605.19" y="1693.64" width="88.05" height="2.92"/><rect id="Rectangle_13" data-name="Rectangle 13" class="cls-6" x="645.54" y="1614.12" width="47.7" height="55.74"/><path id="Path_62" data-name="Path 62" class="cls-7" d="M605.19,1693.64c0-4.77-.68-15,5.45-18.39,4.47-2.48,7.39-1.3,10-2.1,3.23-1,21.31-23.28,24.87-27.4h33.06l14.64,15.31v32.58Z"/><path id="Path_63" data-name="Path 63" class="cls-8" d="M699.47,768.47c34,301.35,27.19,608.59,9.17,866.09h-76C605.29,1386.48,578,1097.17,569.4,768.5Z"/><rect id="Rectangle_14" data-name="Rectangle 14" class="cls-6" x="414.65" y="1615.58" width="58.89" height="55.74"/><path id="Path_64" data-name="Path 64" class="cls-8" d="M457.94,768.47c-19.69,160.06-36.36,324.41-43.29,477-6.43,141.7-3.84,272.94-3.18,389.09l71.07,9.75c34.68-138.75,39.61-289,44-404.43,35-116,59.75-209.58,72.21-317.56,5.25-45.48-13.23-106.23-7.52-153.86Z"/><rect id="Rectangle_15" data-name="Rectangle 15" class="cls-5" x="306.85" y="1691.23" width="166.69" height="2.92"/><path id="Path_65" data-name="Path 65" class="cls-7" d="M473.54,1691.23H306.84s.78-14.3,9.23-17,70.43-15.75,70.43-15.75,16.37-11.49,21-14.21,8.95-1.63,17.48,3.41l20.26,12,28.32.1Z"/><path id="Path_66" data-name="Path 66" class="cls-7" d="M563.87,947.28s-75.73,266.18-76.11,289.49-.06,353.33-14.22,388.12a18.2,18.2,0,0,0,1.91,18.45l7.1,1c34.69-138.75,39.62-289,44-404.43,22.46-74.5,40.72-139.75,54.21-205.51h-.2Z"/><path id="Path_67" data-name="Path 67" class="cls-2" d="M686.47,1620.08c5.68-49.25-1.89-361.78-7.58-477.33"/><path id="Path_68" data-name="Path 68" class="cls-4" d="M415.89,1151.67c3.6-52.07,36-741.59,37.86-745.84a129.32,129.32,0,0,1,50.65-27.95l140.79-6.95c55,12.08,82.35,31.69,82.35,31.69l-24.76,191.2,29.1,589.83C649.05,1185.71,506.32,1172,415.89,1151.67Z"/><path id="Path_69" data-name="Path 69" class="cls-2" d="M336.88,631.21c-19.72,9-35.7,48-29.31,64.5s14.92-19.2,21.32-31.45,12.79-2.14,9.6,16"/><path id="Path_70" data-name="Path 70" class="cls-3" d="M650.39,376.27l-81,135.64L510.94,376.55l27.25-9.34h82.9Z"/><path id="Path_71" data-name="Path 71" class="cls-2" d="M569,511.63l-63.2-51,9.91-22.5-23.59-16.53L504,379"/><path id="Path_72" data-name="Path 72" class="cls-2" d="M569,511.63l71.88-51-6.08-22.5,26.41-16.53L656.64,379"/><path id="Path_73" data-name="Path 73" class="cls-1" d="M533.35,385.4,581.87,419,631.2,385.4l.13-117.76-88.81,12.52Z"/><path id="Path_74" data-name="Path 74" class="cls-1" d="M575.82,138.24c17.08.85,68.52,4,67.74,70.72S632,297.31,623.64,307.07c-10.69,12.5-27.78,26.17-69.38,30.6-24.18-2-27.84-16.52-35.09-30.92-5.77-11.49-17.14-34.62-14.56-101.31S558.72,138.23,575.82,138.24Z"/><path id="Path_75" data-name="Path 75" class="cls-9" d="M621.89,178.13c6,3.79-7.22,55.75,20.54,52.7,18.1-27.36,21.49-61.87-1.88-75.88-4.42-24.42-28.33-34.68-58.82-33.75-17.59.54-37.08,16.47-57.06,16.63-31.22.22-40.84,19-29.77,36.28,4.81,7.5,21.17,9,28.28,6.44C533.1,177,559.4,194.68,578.26,194,599.74,193.17,607.17,181.77,621.89,178.13Z"/><path id="Path_76" data-name="Path 76" class="cls-1" d="M637.65,237.71a14.33,14.33,0,0,1,10.25-8.11c5.26-1,14.69,1.94,14.29,16.77s-13.08,27.26-20.86,25.3S637.65,237.71,637.65,237.71Z"/><path id="Path_77" data-name="Path 77" class="cls-10" d="M643.26,245.1c0-1.86,7.47-10.27,13.49-4.26"/><path id="Path_78" data-name="Path 78" class="cls-7" d="M519.21,235.06a8.18,8.18,0,0,1,6.88,7.47c.51,4-1.74,7.19-5,7.1a8.19,8.19,0,0,1-6.87-7.48C513.69,238.11,515.93,234.94,519.21,235.06Z"/><path id="Path_79" data-name="Path 79" class="cls-2" d="M530.54,219.62a10.26,10.26,0,0,1,6.12,8.2c1.17,13.21-3.8,38.33-3.47,43.22.45,6.65,10.68,6.23,10.68,6.23"/><path id="Path_80" data-name="Path 80" class="cls-2" d="M558.46,295.5s-11.72,8.33-31-1.1"/><path id="Path_81" data-name="Path 81" class="cls-2" d="M587.07,220.65c-4-1.55-15.6-1.11-22.52.43"/><path id="Path_82" data-name="Path 82" class="cls-2" d="M624.32,148.4c6.31,21.27-8.62,49.1-32.75,53.55"/><path id="Path_83" data-name="Path 83" class="cls-2" d="M637.62,274.37c-4,18.27-9.36,27.3-14,32.7-10.69,12.5-27.78,26.17-69.38,30.6"/><path id="Path_84" data-name="Path 84" class="cls-2" d="M508.8,221.08c3.91-1.81,15.49-2.12,22.49-1"/><path id="Path_85" data-name="Path 85" class="cls-2" d="M553,303.2a39.61,39.61,0,0,1-13.77,3.12"/><path id="Path_86" data-name="Path 86" class="cls-7" d="M567.93,435.49l-10.52,48.63,12,27.79,16.72-28-2.23-48.42,15.65-14.64-10-16.75-11.74,9.19-10.17-9.19-12.88,16.75Z"/><path id="Path_87" data-name="Path 87" class="cls-3" d="M577.94,413.4l-33.16,16.14-23.93-56.41,10.85-3.72Z"/><path id="Path_88" data-name="Path 88" class="cls-3" d="M577.8,413.35l30.41,16.14,33.53-56.42-10.21-3.71Z"/><path id="Path_89" data-name="Path 89" class="cls-7" d="M546.1,232.43c4.63-.67,38.85-6.13,56.26-.36,3.78,9.05-4.61,26.78-7.76,28.67s-32.3,2.26-38,1.32c-5.66-.19-8.6-20.36-9.44-23-.24-.75-.43-1.6-.61-2.43a13.82,13.82,0,0,0-9.61,0,25.05,25.05,0,0,1-.61,2.45c-.84,2.64-3.78,22.81-9.45,23-5.66.95-18.16.57-21.31-1.32s-11.53-19.61-7.75-28.66c17.09-5.67,33.74-.51,39.33.31a15.28,15.28,0,0,1,8.91,0Zm-13.74,2.51c-3.25-.47-15-5.08-29.42-.31-3.09,7.39,3.77,21.87,6.34,23.41s9.72,1.85,14.35,1.08c4.62-.16,7-16.63,7.7-18.79a32.75,32.75,0,0,0,1-5.38Zm18.85,0a33.81,33.81,0,0,0,1,5.38c.69,2.15,3.09,18.63,7.71,18.79,4.62.77,28.43.46,31-1.08s9.42-16,6.34-23.41c-14.39-4.76-42.82-.14-46.07.32Z"/><path id="Path_90" data-name="Path 90" class="cls-7" d="M573.14,235.06a8.16,8.16,0,0,1,6.87,7.47c.51,4-1.73,7.19-5,7.1a8.19,8.19,0,0,1-6.87-7.48C567.62,238.11,569.86,234.94,573.14,235.06Z"/><g id="Group_13" data-name="Group 13"><path id="Path_91" data-name="Path 91" class="cls-3" d="M522.51,566l-2.08.14-1.78.12.16,1.77.33,3.49.17,1.69,1.68-.12,1.37-.1h0l.67,0h0c5.33-.34,8.38-.54,12.34-4.54a16.53,16.53,0,0,0,3.67-8c3.79-17.26-6.45-56.43-16-65.6l-1.17-1.14-1.21,1.11L518,497.2l-1.38,1.28,1.39,1.28s1.56,1.52,4.86,10c5.62,14.52,12.45,32.81,9.4,48.67a10.66,10.66,0,0,1-2,5.13C528.21,565.67,526.13,565.81,522.51,566Z"/><path id="Path_92" data-name="Path 92" class="cls-7" d="M520,575.4c4-.3,7-3.09,6.74-6.22s-3.8-5.43-7.81-5.12-7,3.09-6.73,6.23S516,575.71,520,575.4Z"/><path id="Path_93" data-name="Path 93" class="cls-3" d="M485.82,569.88l2.08-.23,1.78-.19.13,1.77.29,3.49.15,1.71-1.68.17-1.37.14h0l-.67.08h0c-5.31.6-8.35.94-12.94-2.3a16.61,16.61,0,0,1-5-7.25c-6.75-16.33-3.55-56.69,4.29-67.4l.95-1.33,1.38.89,3,1.9,1.59,1-1.15,1.5s-1.27,1.78-3,10.71c-3,15.28-6.49,34.48-.71,49.57a10.58,10.58,0,0,0,2.85,4.7C480.15,570.52,482.21,570.29,485.82,569.88Z"/><path id="Path_94" data-name="Path 94" class="cls-7" d="M490,578.66c-4,.4-7.46-1.82-7.72-4.95s2.78-6,6.79-6.41,7.47,1.81,7.72,5S494,578.25,490,578.66Z"/><path id="Path_95" data-name="Path 95" class="cls-11" d="M487,458.19a149.52,149.52,0,0,0-7.48,13.45c-2.18,4.42-4,8.62-5.5,12.52-.81,2.09-1.57,4.2-2.29,6.29s-1.29,3.9-1.82,5.65a47.51,47.51,0,0,0-1.67,5.36c-.4,1.6-.61,2.8-.74,3.51l-.54,3.42,3.4.56,2.88.46,2.74.69,3.34.83.84-3.35c.27-1.05.57-2.23.94-3.59h0c.3-1.1.67-2.39,1.12-3.88.22-.55.49-1.16.82-1.84s.66-1.34,1-1.95a28.8,28.8,0,0,1,3.76-4.48,14.58,14.58,0,0,1,20-1.56,29.75,29.75,0,0,1,4.62,4c.49.57.94,1.15,1.35,1.73s.83,1.19,1.22,1.8c.64,1.26,1.24,2.45,1.78,3.56s1.13,2.38,1.6,3.41l1.4,3.05,3.09-1.31,2.56-1.08,2.73-.9,3.4-1.11-1.21-3.35c-.26-.73-.72-1.94-1.37-3.36a48.3,48.3,0,0,0-2.69-5.08q-1.29-2.49-2.82-5.22c-1.09-2-2.24-3.91-3.42-5.86-2.25-3.66-4.82-7.53-7.76-11.53a155.67,155.67,0,0,0-9.9-12.15l-1.16-1.28-1.71.14-9.9.84-1.74.15-.92,1.46Zm13.23,16.05a30.56,30.56,0,0,0-7.86.62l.44-.86h0q1.38-2.62,2.92-5.28c1,1.17,2.19,2.62,3.42,4.16Z"/></g><path id="Path_96" data-name="Path 96" class="cls-11" d="M491.34,461.64a124.18,124.18,0,0,1-8.63-29,99.81,99.81,0,0,1,3.22-49.38,58.84,58.84,0,0,1,32.21-35.42A69.83,69.83,0,0,1,534.7,343l1.44,8.65a61.54,61.54,0,0,0-14.5,4.23,50.33,50.33,0,0,0-27.43,30.35,91,91,0,0,0-2.85,45,115.3,115.3,0,0,0,8,27Z"/><path id="Path_97" data-name="Path 97" class="cls-11" d="M666.45,505.48c9.24-11.33,19.27-39.65,21.49-69.33a124.45,124.45,0,0,0-3.24-41.68,60.47,60.47,0,0,0-19.34-31.69c-8.48-6.92-19.79-11.49-34.58-12.59l.65-8.75c16.7,1.24,29.63,6.53,39.46,14.54a69.11,69.11,0,0,1,22.25,36.19,132.84,132.84,0,0,1,3.55,44.63c-2.35,31.4-13.31,61.77-23.45,74.2Z"/><path id="Path_98" data-name="Path 98" class="cls-3" d="M668.5,544.56a23.4,23.4,0,0,0,7.21-32.32c-.17-.28-.36-.55-.54-.82A25.16,25.16,0,0,0,641,505a23.43,23.43,0,0,0-7.21,32.34c.17.27.35.55.54.82A25.15,25.15,0,0,0,668.5,544.56Z"/><path id="Path_99" data-name="Path 99" class="cls-12" d="M663.92,538a15.64,15.64,0,0,0,4.82-21.6,5.07,5.07,0,0,0-.36-.54,16.78,16.78,0,0,0-22.85-4.32,15.64,15.64,0,0,0-4.82,21.6q.16.27.36.54A16.8,16.8,0,0,0,663.92,538Zm-3.14-4.52a11.07,11.07,0,0,1-15-2.84,10.31,10.31,0,0,1,2.58-14.34l.36-.24a11,11,0,0,1,15,2.84,10.3,10.3,0,0,1-2.57,14.34l-.36.24Z"/><path id="Path_100" data-name="Path 100" class="cls-13" d="M537.62,788.37,514,607.8c-1.47-11.17-12.42-22.44-24.4-25.16l-.57-4.33c-.89-6.82-7.61-13.71-14.93-15.31l-57.52-12.56c-7.32-1.6-12.58,2.67-11.69,9.49l.57,4.32-10.81-2.35c-12.06-2.64-20.71,4.4-19.24,15.65L399,758.11c1.47,11.25,12.54,22.59,24.6,25.21L518.38,804C530.43,806.64,539.09,799.6,537.62,788.37Z"/><ellipse id="Ellipse_3" data-name="Ellipse 3" class="cls-14" cx="445.28" cy="546.5" rx="10.12" ry="12.6" transform="translate(-179.93 872.16) rotate(-78.34)"/><line id="Line_7" data-name="Line 7" class="cls-2" x1="569.42" y1="511.91" x2="561.4" y2="1174.48"/><path id="Path_101" data-name="Path 101" class="cls-1" d="M599.55,715.31c-9.49-3.24-28.36-13.15-36.12-15.09-2.52-.63-7.56-1-19.87-2.52a212.76,212.76,0,0,1-24.72-6.58,9.11,9.11,0,0,0,2.9,8.22c3.83,3.09,11.84,8.09,17.25,9.07s13.92,1.82,15.78,2.55c-7.15,2.45-14.46,4.06-14.46,4.06-7.59-1.63-17.14-4.68-22.7-6.06A125.12,125.12,0,0,0,506.69,701a21.63,21.63,0,0,0-8.15-7.85,18.59,18.59,0,0,0-2.72,6.28,3.8,3.8,0,0,0-3-.94l.5,10.46,4.72,9.21v4.4L510.81,740l7.31,8.1,25.3,3.36s37.57-2.79,43.11-2.58l11.6.41Z"/><path id="Path_102" data-name="Path 102" class="cls-2" d="M495.82,699.45l1.22,5,15.53,16.22L535,726"/><path id="Path_103" data-name="Path 103" class="cls-2" d="M497.49,719.58,509.26,731l20.29,5.14"/><path id="Path_104" data-name="Path 104" class="cls-3" d="M605.88,756.2l1.54-45.5-16.31-2.15-8.34,43Z"/><path id="Path_105" data-name="Path 105" class="cls-4" d="M713.75,665.65c-5.71-46.89-5.49-21.72-10-79.39,0,0-.55-128.9,23.78-183.65,38.09,20.35,52.65,129.82,62.09,289.5,0,0,4.91,65-29.18,73.79s-184.43,1-184.43,1l5.47-68.07,131.32-4.67Z"/><path id="Path_106" data-name="Path 106" class="cls-2" d="M740.1,699.45s45.13,5,33.85,9.09-45.13-5.13-33.85,4.21a64,64,0,0,1,16.7,23.41"/></svg>