<svg version="1.1" id="el_eirE6Ae1J" xmlns="http://www.w3.org/2000/svg" xmlns:xlink="http://www.w3.org/1999/xlink" x="0px" y="0px" viewBox="0 0 350 662" enable-background="new 0 0 350 662" xml:space="preserve"><style>@-webkit-keyframes kf_el_7tl4_MsuHXy_an_vAZlQNNMn{0%{-webkit-transform: translate(128.1001739501953px, 28.149188995361328px) rotate(-5deg) translate(-128.1001739501953px, -28.149188995361328px);transform: translate(128.1001739501953px, 28.149188995361328px) rotate(-5deg) translate(-128.1001739501953px, -28.149188995361328px);}12.50%{-webkit-transform: translate(128.1001739501953px, 28.149188995361328px) rotate(0deg) translate(-128.1001739501953px, -28.149188995361328px);transform: translate(128.1001739501953px, 28.149188995361328px) rotate(0deg) translate(-128.1001739501953px, -28.149188995361328px);}25%{-webkit-transform: translate(128.1001739501953px, 28.149188995361328px) rotate(-5deg) translate(-128.1001739501953px, -28.149188995361328px);transform: translate(128.1001739501953px, 28.149188995361328px) rotate(-5deg) translate(-128.1001739501953px, -28.149188995361328px);}37.50%{-webkit-transform: translate(128.1001739501953px, 28.149188995361328px) rotate(0deg) translate(-128.1001739501953px, -28.149188995361328px);transform: translate(128.1001739501953px, 28.149188995361328px) rotate(0deg) translate(-128.1001739501953px, -28.149188995361328px);}50%{-webkit-transform: translate(128.1001739501953px, 28.149188995361328px) rotate(-5deg) translate(-128.1001739501953px, -28.149188995361328px);transform: translate(128.1001739501953px, 28.149188995361328px) rotate(-5deg) translate(-128.1001739501953px, -28.149188995361328px);}62.50%{-webkit-transform: translate(128.1001739501953px, 28.149188995361328px) rotate(0deg) translate(-128.1001739501953px, -28.149188995361328px);transform: translate(128.1001739501953px, 28.149188995361328px) rotate(0deg) translate(-128.1001739501953px, -28.149188995361328px);}75%{-webkit-transform: translate(128.1001739501953px, 28.149188995361328px) rotate(-5deg) translate(-128.1001739501953px, -28.149188995361328px);transform: translate(128.1001739501953px, 28.149188995361328px) rotate(-5deg) translate(-128.1001739501953px, -28.149188995361328px);}87.50%{-webkit-transform: translate(128.1001739501953px, 28.149188995361328px) rotate(0deg) translate(-128.1001739501953px, -28.149188995361328px);transform: translate(128.1001739501953px, 28.149188995361328px) rotate(0deg) translate(-128.1001739501953px, -28.149188995361328px);}100%{-webkit-transform: translate(128.1001739501953px, 28.149188995361328px) rotate(-5deg) translate(-128.1001739501953px, -28.149188995361328px);transform: translate(128.1001739501953px, 28.149188995361328px) rotate(-5deg) translate(-128.1001739501953px, -28.149188995361328px);}}@keyframes kf_el_7tl4_MsuHXy_an_vAZlQNNMn{0%{-webkit-transform: translate(128.1001739501953px, 28.149188995361328px) rotate(-5deg) translate(-128.1001739501953px, -28.149188995361328px);transform: translate(128.1001739501953px, 28.149188995361328px) rotate(-5deg) translate(-128.1001739501953px, -28.149188995361328px);}12.50%{-webkit-transform: translate(128.1001739501953px, 28.149188995361328px) rotate(0deg) translate(-128.1001739501953px, -28.149188995361328px);transform: translate(128.1001739501953px, 28.149188995361328px) rotate(0deg) translate(-128.1001739501953px, -28.149188995361328px);}25%{-webkit-transform: translate(128.1001739501953px, 28.149188995361328px) rotate(-5deg) translate(-128.1001739501953px, -28.149188995361328px);transform: translate(128.1001739501953px, 28.149188995361328px) rotate(-5deg) translate(-128.1001739501953px, -28.149188995361328px);}37.50%{-webkit-transform: translate(128.1001739501953px, 28.149188995361328px) rotate(0deg) translate(-128.1001739501953px, -28.149188995361328px);transform: translate(128.1001739501953px, 28.149188995361328px) rotate(0deg) translate(-128.1001739501953px, -28.149188995361328px);}50%{-webkit-transform: translate(128.1001739501953px, 28.149188995361328px) rotate(-5deg) translate(-128.1001739501953px, -28.149188995361328px);transform: translate(128.1001739501953px, 28.149188995361328px) rotate(-5deg) translate(-128.1001739501953px, -28.149188995361328px);}62.50%{-webkit-transform: translate(128.1001739501953px, 28.149188995361328px) rotate(0deg) translate(-128.1001739501953px, -28.149188995361328px);transform: translate(128.1001739501953px, 28.149188995361328px) rotate(0deg) translate(-128.1001739501953px, -28.149188995361328px);}75%{-webkit-transform: translate(128.1001739501953px, 28.149188995361328px) rotate(-5deg) translate(-128.1001739501953px, -28.149188995361328px);transform: translate(128.1001739501953px, 28.149188995361328px) rotate(-5deg) translate(-128.1001739501953px, -28.149188995361328px);}87.50%{-webkit-transform: translate(128.1001739501953px, 28.149188995361328px) rotate(0deg) translate(-128.1001739501953px, -28.149188995361328px);transform: translate(128.1001739501953px, 28.149188995361328px) rotate(0deg) translate(-128.1001739501953px, -28.149188995361328px);}100%{-webkit-transform: translate(128.1001739501953px, 28.149188995361328px) rotate(-5deg) translate(-128.1001739501953px, -28.149188995361328px);transform: translate(128.1001739501953px, 28.149188995361328px) rotate(-5deg) translate(-128.1001739501953px, -28.149188995361328px);}}#el_eirE6Ae1J *{-webkit-animation-duration: 4s;animation-duration: 4s;-webkit-animation-iteration-count: infinite;animation-iteration-count: infinite;-webkit-animation-timing-function: cubic-bezier(0, 0, 1, 1);animation-timing-function: cubic-bezier(0, 0, 1, 1);}#el_3-YmZ5HZZo{fill: #C45B4D;stroke: #636566;stroke-width: 0.7;}#el_-I5bKyd3Lv{fill: #606061;}#el_CiBOplRQiJ{fill: #EDBB78;}#el_vV_bxlIZaS{fill: none;stroke: #FFFFFF;stroke-width: 0.6;}#el_yEsiTMAB3L{fill: none;stroke: #FFFFFF;stroke-width: 0.6;}#el_Nn3ApmLDS-{fill: none;stroke: #636567;stroke-width: 0.5;}#el_IBmx20nFEc{fill: none;stroke: #FFFFFF;stroke-width: 0.6;}#el_F5Zad-Xlmy{fill: #2E2E6B;}#el_UJtzBTaq8W{fill: #2E2E6B;}#el_2so6Liv2FH{opacity: 0.08;fill: #2B2B2B;}#el_PT6Ag_GWb7{fill: #717272;}#el_wxyg0tPGOV{fill: #4C54A4;}#el_YfOC4uGTJr{fill: #5B5B5C;}#el_Gd5nMy2p2q{fill: none;stroke: #FFFFFF;}#el_POXblesLeD{fill: none;stroke: #FFFFFF;}#el_HwsLaB9uexU{fill: #F2D290;}#el_0fIH4BGY5sp{fill: none;stroke: #A59282;stroke-width: 0.6;}#el_QuYkgRd9u7B{fill: none;stroke: #A59282;stroke-width: 0.6;}#el_8dRFqC4Z4lY{fill: #F2D290;}#el_C3vIUz-qaEA{fill: none;stroke: #A59282;stroke-width: 0.6;}#el_R4R7TTOXCEF{fill: none;stroke: #A59282;stroke-width: 0.6;}#el_9vhTnLXh08V{fill: #C45B4D;stroke: #636566;stroke-width: 0.7;}#el_WHpV8JbxSgL{fill: #C45B4D;stroke: #636566;stroke-width: 0.7;}#el_sYwf1f_65hh{fill: #0091BC;stroke: #636566;stroke-width: 0.6;}#el_JXzFAKHZjKf{fill: #0091BC;stroke: #636566;stroke-width: 0.6;}#el_e_GypQmMmYW{fill: #363636;}#el_vu2aOObaSkn{fill: #363636;}#el_eQJx42zNT5u{fill: none;stroke: #FFFFFF;stroke-width: 0.6;}#el_RtR459WiSwZ{fill: none;stroke: #636567;stroke-width: 0.5;}#el_jNQye4Jscso{fill: none;stroke: #636567;stroke-width: 0.5;}#el_qMDAVsEcqYO{fill: none;stroke: #636567;stroke-width: 0.5;}#el_X-aXaA5hSov{fill: none;stroke: #636567;stroke-width: 0.5;}#el_VN7Z7vWkfI-{fill: none;stroke: #636567;stroke-width: 0.5;}#el_5FQjM4mcF2K{fill: #606061;}#el_-WsmgW556KH{fill: #EDBB78;}#el_GC9N6ekK9St{fill: none;stroke: #FFFFFF;stroke-width: 0.6;}#el_wyzXsCkS2BP{fill: none;stroke: #FFFFFF;stroke-width: 0.6;}#el_ypsXn0SB8uf{fill: none;stroke: #636567;stroke-width: 0.5;}#el_DkdsNXReGPQ{fill: none;stroke: #FFFFFF;stroke-width: 0.6;}#el_gNPEhPvOpFB{fill: #2E2E6B;}#el_Ii-8zv5uqvZ{fill: #2E2E6B;}#el_gAMnVAobrnE{fill: none;stroke: #FFFFFF;stroke-width: 0.6;}#el_7vAMwsZs1yj{fill: none;stroke: #636567;stroke-width: 0.5;}#el_nTe9WgbwG8s{fill: none;stroke: #636567;stroke-width: 0.5;}#el_DCL03a3YYDb{fill: none;stroke: #636567;stroke-width: 0.5;}#el_4y61Kqz9BZA{fill: none;stroke: #636567;stroke-width: 0.5;}#el_7tl4_MsuHXy_an_vAZlQNNMn{-webkit-animation-fill-mode: backwards;animation-fill-mode: backwards;-webkit-transform: translate(128.1001739501953px, 28.149188995361328px) rotate(-5deg) translate(-128.1001739501953px, -28.149188995361328px);transform: translate(128.1001739501953px, 28.149188995361328px) rotate(-5deg) translate(-128.1001739501953px, -28.149188995361328px);-webkit-animation-name: kf_el_7tl4_MsuHXy_an_vAZlQNNMn;animation-name: kf_el_7tl4_MsuHXy_an_vAZlQNNMn;-webkit-animation-timing-function: cubic-bezier(0, 0, 1, 1);animation-timing-function: cubic-bezier(0, 0, 1, 1);}</style>
<path stroke-miterlimit="10" d="M92.458,123.315&#10;&#9;c10.154-7.872,23.971-18.591,47.609-23.95c24.97-5.861,52.77,4.354,66.42,12.059c13.649,7.705,13.483,8.374,13.483,8.374&#10;&#9;s-0.666,44.048,0.999,58.284c1.664,14.236,3.828,64.817,3.496,91.781c-0.334,26.964-0.833,37.851-0.833,37.851&#10;&#9;s-3.163,6.029-20.642,9.714s-45.113,4.689-69.084,4.02c-23.971-0.67-38.12-3.517-38.12-3.517s4.329-78.55,5.66-99.318&#10;&#9;c1.332-20.768,1.498-48.904-1.998-67.161C95.954,133.196,92.458,123.315,92.458,123.315z" id="el_3-YmZ5HZZo"/>
<path d="M146.883,48.038c-2.446,4.922-4.893,11.65-3.75,19.526c1.142,7.876-11.743,10.173-13.211-4.431&#10;&#9;c-1.467-14.604,7.177-29.372,22.344-33.638c15.167-4.266,42.077,1.313,40.119,21.003c-0.163,1.313-6.849-12.963-9.785-4.267&#10;&#9;c-1.631,4.103-7.828,6.728-14.025,2.626C162.377,44.756,151.45,40.654,146.883,48.038z" id="el_-I5bKyd3Lv"/>
<path d="M137.611,90.321c-2.209-0.178-2.917,0.72-2.418-7.571c0.5-8.29-3.075-9.89,2.543-9.513&#10;&#9;c4.869-3.894,3.87-9.169,5.119-15.953s2.123-18.088,20.226-12.562c10.862,3.141,14.108,8.165,18.353,2.01&#10;&#9;c4.245-6.155,5.368-5.903,9.863,1.759c2.497,4.522,4.619,25.75,1.872,40.699c-1.872,9.295-5.368,22.484-13.108,27.76&#10;&#9;c-3.122,2.135-16.855,4.522-30.838-5.653C145.103,108.158,139.484,102.002,137.611,90.321z" id="el_CiBOplRQiJ"/>
<path stroke-miterlimit="10" d="M137.679,73.475&#10;&#9;c9.613,1.633,16.038,4.41,19.658,6.168" id="el_vV_bxlIZaS"/>
<path stroke-miterlimit="10" d="M171.148,74.703&#10;&#9;c2.004-1.005,8.551-2.387,11.625,0.125" id="el_yEsiTMAB3L"/>
<path stroke-miterlimit="10" d="M177.938,76.126&#10;&#9;c0.125,3.894,2.372,9.672,3.371,11.933c0.999,2.261,1.248,5.527-3.87,5.276" id="el_Nn3ApmLDS-"/>
<ellipse stroke-miterlimit="10" cx="165.702" cy="79.958" rx="8.24" ry="6.595" id="el_IBmx20nFEc"/>
<path d="M168.146,75.915c0.76,1.208,0.021,3.049-1.65,4.114s-3.641,0.951-4.401-0.257&#10;&#9;c-0.76-1.207-0.021-3.048,1.65-4.113C165.415,74.594,167.385,74.708,168.146,75.915z" id="el_F5Zad-Xlmy"/>
<path d="M190.867,75.999c0.761,1.208,0.021,3.049-1.649,4.114c-1.671,1.064-3.641,0.95-4.401-0.257&#10;&#9;c-0.759-1.207-0.021-3.048,1.65-4.113C188.138,74.678,190.107,74.792,190.867,75.999z" id="el_UJtzBTaq8W"/>
<ellipse cx="174.858" cy="613.707" rx="138" ry="22.442" id="el_2so6Liv2FH"/>
<polygon points="199.162,609.688 198.996,602.653 222.801,598.131 217.974,608.18 " id="el_PT6Ag_GWb7"/>
<polygon points="107.772,605.668 107.772,599.136 115.43,602.318 109.104,607.009 " id="el_wxyg0tPGOV"/>
<path d="M102.279,601.313l-0.5-284.387c0,0,105.872,8.793,117.358-10.3c13.483,96.051,11.486,293.933,11.486,293.933&#10;&#9;l-49.69,6.783c0,0-5.243-156.011-9.238-176.108c-3.746-16.079-8.24-32.659-9.489-42.96c-2.497,30.398-15.731,191.183-12.734,213.29&#10;&#9;C118.01,601.563,102.279,601.313,102.279,601.313z" id="el_YfOC4uGTJr"/>
<path stroke-miterlimit="10" d="M135.406,596.623c0,0,12.319-159.109,4.661-206.34" id="el_Gd5nMy2p2q"/>
<path stroke-miterlimit="10" d="M220.303,409.041c0,0,8.656,162.46,4.328,185.907" id="el_POXblesLeD"/>
<path d="M68.19,338.518c0,6.029-3.496,24.117-0.499,31.487c2.33,4.187,6.659,6.865,10.986,9.714&#10;&#9;c1.998,0,1.79-0.503,2.913,0.879s6.492,2.01,6.118,0.126c0-1.005,4.12,0.125,0.25-3.644c-3.87-3.768-9.363-12.687-5.119-21.229&#10;&#9;c1.873-1.884,0.25,3.895,1.748,7.537c1.498,3.643,7.366,11.18,5.993,6.155c-1.374-5.024-2.497-11.557-2.372-15.702&#10;&#9;c0.125-4.145-4.12-10.928-4.62-14.822C72.727,337.89,68.19,338.518,68.19,338.518z" id="el_HwsLaB9uexU"/>
<path stroke-miterlimit="10" d="M72.352,365.272c0,0,0.25,9.547,5.993,13.315" id="el_0fIH4BGY5sp"/>
<path stroke-miterlimit="10" d="M76.472,362.887&#10;&#9;c0.25,5.652,0.874,9.672,3.496,11.807c2.622,2.136,6.367,5.778,6.367,5.778" id="el_QuYkgRd9u7B"/>
<path d="M248.875,336.019c0,6.029,3.496,24.119,0.5,31.488c-2.329,4.186-6.658,6.865-10.987,9.713&#10;&#9;c-1.997,0-1.788-0.502-2.912,0.879c-1.124,1.382-6.492,2.011-6.118,0.126c0-1.005-4.119,0.126-0.249-3.643&#10;&#9;s9.363-12.687,5.118-21.229c-1.872-1.885-0.249,3.894-1.747,7.537c-1.499,3.643-7.366,11.179-5.993,6.154s2.497-11.556,2.372-15.701&#10;&#9;s4.12-10.929,4.619-14.822C244.34,335.391,248.875,336.019,248.875,336.019z" id="el_8dRFqC4Z4lY"/>
<path stroke-miterlimit="10" d="M244.714,362.774c0,0-0.249,9.547-5.992,13.314" id="el_C3vIUz-qaEA"/>
<path stroke-miterlimit="10" d="M240.595,360.388&#10;&#9;c-0.25,5.652-0.874,9.672-3.496,11.808s-6.367,5.778-6.367,5.778" id="el_R4R7TTOXCEF"/>
<path stroke-miterlimit="10" d="M66.193,334.162&#10;&#9;c-5.66-8.877-11.153-24.452-9.988-53.091s3.662-62.974,8.656-84.58c4.994-21.605,11.153-55.94,28.465-72.855&#10;&#9;c6.492,14.403,6.742,18.926,8.24,42.038c1.498,23.113,1.249,54.767-3.496,93.958c-4.744,39.191-5.244,59.792-13.483,74.613&#10;&#9;C71.853,334.246,66.193,334.162,66.193,334.162z" id="el_9vhTnLXh08V"/>
<path stroke-miterlimit="10" d="M220.387,121.221&#10;&#9;c8.739,9.547,29.214,51.25,35.956,123.101c3.246,26.881,6.492,71.85-6.242,87.426c-14.233,0-18.229,0-18.229,0&#10;&#9;s-7.74-10.551-7.49-31.906c0.249-21.354,0.998-69.087-1.998-108.027C219.388,152.876,220.137,127.502,220.387,121.221z" id="el_WHpV8JbxSgL"/>
<path stroke-miterlimit="10" d="M83.713,341.281l-17.854-0.252&#10;&#9;c0,0-2.497-4.145-1.249-7.788c10.487,0,20.226,0,20.226,0C88.583,335.252,86.335,341.281,83.713,341.281z" id="el_sYwf1f_65hh"/>
<path stroke-miterlimit="10" d="M233.354,338.782l17.853-0.251&#10;&#9;c0,0,2.497-4.146,1.249-7.788c-10.487,0-20.226,0-20.226,0C228.484,332.753,230.731,338.782,233.354,338.782z" id="el_JXzFAKHZjKf"/>
<path d="M107.772,621.914v-16.916l6.492-7.201h17.812c0,0,8.157,9.88,12.485,14.235c5.826,0,8.822,2.68,8.323,9.714&#10;&#9;C132.742,621.746,107.772,621.914,107.772,621.914z" id="el_e_GypQmMmYW"/>
<path d="M198.33,621.077v-12.562h13.151c9.488-5.36,10.819-6.867,10.819-6.867s10.986,1.005,23.805,4.02&#10;&#9;s25.969,7.705,14.316,15.409C239.113,621.077,198.33,621.077,198.33,621.077z" id="el_vu2aOObaSkn"/>
<path stroke-miterlimit="10" d="M194.45,74.363&#10;&#9;c-1.472-0.76-3.534-1.251-5.464-1.251c-4.792,0-8.677,2.755-8.677,6.155s3.885,6.155,8.677,6.155c1.598,0,3.527-0.333,4.861-0.87" id="el_eQJx42zNT5u"/>
<path stroke-miterlimit="10" d="M160.583,69.595&#10;&#9;c3.871-1.884,6.742-2.764,9.738-1.633" id="el_RtR459WiSwZ"/>
<path stroke-miterlimit="10" d="M183.307,67.459&#10;&#9;c3.495-0.628,7.99-0.502,9.363,1.382" id="el_jNQye4Jscso"/>
<path stroke-miterlimit="10" d="M171.945,102.128c0,0,7.366,3.894,12.36-0.754" id="el_qMDAVsEcqYO"/>
<path stroke-miterlimit="10" d="M68.487,236.031c0,0,9.322,10.217,9.322,9.714&#10;&#9;c3.496,3.349,9.488,0.502,2.331-8.542c-7.158-9.044-9.322-11.724-9.322-11.724c-3.579-3.601,2.33-8.708,9.988-3.35&#10;&#9;c7.99,6.867,14.982,15.408,14.982,15.408" id="el_X-aXaA5hSov"/>
<path stroke-miterlimit="10" d="M225.131,230.002l8.323-8.709&#10;&#9;c6.326-6.365,13.983-2.177,9.489,4.522c-4.495,6.699-9.822,11.724-9.822,11.724c-4.495,5.862,0,9.379,4.162,5.694&#10;&#9;c4.161-3.685,9.155-8.876,9.155-8.876" id="el_VN7Z7vWkfI-"/>
<g id="el_7tl4_MsuHXy_an_vAZlQNNMn" data-animator-group="true" data-animator-type="1"><g id="el_7tl4_MsuHXy">
	<defs>
		<rect id="SVGID_1_" x="125.818" y="26.494" width="72.439" height="94.886"/>
	</defs>
	<clipPath id="SVGID_2_">
		<use xlink:href="#SVGID_1_" overflow="visible"/>
	</clipPath>
	<g clip-path="url(#SVGID_2_)" id="el_Qbv-L0vPFb3">
		<path d="M146.883,48.038c-2.446,4.922-4.893,11.65-3.75,19.526c1.142,7.876-11.743,10.173-13.211-4.431&#10;&#9;&#9;&#9;c-1.467-14.604,7.177-29.372,22.344-33.638c15.167-4.266,42.077,1.313,40.119,21.003c-0.163,1.313-6.849-12.963-9.785-4.267&#10;&#9;&#9;&#9;c-1.631,4.103-7.828,6.728-14.025,2.626C162.377,44.756,151.45,40.654,146.883,48.038z" id="el_5FQjM4mcF2K"/>
		<path d="M137.611,90.321c-2.122,1.758-9.988-1.256-9.488-9.547c0.5-8.29,3.995-7.914,9.613-7.537&#10;&#9;&#9;&#9;c4.869-3.894,3.87-9.169,5.119-15.953s2.123-18.088,20.226-12.562c10.862,3.141,14.108,8.165,18.353,2.01&#10;&#9;&#9;&#9;c4.245-6.155,5.368-5.903,9.863,1.759c2.497,4.522,4.619,25.75,1.872,40.699c-1.872,9.295-5.368,22.484-13.108,27.76&#10;&#9;&#9;&#9;c-3.122,2.135-16.855,4.522-30.838-5.653C145.103,108.158,139.484,102.002,137.611,90.321z" id="el_-WsmgW556KH"/>
		<path stroke-miterlimit="10" d="M137.679,73.475&#10;&#9;&#9;&#9;c9.613,1.633,16.038,4.41,19.658,6.168" id="el_GC9N6ekK9St"/>
		<path stroke-miterlimit="10" d="M171.148,74.703&#10;&#9;&#9;&#9;c2.004-1.005,8.551-2.387,11.625,0.125" id="el_wyzXsCkS2BP"/>
		<path stroke-miterlimit="10" d="M177.938,76.126&#10;&#9;&#9;&#9;c0.125,3.894,2.372,9.672,3.371,11.933c0.999,2.261,1.248,5.527-3.87,5.276" id="el_ypsXn0SB8uf"/>
		
			<ellipse stroke-miterlimit="10" cx="165.702" cy="79.958" rx="8.24" ry="6.595" id="el_DkdsNXReGPQ"/>
		<path d="M168.146,75.915c0.76,1.208,0.021,3.049-1.65,4.114s-3.641,0.951-4.401-0.257&#10;&#9;&#9;&#9;c-0.76-1.207-0.021-3.048,1.65-4.113C165.415,74.594,167.385,74.708,168.146,75.915z" id="el_gNPEhPvOpFB"/>
		<path d="M190.867,75.999c0.761,1.208,0.021,3.049-1.649,4.114c-1.671,1.064-3.641,0.95-4.401-0.257&#10;&#9;&#9;&#9;c-0.759-1.207-0.021-3.048,1.65-4.113C188.138,74.678,190.107,74.792,190.867,75.999z" id="el_Ii-8zv5uqvZ"/>
		<path stroke-miterlimit="10" d="M194.45,74.363&#10;&#9;&#9;&#9;c-1.472-0.76-3.534-1.251-5.464-1.251c-4.792,0-8.677,2.755-8.677,6.155s3.885,6.155,8.677,6.155c1.598,0,3.527-0.333,4.861-0.87" id="el_gAMnVAobrnE"/>
		<path stroke-miterlimit="10" d="M130.62,77.634&#10;&#9;&#9;&#9;c1.998-1.005,3.995,0.251,5.119,2.135" id="el_7vAMwsZs1yj"/>
		<path stroke-miterlimit="10" d="M160.583,69.595&#10;&#9;&#9;&#9;c3.871-1.884,6.742-2.764,9.738-1.633" id="el_nTe9WgbwG8s"/>
		<path stroke-miterlimit="10" d="M183.307,67.459&#10;&#9;&#9;&#9;c3.495-0.628,7.99-0.502,9.363,1.382" id="el_DCL03a3YYDb"/>
		<path stroke-miterlimit="10" d="M171.945,102.128c0,0,7.366,3.894,12.36-0.754" id="el_4y61Kqz9BZA"/>
	</g>
</g></g>
</svg>