<svg version="1.1" id="el_034bwGh5o" xmlns="http://www.w3.org/2000/svg" xmlns:xlink="http://www.w3.org/1999/xlink" x="0px" y="0px" viewBox="0 0 172 513" enable-background="new 0 -0.238 172.42 513.516" xml:space="preserve"><style>@-webkit-keyframes kf_el_SGn21gYLkG_an_SHUhSC1Jf{0%{-webkit-transform: translate(86.50049614906311px, 511.4999921321869px) translate(-86.50049614906311px, -511.4999921321869px) translate(0px, 0px);transform: translate(86.50049614906311px, 511.4999921321869px) translate(-86.50049614906311px, -511.4999921321869px) translate(0px, 0px);}100%{-webkit-transform: translate(86.50049614906311px, 511.4999921321869px) translate(-86.50049614906311px, -511.4999921321869px) translate(0px, -660px);transform: translate(86.50049614906311px, 511.4999921321869px) translate(-86.50049614906311px, -511.4999921321869px) translate(0px, -660px);}}@keyframes kf_el_SGn21gYLkG_an_SHUhSC1Jf{0%{-webkit-transform: translate(86.50049614906311px, 511.4999921321869px) translate(-86.50049614906311px, -511.4999921321869px) translate(0px, 0px);transform: translate(86.50049614906311px, 511.4999921321869px) translate(-86.50049614906311px, -511.4999921321869px) translate(0px, 0px);}100%{-webkit-transform: translate(86.50049614906311px, 511.4999921321869px) translate(-86.50049614906311px, -511.4999921321869px) translate(0px, -660px);transform: translate(86.50049614906311px, 511.4999921321869px) translate(-86.50049614906311px, -511.4999921321869px) translate(0px, -660px);}}#el_034bwGh5o *{-webkit-animation-duration: 3s;animation-duration: 3s;-webkit-animation-iteration-count: infinite;animation-iteration-count: infinite;-webkit-animation-timing-function: cubic-bezier(0, 0, 1, 1);animation-timing-function: cubic-bezier(0, 0, 1, 1);}#el_iJ5QbI4pHM{opacity: 0.1;fill: #010101;}#el_SFfw8uQKU0{fill: #FFFFFF;}#el_OdMuhu0wO3{fill: #12274A;}#el_OKrp-tg9u3{fill: #D2D3D4;}#el_CtR5mTYhd-{fill: #D2D3D4;}#el_vmVonHvEG4{fill: #D2D3D4;}#el_vCG8Kzm7LX{fill: #D2D3D4;}#el_fIYzrKaJp1{fill: #D2D3D4;}#el_WbF_DDcFkF{fill: #D2D3D4;}#el_-JZc20OugW{fill: #D2D3D4;}#el_bSVHa7V8vO{fill: #D2D3D4;}#el_zE5s3UInNUn{fill: #D2D3D4;}#el_rOBhp2yAgfE{fill: #D2D3D4;}#el_UMxMMn7pOsB{fill: #D2D3D4;}#el_hfTXjsbBjDA{fill: #D2D3D4;}#el_VbqbsbRtWyF{fill: #D2D3D4;}#el_JBT3EMetZPW{fill: #D2D3D4;}#el_PmHL8vrXN8J{fill: #D2D3D4;}#el_N_Uf247TJ80{fill: #D2D3D4;}#el_GtmmsDFpvZD{fill: #D2D3D4;}#el_0YwTOzCgPsk{fill: #D2D3D4;}#el_HbULC7v8Tn2{fill: #D2D3D4;}#el_4XO4RCBI8bb{fill: #D2D3D4;}#el_KPw7jNTgeSv{fill: #D2D3D4;}#el_SfBwtIiDRR-{fill: #D2D3D4;}#el_RbxtoiYyz_b{fill: #D2D3D4;}#el_as1LKLVrCku{fill: #D2D3D4;}#el_M8F0uiW7lX3{fill: none;stroke: #B84662;stroke-width: 1.5;}#el_fTsXqPhNu_a{fill: none;stroke: #B84662;stroke-width: 1.5;}#el_iKAewAWdjqa{fill: #1168A7;}#el_HFE0LuPlwlY{fill: #FFFFFF;}#el_38SNVEj8yXn{fill: #FFFFFF;}#el_VD9BbHmU5AH{fill: #FFFFFF;}#el_ufAnkgDQ-XP{fill: #FFFFFF;}#el_1X1dDyQSVlH{fill: #FFFFFF;}#el_flV2zodOApP{fill: #FFFFFF;}#el_ZIaqi79csFQ{fill: #FFFFFF;}#el_grKa_QuDild{fill: #FFFFFF;}#el_oRpEOGejgWv{fill: #FFFFFF;}#el_i8h6du9f8H1{fill: #FFFFFF;}#el_rpdgvU4R8Sc{fill: #FFFFFF;}#el_KEX0zXZiheq{fill: #FFFFFF;}#el_BDCf1do0_KH{fill: #FFFFFF;}#el_-jVwPZ5M4RU{fill: #FFFFFF;}#el_CyvTfX5h9J2{fill: #FFFFFF;}#el_ibWgyp0vKjA{fill: #FFFFFF;}#el_NwfKmqt4I8M{fill: #FFFFFF;}#el_acSQILk1fPH{fill: #FFFFFF;}#el_qGvavx_S_s6{fill: #FFFFFF;}#el_HHbuBBAsKo1{fill: #FFFFFF;}#el_jWWmCJeNSd2{fill: #FFFFFF;}#el_MAV0ao10QEW{fill: #FFFFFF;}#el_RmtLjuQE8WY{fill: #FFFFFF;}#el_oNTmKbmSj7Y{fill: #FFFFFF;}#el_vZ4olFNqJQD{fill: #FFFFFF;}#el_eobl3lX44ME{fill: #FFFFFF;}#el_eMQzD7o17vh{fill: #FFFFFF;}#el_uJEJISrs0A_{fill: #FFFFFF;}#el_hp1-xWnEdTb{fill: #FFFFFF;}#el_iyjHGen_Pl5{fill: #FFFFFF;}#el_oKAJxIF9jxf{fill: #FFFFFF;}#el_vNpSYqgM9rr{fill: #FFFFFF;}#el_EK4THPIon5G{fill: #FFFFFF;}#el_nf2Z8JuvwkY{fill: #FFFFFF;}#el_qPtzQZmAdpN{fill: #FFFFFF;}#el_23l7bncRUwf{fill: #FFFFFF;}#el_cRIXKKfYAXE{opacity: 0.1;fill: #010101;}#el_WxqILB9SpeK{fill: #FFFFFF;}#el_QzETEo6aYH6{fill: #12274A;}#el_5B9yWE6a9Fu{fill: #D2D3D4;}#el_fTx8XBU7LgW{fill: #D2D3D4;}#el_I6dJeTmiqln{fill: #D2D3D4;}#el_rPViuXArWxs{fill: #D2D3D4;}#el_Y8pheiizb8B{fill: #D2D3D4;}#el_G5SuyV-DcdJ{fill: #D2D3D4;}#el_HiOdTSTmzbv{fill: #D2D3D4;}#el_zcdpRZnNFfT{fill: #D2D3D4;}#el_cKm5GuQljC5{fill: #D2D3D4;}#el_66CV-hiEIAb{fill: #D2D3D4;}#el_eta-wE-7yov{fill: #D2D3D4;}#el_NjEMVsJFL3g{fill: #D2D3D4;}#el_9HSZobJ8ck3{fill: #D2D3D4;}#el_TybpLxoPbWe{fill: #D2D3D4;}#el_WnlLI6s1hna{fill: #D2D3D4;}#el_illPwm-b3qk{fill: #D2D3D4;}#el_9hlNrac_Nnn{fill: #D2D3D4;}#el_u6JvgyDJ0CO{fill: #D2D3D4;}#el_qJ9K3rEM8-M{fill: #D2D3D4;}#el_WtfAMWrIx9Q{fill: #D2D3D4;}#el_d1wXFP4RUmT{fill: #D2D3D4;}#el_x5Uy7fZZiBL{fill: #D2D3D4;}#el_pCHpiI-1aWn{fill: #D2D3D4;}#el_JSS3t7mwP8w{fill: #D2D3D4;}#el_d7UUsR44Plh{fill: none;stroke: #B84662;stroke-width: 1.5;}#el_1CQPSyaYuTC{fill: none;stroke: #B84662;stroke-width: 1.5;}#el_Cmf45E2AkOK{fill: #1168A7;}#el_YNOFeVIcLLX{fill: #FFFFFF;}#el_G-t3DSmLCTU{fill: #FFFFFF;}#el_Rr4Nyc1NICk{fill: #FFFFFF;}#el_Jw86QUjgFs3{fill: #FFFFFF;}#el_Uwtna1VGFnq{fill: #FFFFFF;}#el_GLojrbpqB8H{fill: #FFFFFF;}#el_C93r1T0SWgW{fill: #FFFFFF;}#el_ZBrXHdbq-g1{fill: #FFFFFF;}#el_nifkmKF5930{fill: #FFFFFF;}#el_adR43uhGUfG{fill: #FFFFFF;}#el_sSRNyLrAta3{fill: #FFFFFF;}#el_uwA05PZRaTO{fill: #FFFFFF;}#el_zFRnmU1gHeQ{fill: #FFFFFF;}#el_PuVaSOSep5Q{fill: #FFFFFF;}#el_ExCwjXXLJxq{fill: #FFFFFF;}#el_o4f_BmoJLsb{fill: #FFFFFF;}#el_tSGNdKrwT9d{fill: #FFFFFF;}#el_52kgw7JLCCK{fill: #FFFFFF;}#el_k-0F6-zOl6H{fill: #FFFFFF;}#el_pZmuGoDdwIa{fill: #FFFFFF;}#el_0F1LGkJU4PB{fill: #FFFFFF;}#el_ynMqQ38w5Bo{fill: #FFFFFF;}#el_VY8WoJeJroo{fill: #FFFFFF;}#el_YrSs48unMiq{fill: #FFFFFF;}#el_8tpad5NiqBM{fill: #FFFFFF;}#el_mRwG8mIFKwZ{fill: #FFFFFF;}#el_1S_r2WK6lYW{fill: #FFFFFF;}#el_6u_AjysxQEk{fill: #FFFFFF;}#el_sJRk9KhnVap{fill: #FFFFFF;}#el_TR0u54oyH6w{fill: #FFFFFF;}#el_YKa7RXbQUeo{fill: #FFFFFF;}#el_9t5IohSZzNU{fill: #FFFFFF;}#el_KEgyqq0StlT{fill: #FFFFFF;}#el_908IxJIT4YE{fill: #FFFFFF;}#el_xftlwlDlvld{fill: #FFFFFF;}#el_Q-D43KqAxJW{fill: #FFFFFF;}#el_SGn21gYLkG_an_SHUhSC1Jf{-webkit-animation-fill-mode: backwards;animation-fill-mode: backwards;-webkit-transform: translate(86.50049614906311px, 511.4999921321869px) translate(-86.50049614906311px, -511.4999921321869px) translate(0px, 0px);transform: translate(86.50049614906311px, 511.4999921321869px) translate(-86.50049614906311px, -511.4999921321869px) translate(0px, 0px);-webkit-animation-name: kf_el_SGn21gYLkG_an_SHUhSC1Jf;animation-name: kf_el_SGn21gYLkG_an_SHUhSC1Jf;-webkit-animation-timing-function: cubic-bezier(0, 0, 1, 1);animation-timing-function: cubic-bezier(0, 0, 1, 1);}#el_SGn21gYLkG_an_CF3WqqdwW{-webkit-transform: translate(2.6670000553131104px, 1.8329999446868896px) scale(0.5, 0.5) translate(-2.6670000553131104px, -1.8329999446868896px);transform: translate(2.6670000553131104px, 1.8329999446868896px) scale(0.5, 0.5) translate(-2.6670000553131104px, -1.8329999446868896px);}</style>
<g id="el_SGn21gYLkG_an_SHUhSC1Jf" data-animator-group="true" data-animator-type="0"><g id="el_SGn21gYLkG">
	<defs>
		<rect id="SVGID_1_" x="0.948" y="1.078" width="170.302" height="511.044"/>
	</defs>
	<clipPath id="SVGID_2_">
		<use xlink:href="#SVGID_1_" overflow="visible"/>
	</clipPath>
	<g clip-path="url(#SVGID_2_)" id="el_Q50AaNj2Op">
		<rect x="13" y="17.167" enable-background="new    " width="157.334" height="231.667" id="el_iJ5QbI4pHM"/>
	</g>
	<rect x="2.667" y="1.833" clip-path="url(#SVGID_2_)" width="157.333" height="231.667" id="el_SFfw8uQKU0"/>
	<g clip-path="url(#SVGID_2_)" id="el_az259VB7Z5">
		<rect x="2.667" y="1.833" width="157.333" height="31.03" id="el_OdMuhu0wO3"/>
	</g>
	<g clip-path="url(#SVGID_2_)" id="el_6hPPttOyfj">
		<rect x="16.833" y="50.5" width="60.168" height="5" id="el_OKrp-tg9u3"/>
		<rect x="16.833" y="60.917" width="60.168" height="5" id="el_CtR5mTYhd-"/>
		<rect x="16.833" y="71.334" width="60.168" height="5" id="el_vmVonHvEG4"/>
		<rect x="16.833" y="81.751" width="60.168" height="5" id="el_vCG8Kzm7LX"/>
		<rect x="86.751" y="50.5" width="60.165" height="5" id="el_fIYzrKaJp1"/>
		<rect x="86.751" y="60.917" width="60.165" height="5" id="el_WbF_DDcFkF"/>
		<rect x="86.751" y="71.334" width="60.165" height="5" id="el_-JZc20OugW"/>
		<rect x="86.751" y="81.751" width="60.165" height="5" id="el_bSVHa7V8vO"/>
	</g>
	<g clip-path="url(#SVGID_2_)" id="el_GMqLLGuQmC0">
		<rect x="16.833" y="114.417" width="60.168" height="5" id="el_zE5s3UInNUn"/>
		<rect x="16.833" y="124.833" width="60.168" height="5" id="el_rOBhp2yAgfE"/>
		<rect x="16.833" y="135.25" width="60.168" height="5" id="el_UMxMMn7pOsB"/>
		<rect x="16.833" y="145.668" width="60.168" height="5" id="el_hfTXjsbBjDA"/>
		<rect x="86.751" y="114.417" width="60.165" height="5" id="el_VbqbsbRtWyF"/>
		<rect x="86.751" y="124.833" width="60.165" height="5" id="el_JBT3EMetZPW"/>
		<rect x="86.751" y="135.25" width="60.165" height="5" id="el_PmHL8vrXN8J"/>
		<rect x="86.751" y="145.668" width="60.165" height="5" id="el_N_Uf247TJ80"/>
	</g>
	<g clip-path="url(#SVGID_2_)" id="el_vl7Fyda0HhO">
		<g id="el_pTMgazU2QLB">
			<rect x="16.833" y="178.334" width="60.168" height="5" id="el_GtmmsDFpvZD"/>
			<rect x="16.833" y="188.75" width="60.168" height="5" id="el_0YwTOzCgPsk"/>
			<rect x="16.833" y="199.168" width="60.168" height="5" id="el_HbULC7v8Tn2"/>
			<rect x="16.833" y="209.584" width="60.168" height="5" id="el_4XO4RCBI8bb"/>
			<rect x="86.751" y="178.334" width="60.165" height="5" id="el_KPw7jNTgeSv"/>
			<rect x="86.751" y="188.75" width="60.165" height="5" id="el_SfBwtIiDRR-"/>
			<rect x="86.751" y="199.168" width="60.165" height="5" id="el_RbxtoiYyz_b"/>
			<rect x="86.751" y="209.584" width="60.165" height="5" id="el_as1LKLVrCku"/>
		</g>
	</g>
	<g clip-path="url(#SVGID_2_)" id="el_J8YZumkxjhJ">
		
			<rect x="81.417" y="44.333" stroke-miterlimit="10" width="69.499" height="49" id="el_M8F0uiW7lX3"/>
	</g>
	
		<rect x="81.417" y="107.833" clip-path="url(#SVGID_2_)" stroke-miterlimit="10" width="69.499" height="49" id="el_fTsXqPhNu_a"/>
	<g clip-path="url(#SVGID_2_)" id="el__L-9qJvul6Y">
		<rect x="15.917" y="9.083" width="16.25" height="16.25" id="el_iKAewAWdjqa"/>
	</g>
	<g clip-path="url(#SVGID_2_)" id="el_gvVcQyRsKRg">
		<g id="el_jHwdxMykSxK">
			<path d="M18.581,16.344v2.014h2.328v-2.014h0.628v4.813h-0.628v-2.256h-2.328v2.256H17.96v-4.813H18.581z" id="el_HFE0LuPlwlY"/>
			<path d="M23.236,16.344v4.813h-0.621v-4.813H23.236z" id="el_38SNVEj8yXn"/>
			<path d="M25.235,16.873h-1.464v-0.528h3.563v0.528h-1.471v4.285h-0.629L25.235,16.873L25.235,16.873z" id="el_VD9BbHmU5AH"/>
			<path d="M27.742,20.4c0.278,0.171,0.686,0.314,1.114,0.314c0.636,0,1.007-0.335,1.007-0.821&#10;&#9;&#9;&#9;&#9;c0-0.45-0.257-0.707-0.907-0.957c-0.786-0.279-1.271-0.686-1.271-1.364c0-0.75,0.621-1.307,1.557-1.307&#10;&#9;&#9;&#9;&#9;c0.493,0,0.85,0.114,1.064,0.236l-0.171,0.507c-0.157-0.086-0.479-0.229-0.914-0.229c-0.657,0-0.907,0.393-0.907,0.721&#10;&#9;&#9;&#9;&#9;c0,0.45,0.293,0.671,0.957,0.928c0.814,0.314,1.228,0.707,1.228,1.414c0,0.743-0.55,1.385-1.685,1.385&#10;&#9;&#9;&#9;&#9;c-0.464,0-0.971-0.136-1.229-0.307L27.742,20.4z" id="el_ufAnkgDQ-XP"/>
		</g>
	</g>
	<g clip-path="url(#SVGID_2_)" id="el_97wkcpqxKXw">
		<g id="el_STf8mwtmZbq">
			<path d="M39.548,12.478c-0.069,0.036-0.222,0.084-0.417,0.084c-0.439,0-0.725-0.298-0.725-0.743&#10;&#9;&#9;&#9;&#9;c0-0.448,0.307-0.772,0.782-0.772c0.156,0,0.294,0.039,0.367,0.075l-0.061,0.204c-0.063-0.036-0.162-0.069-0.306-0.069&#10;&#9;&#9;&#9;&#9;c-0.334,0-0.514,0.247-0.514,0.55c0,0.337,0.216,0.544,0.505,0.544c0.15,0,0.25-0.039,0.325-0.072L39.548,12.478z" id="el_1X1dDyQSVlH"/>
			<path d="M41.154,11.793c0,0.538-0.373,0.772-0.725,0.772c-0.394,0-0.697-0.289-0.697-0.749&#10;&#9;&#9;&#9;&#9;c0-0.487,0.318-0.772,0.721-0.772C40.872,11.044,41.154,11.348,41.154,11.793z M40,11.808c0,0.319,0.183,0.559,0.442,0.559&#10;&#9;&#9;&#9;&#9;c0.252,0,0.442-0.237,0.442-0.565c0-0.247-0.124-0.559-0.436-0.559C40.136,11.243,40,11.531,40,11.808z" id="el_flV2zodOApP"/>
			<path d="M41.484,10.398h0.265v2.134h-0.265V10.398z" id="el_ZIaqi79csFQ"/>
			<path d="M43.449,10.398v1.758c0,0.129,0.003,0.277,0.012,0.376h-0.237l-0.012-0.252h-0.006&#10;&#9;&#9;&#9;&#9;c-0.081,0.162-0.258,0.286-0.496,0.286c-0.352,0-0.622-0.298-0.622-0.74c-0.003-0.484,0.297-0.781,0.652-0.781&#10;&#9;&#9;&#9;&#9;c0.222,0,0.373,0.105,0.439,0.222h0.006v-0.869H43.449z M43.185,11.669c0-0.033-0.003-0.078-0.012-0.111&#10;&#9;&#9;&#9;&#9;c-0.039-0.168-0.183-0.307-0.381-0.307c-0.274,0-0.436,0.241-0.436,0.563c0,0.294,0.144,0.538,0.43,0.538&#10;&#9;&#9;&#9;&#9;c0.177,0,0.34-0.117,0.388-0.316c0.009-0.036,0.012-0.072,0.012-0.114L43.185,11.669L43.185,11.669z" id="el_grKa_QuDild"/>
			<path d="M45.141,10.398v1.758c0,0.129,0.003,0.277,0.012,0.376h-0.237l-0.012-0.252h-0.006&#10;&#9;&#9;&#9;&#9;c-0.081,0.162-0.258,0.286-0.496,0.286c-0.352,0-0.622-0.298-0.622-0.74c-0.003-0.484,0.297-0.781,0.652-0.781&#10;&#9;&#9;&#9;&#9;c0.222,0,0.373,0.105,0.439,0.222h0.006v-0.869H45.141z M44.876,11.669c0-0.033-0.003-0.078-0.012-0.111&#10;&#9;&#9;&#9;&#9;c-0.039-0.168-0.183-0.307-0.382-0.307c-0.273,0-0.436,0.241-0.436,0.563c0,0.294,0.144,0.538,0.43,0.538&#10;&#9;&#9;&#9;&#9;c0.177,0,0.34-0.117,0.388-0.316c0.009-0.036,0.012-0.072,0.012-0.114V11.669z" id="el_oRpEOGejgWv"/>
			<path d="M45.541,12.262c0.078,0.051,0.216,0.105,0.349,0.105c0.192,0,0.282-0.096,0.282-0.216&#10;&#9;&#9;&#9;&#9;c0-0.126-0.075-0.195-0.271-0.268c-0.261-0.093-0.385-0.237-0.385-0.412c0-0.234,0.189-0.427,0.502-0.427&#10;&#9;&#9;&#9;&#9;c0.147,0,0.277,0.042,0.358,0.09l-0.066,0.192c-0.057-0.036-0.163-0.084-0.298-0.084c-0.156,0-0.244,0.09-0.244,0.198&#10;&#9;&#9;&#9;&#9;c0,0.121,0.087,0.174,0.277,0.247c0.252,0.096,0.382,0.223,0.382,0.439c0,0.255-0.199,0.436-0.544,0.436&#10;&#9;&#9;&#9;&#9;c-0.159,0-0.307-0.039-0.409-0.1L45.541,12.262z" id="el_i8h6du9f8H1"/>
			<path d="M46.729,12.262c0.078,0.051,0.216,0.105,0.349,0.105c0.192,0,0.282-0.096,0.282-0.216&#10;&#9;&#9;&#9;&#9;c0-0.126-0.075-0.195-0.271-0.268c-0.261-0.093-0.385-0.237-0.385-0.412c0-0.234,0.189-0.427,0.502-0.427&#10;&#9;&#9;&#9;&#9;c0.147,0,0.277,0.042,0.358,0.09l-0.066,0.192c-0.057-0.036-0.163-0.084-0.298-0.084c-0.156,0-0.244,0.09-0.244,0.198&#10;&#9;&#9;&#9;&#9;c0,0.121,0.087,0.174,0.277,0.247c0.252,0.096,0.382,0.223,0.382,0.439c0,0.255-0.199,0.436-0.544,0.436&#10;&#9;&#9;&#9;&#9;c-0.159,0-0.307-0.039-0.409-0.1L46.729,12.262z" id="el_rpdgvU4R8Sc"/>
			<path d="M39.548,17.046c-0.069,0.036-0.222,0.084-0.417,0.084c-0.439,0-0.725-0.298-0.725-0.743&#10;&#9;&#9;&#9;&#9;c0-0.448,0.307-0.772,0.782-0.772c0.156,0,0.294,0.039,0.367,0.075l-0.061,0.204c-0.063-0.036-0.162-0.069-0.306-0.069&#10;&#9;&#9;&#9;&#9;c-0.334,0-0.514,0.247-0.514,0.55c0,0.337,0.216,0.544,0.505,0.544c0.15,0,0.25-0.039,0.325-0.072L39.548,17.046z" id="el_KEX0zXZiheq"/>
			<path d="M40.661,17.101l-0.021-0.184h-0.009c-0.081,0.114-0.238,0.217-0.445,0.217&#10;&#9;&#9;&#9;&#9;c-0.295,0-0.445-0.208-0.445-0.418c0-0.352,0.313-0.544,0.875-0.541v-0.03c0-0.12-0.033-0.336-0.331-0.336&#10;&#9;&#9;&#9;&#9;c-0.135,0-0.277,0.042-0.379,0.108l-0.06-0.174c0.12-0.078,0.294-0.129,0.478-0.129c0.445,0,0.553,0.303,0.553,0.595v0.544&#10;&#9;&#9;&#9;&#9;c0,0.126,0.006,0.25,0.024,0.349L40.661,17.101L40.661,17.101z M40.622,16.358c-0.289-0.006-0.616,0.045-0.616,0.328&#10;&#9;&#9;&#9;&#9;c0,0.171,0.114,0.253,0.25,0.253c0.189,0,0.31-0.121,0.352-0.244c0.009-0.027,0.015-0.057,0.015-0.084L40.622,16.358&#10;&#9;&#9;&#9;&#9;L40.622,16.358z" id="el_BDCf1do0_KH"/>
			<path d="M41.301,14.966h0.265V17.1h-0.265V14.966z" id="el_-jVwPZ5M4RU"/>
			<path d="M42.009,14.966h0.265v0.908h0.006c0.042-0.075,0.108-0.141,0.189-0.186&#10;&#9;&#9;&#9;&#9;c0.078-0.045,0.171-0.075,0.271-0.075c0.196,0,0.508,0.12,0.508,0.622v0.866h-0.265v-0.835c0-0.235-0.087-0.433-0.336-0.433&#10;&#9;&#9;&#9;&#9;c-0.171,0-0.307,0.12-0.355,0.265c-0.015,0.036-0.018,0.075-0.018,0.126v0.878h-0.265V14.966z" id="el_CyvTfX5h9J2"/>
			<path d="M44.711,17.046c-0.069,0.036-0.222,0.084-0.417,0.084c-0.439,0-0.725-0.298-0.725-0.743&#10;&#9;&#9;&#9;&#9;c0-0.448,0.307-0.772,0.782-0.772c0.156,0,0.294,0.039,0.367,0.075l-0.061,0.204c-0.063-0.036-0.162-0.069-0.306-0.069&#10;&#9;&#9;&#9;&#9;c-0.334,0-0.514,0.247-0.514,0.55c0,0.337,0.216,0.544,0.505,0.544c0.15,0,0.25-0.039,0.325-0.072L44.711,17.046z" id="el_ibWgyp0vKjA"/>
			<path d="M45.018,16.04c0-0.15-0.003-0.273-0.012-0.394h0.234l0.015,0.241h0.006&#10;&#9;&#9;&#9;&#9;c0.072-0.138,0.241-0.273,0.481-0.273c0.202,0,0.514,0.12,0.514,0.619v0.869h-0.265v-0.839c0-0.234-0.087-0.43-0.336-0.43&#10;&#9;&#9;&#9;&#9;c-0.175,0-0.31,0.123-0.355,0.271c-0.012,0.033-0.018,0.078-0.018,0.124v0.875h-0.265L45.018,16.04L45.018,16.04z" id="el_NwfKmqt4I8M"/>
			<path d="M46.647,16.83c0.078,0.051,0.216,0.105,0.349,0.105c0.192,0,0.282-0.096,0.282-0.216&#10;&#9;&#9;&#9;&#9;c0-0.126-0.075-0.195-0.271-0.268c-0.261-0.093-0.385-0.237-0.385-0.412c0-0.234,0.189-0.427,0.502-0.427&#10;&#9;&#9;&#9;&#9;c0.147,0,0.277,0.042,0.358,0.09l-0.066,0.192c-0.057-0.036-0.163-0.084-0.298-0.084c-0.156,0-0.244,0.09-0.244,0.198&#10;&#9;&#9;&#9;&#9;c0,0.121,0.087,0.174,0.277,0.247c0.252,0.096,0.382,0.223,0.382,0.439c0,0.255-0.199,0.436-0.544,0.436&#10;&#9;&#9;&#9;&#9;c-0.159,0-0.307-0.039-0.409-0.1L46.647,16.83z" id="el_acSQILk1fPH"/>
			<path d="M47.835,16.83c0.078,0.051,0.216,0.105,0.349,0.105c0.192,0,0.282-0.096,0.282-0.216&#10;&#9;&#9;&#9;&#9;c0-0.126-0.075-0.195-0.271-0.268c-0.261-0.093-0.385-0.237-0.385-0.412c0-0.234,0.189-0.427,0.502-0.427&#10;&#9;&#9;&#9;&#9;c0.147,0,0.277,0.042,0.358,0.09l-0.066,0.192c-0.057-0.036-0.163-0.084-0.298-0.084c-0.156,0-0.244,0.09-0.244,0.198&#10;&#9;&#9;&#9;&#9;c0,0.121,0.087,0.174,0.277,0.247c0.252,0.096,0.382,0.223,0.382,0.439c0,0.255-0.199,0.436-0.544,0.436&#10;&#9;&#9;&#9;&#9;c-0.159,0-0.307-0.039-0.409-0.1L47.835,16.83z" id="el_qGvavx_S_s6"/>
			<path d="M50.313,15.646c-0.006,0.105-0.012,0.223-0.012,0.4v0.845c0,0.333-0.066,0.538-0.208,0.665&#10;&#9;&#9;&#9;&#9;c-0.141,0.132-0.346,0.174-0.529,0.174c-0.174,0-0.367-0.042-0.484-0.121l0.066-0.201c0.096,0.06,0.247,0.114,0.427,0.114&#10;&#9;&#9;&#9;&#9;c0.271,0,0.469-0.141,0.469-0.508v-0.162h-0.006c-0.081,0.135-0.237,0.244-0.463,0.244c-0.361,0-0.619-0.307-0.619-0.709&#10;&#9;&#9;&#9;&#9;c0-0.493,0.322-0.772,0.655-0.772c0.252,0,0.391,0.132,0.454,0.252h0.006l0.012-0.22L50.313,15.646L50.313,15.646z M50.039,16.22&#10;&#9;&#9;&#9;&#9;c0-0.045-0.003-0.084-0.015-0.12c-0.048-0.153-0.178-0.28-0.37-0.28c-0.252,0-0.433,0.214-0.433,0.55&#10;&#9;&#9;&#9;&#9;c0,0.286,0.144,0.523,0.43,0.523c0.163,0,0.31-0.102,0.367-0.271c0.015-0.045,0.021-0.096,0.021-0.141V16.22z" id="el_HHbuBBAsKo1"/>
			<path d="M50.7,16.83c0.078,0.051,0.216,0.105,0.349,0.105c0.192,0,0.282-0.096,0.282-0.216&#10;&#9;&#9;&#9;&#9;c0-0.126-0.075-0.195-0.271-0.268c-0.261-0.093-0.385-0.237-0.385-0.412c0-0.234,0.189-0.427,0.502-0.427&#10;&#9;&#9;&#9;&#9;c0.147,0,0.277,0.042,0.358,0.09l-0.066,0.192c-0.057-0.036-0.163-0.084-0.298-0.084c-0.156,0-0.244,0.09-0.244,0.198&#10;&#9;&#9;&#9;&#9;c0,0.121,0.087,0.174,0.277,0.247c0.252,0.096,0.382,0.223,0.382,0.439c0,0.255-0.199,0.436-0.544,0.436&#10;&#9;&#9;&#9;&#9;c-0.159,0-0.307-0.039-0.409-0.1L50.7,16.83z" id="el_jWWmCJeNSd2"/>
			<path d="M53.178,15.646c-0.006,0.105-0.012,0.223-0.012,0.4v0.845c0,0.333-0.066,0.538-0.208,0.665&#10;&#9;&#9;&#9;&#9;c-0.141,0.132-0.346,0.174-0.529,0.174c-0.174,0-0.367-0.042-0.484-0.121l0.066-0.201c0.096,0.06,0.247,0.114,0.427,0.114&#10;&#9;&#9;&#9;&#9;c0.271,0,0.469-0.141,0.469-0.508v-0.162h-0.006c-0.081,0.135-0.237,0.244-0.463,0.244c-0.361,0-0.619-0.307-0.619-0.709&#10;&#9;&#9;&#9;&#9;c0-0.493,0.322-0.772,0.655-0.772c0.252,0,0.391,0.132,0.454,0.252h0.006l0.012-0.22L53.178,15.646L53.178,15.646z M52.904,16.22&#10;&#9;&#9;&#9;&#9;c0-0.045-0.003-0.084-0.015-0.12c-0.048-0.153-0.178-0.28-0.37-0.28c-0.252,0-0.433,0.214-0.433,0.55&#10;&#9;&#9;&#9;&#9;c0,0.286,0.144,0.523,0.43,0.523c0.163,0,0.31-0.102,0.367-0.271c0.015-0.045,0.021-0.096,0.021-0.141V16.22z" id="el_MAV0ao10QEW"/>
			<path d="M53.565,16.83c0.078,0.051,0.216,0.105,0.349,0.105c0.192,0,0.282-0.096,0.282-0.216&#10;&#9;&#9;&#9;&#9;c0-0.126-0.075-0.195-0.271-0.268c-0.261-0.093-0.385-0.237-0.385-0.412c0-0.234,0.189-0.427,0.502-0.427&#10;&#9;&#9;&#9;&#9;c0.147,0,0.277,0.042,0.358,0.09l-0.066,0.192c-0.057-0.036-0.163-0.084-0.298-0.084c-0.156,0-0.244,0.09-0.244,0.198&#10;&#9;&#9;&#9;&#9;c0,0.121,0.087,0.174,0.277,0.247c0.252,0.096,0.382,0.223,0.382,0.439c0,0.255-0.199,0.436-0.544,0.436&#10;&#9;&#9;&#9;&#9;c-0.159,0-0.307-0.039-0.409-0.1L53.565,16.83z" id="el_RmtLjuQE8WY"/>
			<path d="M39.548,21.615c-0.069,0.036-0.222,0.084-0.417,0.084c-0.439,0-0.725-0.298-0.725-0.743&#10;&#9;&#9;&#9;&#9;c0-0.448,0.307-0.772,0.782-0.772c0.156,0,0.294,0.039,0.367,0.075l-0.061,0.204c-0.063-0.036-0.162-0.069-0.306-0.069&#10;&#9;&#9;&#9;&#9;c-0.334,0-0.514,0.247-0.514,0.55c0,0.337,0.216,0.544,0.505,0.544c0.15,0,0.25-0.039,0.325-0.072L39.548,21.615z" id="el_oNTmKbmSj7Y"/>
			<path d="M41.094,19.535v1.758c0,0.129,0.003,0.277,0.012,0.376h-0.237l-0.012-0.252h-0.006&#10;&#9;&#9;&#9;&#9;c-0.081,0.162-0.258,0.286-0.496,0.286c-0.352,0-0.622-0.298-0.622-0.74c-0.003-0.484,0.297-0.781,0.652-0.781&#10;&#9;&#9;&#9;&#9;c0.222,0,0.373,0.105,0.439,0.222h0.006v-0.869H41.094z M40.83,20.806c0-0.033-0.003-0.078-0.012-0.111&#10;&#9;&#9;&#9;&#9;c-0.039-0.168-0.183-0.307-0.382-0.307c-0.273,0-0.436,0.241-0.436,0.563c0,0.294,0.144,0.538,0.43,0.538&#10;&#9;&#9;&#9;&#9;c0.177,0,0.34-0.117,0.388-0.316c0.009-0.036,0.012-0.072,0.012-0.114V20.806z" id="el_vZ4olFNqJQD"/>
			<path d="M41.557,21.669v-1.253h-0.205v-0.202h0.205v-0.069c0-0.205,0.045-0.391,0.168-0.508&#10;&#9;&#9;&#9;&#9;c0.099-0.096,0.231-0.135,0.354-0.135c0.093,0,0.174,0.021,0.226,0.042l-0.036,0.204c-0.039-0.018-0.093-0.033-0.168-0.033&#10;&#9;&#9;&#9;&#9;c-0.226,0-0.283,0.199-0.283,0.421v0.078h0.352v0.202h-0.352v1.253H41.557z" id="el_eobl3lX44ME"/>
			<path d="M43.623,19.535v1.758c0,0.129,0.003,0.277,0.012,0.376h-0.237l-0.012-0.252H43.38&#10;&#9;&#9;&#9;&#9;c-0.081,0.162-0.258,0.286-0.496,0.286c-0.352,0-0.622-0.298-0.622-0.74c-0.003-0.484,0.297-0.781,0.652-0.781&#10;&#9;&#9;&#9;&#9;c0.222,0,0.373,0.105,0.439,0.222h0.006v-0.869H43.623z M43.358,20.806c0-0.033-0.003-0.078-0.012-0.111&#10;&#9;&#9;&#9;&#9;c-0.039-0.168-0.183-0.307-0.381-0.307c-0.274,0-0.436,0.241-0.436,0.563c0,0.294,0.144,0.538,0.43,0.538&#10;&#9;&#9;&#9;&#9;c0.177,0,0.34-0.117,0.388-0.316c0.009-0.036,0.012-0.072,0.012-0.114L43.358,20.806L43.358,20.806z" id="el_eMQzD7o17vh"/>
			<path d="M44.32,20.881h0.006c0.036-0.051,0.087-0.114,0.129-0.166l0.427-0.502h0.319l-0.562,0.598l0.64,0.857&#10;&#9;&#9;&#9;&#9;h-0.322l-0.502-0.697l-0.135,0.15v0.547h-0.262v-2.134h0.262V20.881z" id="el_uJEJISrs0A_"/>
			<path d="M45.43,21.398c0.078,0.051,0.216,0.105,0.349,0.105c0.192,0,0.282-0.096,0.282-0.216&#10;&#9;&#9;&#9;&#9;c0-0.126-0.075-0.195-0.271-0.268c-0.261-0.093-0.385-0.237-0.385-0.412c0-0.234,0.189-0.427,0.502-0.427&#10;&#9;&#9;&#9;&#9;c0.147,0,0.277,0.042,0.358,0.09l-0.066,0.192c-0.057-0.036-0.163-0.084-0.298-0.084c-0.156,0-0.244,0.09-0.244,0.198&#10;&#9;&#9;&#9;&#9;c0,0.121,0.087,0.174,0.277,0.247c0.252,0.096,0.382,0.223,0.382,0.439c0,0.255-0.199,0.436-0.544,0.436&#10;&#9;&#9;&#9;&#9;c-0.159,0-0.307-0.039-0.409-0.1L45.43,21.398z" id="el_hp1-xWnEdTb"/>
			<path d="M47.459,21.669l-0.021-0.184h-0.009c-0.082,0.114-0.238,0.217-0.445,0.217&#10;&#9;&#9;&#9;&#9;c-0.295,0-0.445-0.208-0.445-0.418c0-0.352,0.313-0.544,0.875-0.541v-0.03c0-0.12-0.033-0.336-0.331-0.336&#10;&#9;&#9;&#9;&#9;c-0.135,0-0.277,0.042-0.379,0.108l-0.06-0.174c0.12-0.078,0.294-0.129,0.478-0.129c0.445,0,0.553,0.303,0.553,0.595v0.544&#10;&#9;&#9;&#9;&#9;c0,0.126,0.006,0.25,0.024,0.349L47.459,21.669L47.459,21.669z M47.42,20.926c-0.289-0.006-0.616,0.045-0.616,0.328&#10;&#9;&#9;&#9;&#9;c0,0.171,0.114,0.253,0.25,0.253c0.189,0,0.31-0.121,0.352-0.244c0.009-0.027,0.015-0.057,0.015-0.084L47.42,20.926L47.42,20.926&#10;&#9;&#9;&#9;&#9;z" id="el_iyjHGen_Pl5"/>
			<path d="M39.548,26.184c-0.069,0.036-0.222,0.084-0.417,0.084c-0.439,0-0.725-0.298-0.725-0.743&#10;&#9;&#9;&#9;&#9;c0-0.448,0.307-0.772,0.782-0.772c0.156,0,0.294,0.039,0.367,0.075l-0.061,0.204c-0.063-0.036-0.162-0.069-0.306-0.069&#10;&#9;&#9;&#9;&#9;c-0.334,0-0.514,0.247-0.514,0.55c0,0.337,0.216,0.544,0.505,0.544c0.15,0,0.25-0.039,0.325-0.072L39.548,26.184z" id="el_oKAJxIF9jxf"/>
			<path d="M39.5,26.659c0.12-0.009,0.226-0.042,0.289-0.111c0.072-0.084,0.099-0.198,0.099-0.547v-1.218h0.265v1.32&#10;&#9;&#9;&#9;&#9;c0,0.283-0.045,0.466-0.174,0.598c-0.117,0.117-0.31,0.166-0.451,0.166L39.5,26.659z M40.183,24.374&#10;&#9;&#9;&#9;&#9;c0.003,0.087-0.06,0.163-0.165,0.163c-0.099,0-0.163-0.075-0.163-0.163c0-0.093,0.069-0.165,0.168-0.165&#10;&#9;&#9;&#9;&#9;C40.12,24.209,40.183,24.281,40.183,24.374z" id="el_vNpSYqgM9rr"/>
			<path d="M41.841,24.104v1.758c0,0.129,0.003,0.277,0.012,0.376h-0.237l-0.012-0.252h-0.006&#10;&#9;&#9;&#9;&#9;c-0.081,0.162-0.258,0.286-0.496,0.286c-0.352,0-0.622-0.298-0.622-0.74c-0.003-0.484,0.297-0.781,0.652-0.781&#10;&#9;&#9;&#9;&#9;c0.222,0,0.373,0.105,0.439,0.222h0.006v-0.869H41.841z M41.576,25.375c0-0.033-0.003-0.078-0.012-0.111&#10;&#9;&#9;&#9;&#9;c-0.039-0.168-0.183-0.307-0.381-0.307c-0.274,0-0.436,0.241-0.436,0.563c0,0.294,0.144,0.538,0.43,0.538&#10;&#9;&#9;&#9;&#9;c0.177,0,0.34-0.117,0.388-0.316c0.009-0.036,0.012-0.072,0.012-0.114L41.576,25.375L41.576,25.375z" id="el_EK4THPIon5G"/>
			<path d="M43.533,24.104v1.758c0,0.129,0.003,0.277,0.012,0.376h-0.237l-0.012-0.252H43.29&#10;&#9;&#9;&#9;&#9;c-0.081,0.162-0.258,0.286-0.496,0.286c-0.352,0-0.622-0.298-0.622-0.74c-0.003-0.484,0.297-0.781,0.652-0.781&#10;&#9;&#9;&#9;&#9;c0.222,0,0.373,0.105,0.439,0.222h0.006v-0.869H43.533z M43.269,25.375c0-0.033-0.003-0.078-0.012-0.111&#10;&#9;&#9;&#9;&#9;c-0.039-0.168-0.183-0.307-0.381-0.307c-0.274,0-0.436,0.241-0.436,0.563c0,0.294,0.144,0.538,0.43,0.538&#10;&#9;&#9;&#9;&#9;c0.177,0,0.34-0.117,0.388-0.316c0.009-0.036,0.012-0.072,0.012-0.114L43.269,25.375L43.269,25.375z" id="el_nf2Z8JuvwkY"/>
			<path d="M44.867,26.238v-1.253h-0.61v1.253h-0.261v-1.253h-0.205v-0.202h0.205v-0.048&#10;&#9;&#9;&#9;&#9;c0-0.205,0.048-0.382,0.162-0.496c0.084-0.084,0.205-0.135,0.367-0.135c0.084,0,0.163,0.027,0.208,0.051l-0.054,0.195&#10;&#9;&#9;&#9;&#9;c-0.039-0.018-0.096-0.036-0.156-0.036c-0.208,0-0.265,0.177-0.265,0.406v0.063h0.61v-0.069c0-0.205,0.048-0.391,0.171-0.508&#10;&#9;&#9;&#9;&#9;c0.099-0.096,0.231-0.135,0.352-0.135c0.096,0,0.174,0.021,0.226,0.042l-0.033,0.204c-0.042-0.018-0.093-0.033-0.171-0.033&#10;&#9;&#9;&#9;&#9;c-0.222,0-0.282,0.199-0.282,0.421v0.078h0.352v0.202h-0.349v1.253H44.867z" id="el_qPtzQZmAdpN"/>
			<path d="M46.523,26.238l-0.021-0.184h-0.009c-0.081,0.114-0.238,0.217-0.445,0.217&#10;&#9;&#9;&#9;&#9;c-0.295,0-0.445-0.208-0.445-0.418c0-0.352,0.313-0.544,0.875-0.541v-0.03c0-0.12-0.033-0.336-0.331-0.336&#10;&#9;&#9;&#9;&#9;c-0.135,0-0.277,0.042-0.379,0.108l-0.06-0.174c0.12-0.078,0.294-0.129,0.478-0.129c0.445,0,0.553,0.303,0.553,0.595v0.544&#10;&#9;&#9;&#9;&#9;c0,0.126,0.006,0.25,0.024,0.349h-0.24V26.238z M46.484,25.495c-0.289-0.006-0.616,0.045-0.616,0.328&#10;&#9;&#9;&#9;&#9;c0,0.171,0.114,0.253,0.25,0.253c0.189,0,0.31-0.121,0.352-0.244c0.009-0.027,0.015-0.057,0.015-0.084L46.484,25.495&#10;&#9;&#9;&#9;&#9;L46.484,25.495z" id="el_23l7bncRUwf"/>
		</g>
	</g>
	<g clip-path="url(#SVGID_2_)" id="el_k_DVyENkyGM">
		<rect x="13" y="279.834" enable-background="new    " width="157.334" height="231.666" id="el_cRIXKKfYAXE"/>
	</g>
	<rect x="2.667" y="264.5" clip-path="url(#SVGID_2_)" width="157.333" height="231.666" id="el_WxqILB9SpeK"/>
	<g clip-path="url(#SVGID_2_)" id="el_NZrEDD3HjMT">
		<rect x="2.667" y="264.5" width="157.333" height="31.029" id="el_QzETEo6aYH6"/>
	</g>
	<g clip-path="url(#SVGID_2_)" id="el_fFZyZJ7SmIt">
		<rect x="16.833" y="313.166" width="60.168" height="5" id="el_5B9yWE6a9Fu"/>
		<rect x="16.833" y="323.584" width="60.168" height="5" id="el_fTx8XBU7LgW"/>
		<rect x="16.833" y="334" width="60.168" height="5" id="el_I6dJeTmiqln"/>
		<rect x="16.833" y="344.418" width="60.168" height="5" id="el_rPViuXArWxs"/>
		<rect x="86.751" y="313.166" width="60.165" height="5" id="el_Y8pheiizb8B"/>
		<rect x="86.751" y="323.584" width="60.165" height="5" id="el_G5SuyV-DcdJ"/>
		<rect x="86.751" y="334" width="60.165" height="5" id="el_HiOdTSTmzbv"/>
		<rect x="86.751" y="344.418" width="60.165" height="5" id="el_zcdpRZnNFfT"/>
	</g>
	<g clip-path="url(#SVGID_2_)" id="el_ae7qZhcBYbg">
		<rect x="16.833" y="377.084" width="60.168" height="5" id="el_cKm5GuQljC5"/>
		<rect x="16.833" y="387.5" width="60.168" height="5" id="el_66CV-hiEIAb"/>
		<rect x="16.833" y="397.916" width="60.168" height="5" id="el_eta-wE-7yov"/>
		<rect x="16.833" y="408.334" width="60.168" height="5" id="el_NjEMVsJFL3g"/>
		<rect x="86.751" y="377.084" width="60.165" height="5" id="el_9HSZobJ8ck3"/>
		<rect x="86.751" y="387.5" width="60.165" height="5" id="el_TybpLxoPbWe"/>
		<rect x="86.751" y="397.916" width="60.165" height="5" id="el_WnlLI6s1hna"/>
		<rect x="86.751" y="408.334" width="60.165" height="5" id="el_illPwm-b3qk"/>
	</g>
	<g clip-path="url(#SVGID_2_)" id="el_d5hxk9dbMN8">
		<g id="el_H06ym9v9if-">
			<rect x="16.833" y="441" width="60.168" height="5" id="el_9hlNrac_Nnn"/>
			<rect x="16.833" y="451.416" width="60.168" height="5" id="el_u6JvgyDJ0CO"/>
			<rect x="16.833" y="461.834" width="60.168" height="5" id="el_qJ9K3rEM8-M"/>
			<rect x="16.833" y="472.25" width="60.168" height="5" id="el_WtfAMWrIx9Q"/>
			<rect x="86.751" y="441" width="60.165" height="5" id="el_d1wXFP4RUmT"/>
			<rect x="86.751" y="451.416" width="60.165" height="5" id="el_x5Uy7fZZiBL"/>
			<rect x="86.751" y="461.834" width="60.165" height="5" id="el_pCHpiI-1aWn"/>
			<rect x="86.751" y="472.25" width="60.165" height="5" id="el_JSS3t7mwP8w"/>
		</g>
	</g>
	<g clip-path="url(#SVGID_2_)" id="el_kAwJtXKmubV">
		<rect x="81.417" y="307" stroke-miterlimit="10" width="69.499" height="49" id="el_d7UUsR44Plh"/>
	</g>
	
		<rect x="81.417" y="370.5" clip-path="url(#SVGID_2_)" stroke-miterlimit="10" width="69.499" height="49" id="el_1CQPSyaYuTC"/>
	<g clip-path="url(#SVGID_2_)" id="el_rVMM2EPMz7f">
		<rect x="15.917" y="271.75" width="16.25" height="16.25" id="el_Cmf45E2AkOK"/>
	</g>
	<g clip-path="url(#SVGID_2_)" id="el_sHkWwdb1sH-">
		<g id="el_Rs3fK8-tEmO">
			<path d="M18.581,279.01v2.015h2.328v-2.015h0.628v4.814h-0.628v-2.257h-2.328v2.257H17.96v-4.814H18.581z" id="el_YNOFeVIcLLX"/>
			<path d="M23.236,279.01v4.814h-0.621v-4.814H23.236z" id="el_G-t3DSmLCTU"/>
			<path d="M25.235,279.539h-1.464v-0.527h3.563v0.527h-1.471v4.285h-0.629L25.235,279.539L25.235,279.539z" id="el_Rr4Nyc1NICk"/>
			<path d="M27.742,283.066c0.278,0.171,0.686,0.314,1.114,0.314c0.636,0,1.007-0.336,1.007-0.821&#10;&#9;&#9;&#9;&#9;c0-0.45-0.257-0.707-0.907-0.957c-0.786-0.278-1.271-0.687-1.271-1.364c0-0.75,0.621-1.307,1.557-1.307&#10;&#9;&#9;&#9;&#9;c0.493,0,0.85,0.113,1.064,0.236l-0.171,0.506c-0.157-0.086-0.479-0.229-0.914-0.229c-0.657,0-0.907,0.393-0.907,0.721&#10;&#9;&#9;&#9;&#9;c0,0.451,0.293,0.672,0.957,0.928c0.814,0.314,1.228,0.707,1.228,1.414c0,0.744-0.55,1.386-1.685,1.386&#10;&#9;&#9;&#9;&#9;c-0.464,0-0.971-0.136-1.229-0.308L27.742,283.066z" id="el_Jw86QUjgFs3"/>
		</g>
	</g>
	<g clip-path="url(#SVGID_2_)" id="el_EifnoCn433Q">
		<g id="el_enyLwGB6x5K">
			<path d="M39.548,275.145c-0.069,0.036-0.222,0.084-0.417,0.084c-0.439,0-0.725-0.298-0.725-0.743&#10;&#9;&#9;&#9;&#9;c0-0.448,0.307-0.772,0.782-0.772c0.156,0,0.294,0.039,0.367,0.076l-0.061,0.203c-0.063-0.035-0.162-0.068-0.306-0.068&#10;&#9;&#9;&#9;&#9;c-0.334,0-0.514,0.246-0.514,0.55c0,0.337,0.216,0.544,0.505,0.544c0.15,0,0.25-0.039,0.325-0.072L39.548,275.145z" id="el_Uwtna1VGFnq"/>
			<path d="M41.154,274.459c0,0.539-0.373,0.772-0.725,0.772c-0.394,0-0.697-0.289-0.697-0.749&#10;&#9;&#9;&#9;&#9;c0-0.486,0.318-0.771,0.721-0.771C40.872,273.711,41.154,274.015,41.154,274.459z M40,274.475c0,0.318,0.183,0.559,0.442,0.559&#10;&#9;&#9;&#9;&#9;c0.252,0,0.442-0.236,0.442-0.564c0-0.247-0.124-0.559-0.436-0.559C40.136,273.91,40,274.197,40,274.475z" id="el_GLojrbpqB8H"/>
			<path d="M41.484,273.064h0.265v2.135h-0.265V273.064z" id="el_C93r1T0SWgW"/>
			<path d="M43.449,273.064v1.758c0,0.129,0.003,0.277,0.012,0.377h-0.237l-0.012-0.252h-0.006&#10;&#9;&#9;&#9;&#9;c-0.081,0.161-0.258,0.285-0.496,0.285c-0.352,0-0.622-0.298-0.622-0.74c-0.003-0.484,0.297-0.781,0.652-0.781&#10;&#9;&#9;&#9;&#9;c0.222,0,0.373,0.105,0.439,0.223h0.006v-0.869H43.449z M43.185,274.336c0-0.033-0.003-0.078-0.012-0.111&#10;&#9;&#9;&#9;&#9;c-0.039-0.168-0.183-0.307-0.381-0.307c-0.274,0-0.436,0.24-0.436,0.563c0,0.294,0.144,0.538,0.43,0.538&#10;&#9;&#9;&#9;&#9;c0.177,0,0.34-0.117,0.388-0.315c0.009-0.037,0.012-0.072,0.012-0.115L43.185,274.336L43.185,274.336z" id="el_ZBrXHdbq-g1"/>
			<path d="M45.141,273.064v1.758c0,0.129,0.003,0.277,0.012,0.377h-0.237l-0.012-0.252h-0.006&#10;&#9;&#9;&#9;&#9;c-0.081,0.161-0.258,0.285-0.496,0.285c-0.352,0-0.622-0.298-0.622-0.74c-0.003-0.484,0.297-0.781,0.652-0.781&#10;&#9;&#9;&#9;&#9;c0.222,0,0.373,0.105,0.439,0.223h0.006v-0.869H45.141z M44.876,274.336c0-0.033-0.003-0.078-0.012-0.111&#10;&#9;&#9;&#9;&#9;c-0.039-0.168-0.183-0.307-0.382-0.307c-0.273,0-0.436,0.24-0.436,0.563c0,0.294,0.144,0.538,0.43,0.538&#10;&#9;&#9;&#9;&#9;c0.177,0,0.34-0.117,0.388-0.315c0.009-0.037,0.012-0.072,0.012-0.115V274.336z" id="el_nifkmKF5930"/>
			<path d="M45.541,274.929c0.078,0.051,0.216,0.104,0.349,0.104c0.192,0,0.282-0.096,0.282-0.216&#10;&#9;&#9;&#9;&#9;c0-0.126-0.075-0.194-0.271-0.269c-0.261-0.092-0.385-0.236-0.385-0.411c0-0.234,0.189-0.427,0.502-0.427&#10;&#9;&#9;&#9;&#9;c0.147,0,0.277,0.041,0.358,0.09l-0.066,0.191c-0.057-0.035-0.163-0.084-0.298-0.084c-0.156,0-0.244,0.09-0.244,0.198&#10;&#9;&#9;&#9;&#9;c0,0.121,0.087,0.175,0.277,0.247c0.252,0.096,0.382,0.223,0.382,0.439c0,0.254-0.199,0.436-0.544,0.436&#10;&#9;&#9;&#9;&#9;c-0.159,0-0.307-0.039-0.409-0.1L45.541,274.929z" id="el_adR43uhGUfG"/>
			<path d="M46.729,274.929c0.078,0.051,0.216,0.104,0.349,0.104c0.192,0,0.282-0.096,0.282-0.216&#10;&#9;&#9;&#9;&#9;c0-0.126-0.075-0.194-0.271-0.269c-0.261-0.092-0.385-0.236-0.385-0.411c0-0.234,0.189-0.427,0.502-0.427&#10;&#9;&#9;&#9;&#9;c0.147,0,0.277,0.041,0.358,0.09l-0.066,0.191c-0.057-0.035-0.163-0.084-0.298-0.084c-0.156,0-0.244,0.09-0.244,0.198&#10;&#9;&#9;&#9;&#9;c0,0.121,0.087,0.175,0.277,0.247c0.252,0.096,0.382,0.223,0.382,0.439c0,0.254-0.199,0.436-0.544,0.436&#10;&#9;&#9;&#9;&#9;c-0.159,0-0.307-0.039-0.409-0.1L46.729,274.929z" id="el_sSRNyLrAta3"/>
			<path d="M39.548,279.713c-0.069,0.035-0.222,0.084-0.417,0.084c-0.439,0-0.725-0.299-0.725-0.743&#10;&#9;&#9;&#9;&#9;c0-0.448,0.307-0.772,0.782-0.772c0.156,0,0.294,0.039,0.367,0.075l-0.061,0.204c-0.063-0.036-0.162-0.068-0.306-0.068&#10;&#9;&#9;&#9;&#9;c-0.334,0-0.514,0.246-0.514,0.549c0,0.338,0.216,0.545,0.505,0.545c0.15,0,0.25-0.039,0.325-0.072L39.548,279.713z" id="el_uwA05PZRaTO"/>
			<path d="M40.661,279.768l-0.021-0.184h-0.009c-0.081,0.113-0.238,0.217-0.445,0.217&#10;&#9;&#9;&#9;&#9;c-0.295,0-0.445-0.209-0.445-0.418c0-0.352,0.313-0.545,0.875-0.541v-0.03c0-0.12-0.033-0.336-0.331-0.336&#10;&#9;&#9;&#9;&#9;c-0.135,0-0.277,0.042-0.379,0.108l-0.06-0.174c0.12-0.078,0.294-0.129,0.478-0.129c0.445,0,0.553,0.303,0.553,0.594v0.545&#10;&#9;&#9;&#9;&#9;c0,0.125,0.006,0.25,0.024,0.349L40.661,279.768L40.661,279.768z M40.622,279.024c-0.289-0.006-0.616,0.045-0.616,0.328&#10;&#9;&#9;&#9;&#9;c0,0.171,0.114,0.253,0.25,0.253c0.189,0,0.31-0.121,0.352-0.244c0.009-0.027,0.015-0.057,0.015-0.084L40.622,279.024&#10;&#9;&#9;&#9;&#9;L40.622,279.024z" id="el_zFRnmU1gHeQ"/>
			<path d="M41.301,277.633h0.265v2.134h-0.265V277.633z" id="el_PuVaSOSep5Q"/>
			<path d="M42.009,277.633h0.265v0.908h0.006c0.042-0.076,0.108-0.142,0.189-0.187&#10;&#9;&#9;&#9;&#9;c0.078-0.045,0.171-0.075,0.271-0.075c0.196,0,0.508,0.12,0.508,0.622v0.866h-0.265v-0.835c0-0.235-0.087-0.433-0.336-0.433&#10;&#9;&#9;&#9;&#9;c-0.171,0-0.307,0.119-0.355,0.265c-0.015,0.036-0.018,0.075-0.018,0.126v0.878h-0.265V277.633z" id="el_ExCwjXXLJxq"/>
			<path d="M44.711,279.713c-0.069,0.035-0.222,0.084-0.417,0.084c-0.439,0-0.725-0.299-0.725-0.743&#10;&#9;&#9;&#9;&#9;c0-0.448,0.307-0.772,0.782-0.772c0.156,0,0.294,0.039,0.367,0.075l-0.061,0.204c-0.063-0.036-0.162-0.068-0.306-0.068&#10;&#9;&#9;&#9;&#9;c-0.334,0-0.514,0.246-0.514,0.549c0,0.338,0.216,0.545,0.505,0.545c0.15,0,0.25-0.039,0.325-0.072L44.711,279.713z" id="el_o4f_BmoJLsb"/>
			<path d="M45.018,278.707c0-0.15-0.003-0.273-0.012-0.395h0.234l0.015,0.241h0.006&#10;&#9;&#9;&#9;&#9;c0.072-0.138,0.241-0.272,0.481-0.272c0.202,0,0.514,0.119,0.514,0.618v0.869h-0.265v-0.839c0-0.234-0.087-0.43-0.336-0.43&#10;&#9;&#9;&#9;&#9;c-0.175,0-0.31,0.123-0.355,0.271c-0.012,0.033-0.018,0.078-0.018,0.124v0.875h-0.265L45.018,278.707L45.018,278.707z" id="el_tSGNdKrwT9d"/>
			<path d="M46.647,279.496c0.078,0.051,0.216,0.105,0.349,0.105c0.192,0,0.282-0.096,0.282-0.217&#10;&#9;&#9;&#9;&#9;c0-0.125-0.075-0.194-0.271-0.268c-0.261-0.093-0.385-0.236-0.385-0.412c0-0.233,0.189-0.427,0.502-0.427&#10;&#9;&#9;&#9;&#9;c0.147,0,0.277,0.042,0.358,0.091l-0.066,0.191c-0.057-0.036-0.163-0.084-0.298-0.084c-0.156,0-0.244,0.09-0.244,0.197&#10;&#9;&#9;&#9;&#9;c0,0.121,0.087,0.175,0.277,0.248c0.252,0.096,0.382,0.223,0.382,0.438c0,0.255-0.199,0.437-0.544,0.437&#10;&#9;&#9;&#9;&#9;c-0.159,0-0.307-0.039-0.409-0.1L46.647,279.496z" id="el_52kgw7JLCCK"/>
			<path d="M47.835,279.496c0.078,0.051,0.216,0.105,0.349,0.105c0.192,0,0.282-0.096,0.282-0.217&#10;&#9;&#9;&#9;&#9;c0-0.125-0.075-0.194-0.271-0.268c-0.261-0.093-0.385-0.236-0.385-0.412c0-0.233,0.189-0.427,0.502-0.427&#10;&#9;&#9;&#9;&#9;c0.147,0,0.277,0.042,0.358,0.091l-0.066,0.191c-0.057-0.036-0.163-0.084-0.298-0.084c-0.156,0-0.244,0.09-0.244,0.197&#10;&#9;&#9;&#9;&#9;c0,0.121,0.087,0.175,0.277,0.248c0.252,0.096,0.382,0.223,0.382,0.438c0,0.255-0.199,0.437-0.544,0.437&#10;&#9;&#9;&#9;&#9;c-0.159,0-0.307-0.039-0.409-0.1L47.835,279.496z" id="el_k-0F6-zOl6H"/>
			<path d="M50.313,278.313c-0.006,0.105-0.012,0.223-0.012,0.4v0.845c0,0.333-0.066,0.538-0.208,0.665&#10;&#9;&#9;&#9;&#9;c-0.141,0.132-0.346,0.174-0.529,0.174c-0.174,0-0.367-0.042-0.484-0.121l0.066-0.201c0.096,0.061,0.247,0.114,0.427,0.114&#10;&#9;&#9;&#9;&#9;c0.271,0,0.469-0.142,0.469-0.508v-0.162h-0.006c-0.081,0.135-0.237,0.244-0.463,0.244c-0.361,0-0.619-0.308-0.619-0.709&#10;&#9;&#9;&#9;&#9;c0-0.493,0.322-0.772,0.655-0.772c0.252,0,0.391,0.133,0.454,0.252h0.006l0.012-0.22L50.313,278.313L50.313,278.313z&#10;&#9;&#9;&#9;&#9; M50.039,278.887c0-0.045-0.003-0.084-0.015-0.12c-0.048-0.153-0.178-0.28-0.37-0.28c-0.252,0-0.433,0.215-0.433,0.551&#10;&#9;&#9;&#9;&#9;c0,0.285,0.144,0.522,0.43,0.522c0.163,0,0.31-0.103,0.367-0.271c0.015-0.045,0.021-0.097,0.021-0.142V278.887z" id="el_pZmuGoDdwIa"/>
			<path d="M50.7,279.496c0.078,0.051,0.216,0.105,0.349,0.105c0.192,0,0.282-0.096,0.282-0.217&#10;&#9;&#9;&#9;&#9;c0-0.125-0.075-0.194-0.271-0.268c-0.261-0.093-0.385-0.236-0.385-0.412c0-0.233,0.189-0.427,0.502-0.427&#10;&#9;&#9;&#9;&#9;c0.147,0,0.277,0.042,0.358,0.091l-0.066,0.191c-0.057-0.036-0.163-0.084-0.298-0.084c-0.156,0-0.244,0.09-0.244,0.197&#10;&#9;&#9;&#9;&#9;c0,0.121,0.087,0.175,0.277,0.248c0.252,0.096,0.382,0.223,0.382,0.438c0,0.255-0.199,0.437-0.544,0.437&#10;&#9;&#9;&#9;&#9;c-0.159,0-0.307-0.039-0.409-0.1L50.7,279.496z" id="el_0F1LGkJU4PB"/>
			<path d="M53.178,278.313c-0.006,0.105-0.012,0.223-0.012,0.4v0.845c0,0.333-0.066,0.538-0.208,0.665&#10;&#9;&#9;&#9;&#9;c-0.141,0.132-0.346,0.174-0.529,0.174c-0.174,0-0.367-0.042-0.484-0.121l0.066-0.201c0.096,0.061,0.247,0.114,0.427,0.114&#10;&#9;&#9;&#9;&#9;c0.271,0,0.469-0.142,0.469-0.508v-0.162h-0.006c-0.081,0.135-0.237,0.244-0.463,0.244c-0.361,0-0.619-0.308-0.619-0.709&#10;&#9;&#9;&#9;&#9;c0-0.493,0.322-0.772,0.655-0.772c0.252,0,0.391,0.133,0.454,0.252h0.006l0.012-0.22L53.178,278.313L53.178,278.313z&#10;&#9;&#9;&#9;&#9; M52.904,278.887c0-0.045-0.003-0.084-0.015-0.12c-0.048-0.153-0.178-0.28-0.37-0.28c-0.252,0-0.433,0.215-0.433,0.551&#10;&#9;&#9;&#9;&#9;c0,0.285,0.144,0.522,0.43,0.522c0.163,0,0.31-0.103,0.367-0.271c0.015-0.045,0.021-0.097,0.021-0.142V278.887z" id="el_ynMqQ38w5Bo"/>
			<path d="M53.565,279.496c0.078,0.051,0.216,0.105,0.349,0.105c0.192,0,0.282-0.096,0.282-0.217&#10;&#9;&#9;&#9;&#9;c0-0.125-0.075-0.194-0.271-0.268c-0.261-0.093-0.385-0.236-0.385-0.412c0-0.233,0.189-0.427,0.502-0.427&#10;&#9;&#9;&#9;&#9;c0.147,0,0.277,0.042,0.358,0.091l-0.066,0.191c-0.057-0.036-0.163-0.084-0.298-0.084c-0.156,0-0.244,0.09-0.244,0.197&#10;&#9;&#9;&#9;&#9;c0,0.121,0.087,0.175,0.277,0.248c0.252,0.096,0.382,0.223,0.382,0.438c0,0.255-0.199,0.437-0.544,0.437&#10;&#9;&#9;&#9;&#9;c-0.159,0-0.307-0.039-0.409-0.1L53.565,279.496z" id="el_VY8WoJeJroo"/>
			<path d="M39.548,284.281c-0.069,0.036-0.222,0.084-0.417,0.084c-0.439,0-0.725-0.298-0.725-0.742&#10;&#9;&#9;&#9;&#9;c0-0.449,0.307-0.772,0.782-0.772c0.156,0,0.294,0.039,0.367,0.075l-0.061,0.203c-0.063-0.035-0.162-0.068-0.306-0.068&#10;&#9;&#9;&#9;&#9;c-0.334,0-0.514,0.247-0.514,0.55c0,0.337,0.216,0.544,0.505,0.544c0.15,0,0.25-0.039,0.325-0.072L39.548,284.281z" id="el_YrSs48unMiq"/>
			<path d="M41.094,282.201v1.758c0,0.129,0.003,0.277,0.012,0.377h-0.237l-0.012-0.252h-0.006&#10;&#9;&#9;&#9;&#9;c-0.081,0.162-0.258,0.285-0.496,0.285c-0.352,0-0.622-0.298-0.622-0.74c-0.003-0.483,0.297-0.78,0.652-0.78&#10;&#9;&#9;&#9;&#9;c0.222,0,0.373,0.104,0.439,0.222h0.006v-0.869H41.094z M40.83,283.473c0-0.033-0.003-0.078-0.012-0.111&#10;&#9;&#9;&#9;&#9;c-0.039-0.168-0.183-0.307-0.382-0.307c-0.273,0-0.436,0.24-0.436,0.563c0,0.295,0.144,0.539,0.43,0.539&#10;&#9;&#9;&#9;&#9;c0.177,0,0.34-0.117,0.388-0.316c0.009-0.036,0.012-0.072,0.012-0.114V283.473z" id="el_8tpad5NiqBM"/>
			<path d="M41.557,284.336v-1.254h-0.205v-0.201h0.205v-0.069c0-0.205,0.045-0.392,0.168-0.508&#10;&#9;&#9;&#9;&#9;c0.099-0.097,0.231-0.136,0.354-0.136c0.093,0,0.174,0.021,0.226,0.043l-0.036,0.203c-0.039-0.018-0.093-0.033-0.168-0.033&#10;&#9;&#9;&#9;&#9;c-0.226,0-0.283,0.199-0.283,0.422v0.078h0.352v0.201h-0.352v1.254H41.557z" id="el_mRwG8mIFKwZ"/>
			<path d="M43.623,282.201v1.758c0,0.129,0.003,0.277,0.012,0.377h-0.237l-0.012-0.252H43.38&#10;&#9;&#9;&#9;&#9;c-0.081,0.162-0.258,0.285-0.496,0.285c-0.352,0-0.622-0.298-0.622-0.74c-0.003-0.483,0.297-0.78,0.652-0.78&#10;&#9;&#9;&#9;&#9;c0.222,0,0.373,0.104,0.439,0.222h0.006v-0.869H43.623z M43.358,283.473c0-0.033-0.003-0.078-0.012-0.111&#10;&#9;&#9;&#9;&#9;c-0.039-0.168-0.183-0.307-0.381-0.307c-0.274,0-0.436,0.24-0.436,0.563c0,0.295,0.144,0.539,0.43,0.539&#10;&#9;&#9;&#9;&#9;c0.177,0,0.34-0.117,0.388-0.316c0.009-0.036,0.012-0.072,0.012-0.114L43.358,283.473L43.358,283.473z" id="el_1S_r2WK6lYW"/>
			<path d="M44.32,283.547h0.006c0.036-0.051,0.087-0.113,0.129-0.166l0.427-0.502h0.319l-0.562,0.599l0.64,0.856&#10;&#9;&#9;&#9;&#9;h-0.322l-0.502-0.696l-0.135,0.149v0.547h-0.262v-2.133h0.262V283.547z" id="el_6u_AjysxQEk"/>
			<path d="M45.43,284.064c0.078,0.051,0.216,0.105,0.349,0.105c0.192,0,0.282-0.096,0.282-0.217&#10;&#9;&#9;&#9;&#9;c0-0.125-0.075-0.195-0.271-0.268c-0.261-0.094-0.385-0.236-0.385-0.412c0-0.234,0.189-0.427,0.502-0.427&#10;&#9;&#9;&#9;&#9;c0.147,0,0.277,0.042,0.358,0.09l-0.066,0.192c-0.057-0.037-0.163-0.084-0.298-0.084c-0.156,0-0.244,0.09-0.244,0.197&#10;&#9;&#9;&#9;&#9;c0,0.121,0.087,0.174,0.277,0.248c0.252,0.096,0.382,0.223,0.382,0.438c0,0.255-0.199,0.437-0.544,0.437&#10;&#9;&#9;&#9;&#9;c-0.159,0-0.307-0.039-0.409-0.101L45.43,284.064z" id="el_sJRk9KhnVap"/>
			<path d="M47.459,284.336l-0.021-0.185h-0.009c-0.082,0.114-0.238,0.218-0.445,0.218&#10;&#9;&#9;&#9;&#9;c-0.295,0-0.445-0.209-0.445-0.418c0-0.353,0.313-0.545,0.875-0.541v-0.031c0-0.119-0.033-0.336-0.331-0.336&#10;&#9;&#9;&#9;&#9;c-0.135,0-0.277,0.043-0.379,0.108l-0.06-0.174c0.12-0.078,0.294-0.129,0.478-0.129c0.445,0,0.553,0.303,0.553,0.595v0.544&#10;&#9;&#9;&#9;&#9;c0,0.126,0.006,0.25,0.024,0.349H47.459L47.459,284.336z M47.42,283.592c-0.289-0.006-0.616,0.046-0.616,0.328&#10;&#9;&#9;&#9;&#9;c0,0.172,0.114,0.254,0.25,0.254c0.189,0,0.31-0.121,0.352-0.244c0.009-0.027,0.015-0.057,0.015-0.084L47.42,283.592&#10;&#9;&#9;&#9;&#9;L47.42,283.592z" id="el_TR0u54oyH6w"/>
			<path d="M39.548,288.851c-0.069,0.036-0.222,0.084-0.417,0.084c-0.439,0-0.725-0.298-0.725-0.743&#10;&#9;&#9;&#9;&#9;c0-0.447,0.307-0.771,0.782-0.771c0.156,0,0.294,0.039,0.367,0.074l-0.061,0.205c-0.063-0.037-0.162-0.07-0.306-0.07&#10;&#9;&#9;&#9;&#9;c-0.334,0-0.514,0.248-0.514,0.551c0,0.337,0.216,0.544,0.505,0.544c0.15,0,0.25-0.039,0.325-0.072L39.548,288.851z" id="el_YKa7RXbQUeo"/>
			<path d="M39.5,289.326c0.12-0.01,0.226-0.043,0.289-0.111c0.072-0.084,0.099-0.198,0.099-0.547v-1.219h0.265v1.32&#10;&#9;&#9;&#9;&#9;c0,0.283-0.045,0.466-0.174,0.598c-0.117,0.117-0.31,0.166-0.451,0.166L39.5,289.326z M40.183,287.041&#10;&#9;&#9;&#9;&#9;c0.003,0.086-0.06,0.162-0.165,0.162c-0.099,0-0.163-0.074-0.163-0.162c0-0.094,0.069-0.166,0.168-0.166&#10;&#9;&#9;&#9;&#9;C40.12,286.875,40.183,286.947,40.183,287.041z" id="el_9t5IohSZzNU"/>
			<path d="M41.841,286.771v1.758c0,0.13,0.003,0.277,0.012,0.376h-0.237l-0.012-0.252h-0.006&#10;&#9;&#9;&#9;&#9;c-0.081,0.162-0.258,0.286-0.496,0.286c-0.352,0-0.622-0.298-0.622-0.739c-0.003-0.484,0.297-0.781,0.652-0.781&#10;&#9;&#9;&#9;&#9;c0.222,0,0.373,0.104,0.439,0.222h0.006v-0.869H41.841z M41.576,288.041c0-0.033-0.003-0.078-0.012-0.11&#10;&#9;&#9;&#9;&#9;c-0.039-0.168-0.183-0.308-0.381-0.308c-0.274,0-0.436,0.242-0.436,0.563c0,0.294,0.144,0.538,0.43,0.538&#10;&#9;&#9;&#9;&#9;c0.177,0,0.34-0.117,0.388-0.316c0.009-0.035,0.012-0.072,0.012-0.113L41.576,288.041L41.576,288.041z" id="el_KEgyqq0StlT"/>
			<path d="M43.533,286.771v1.758c0,0.13,0.003,0.277,0.012,0.376h-0.237l-0.012-0.252H43.29&#10;&#9;&#9;&#9;&#9;c-0.081,0.162-0.258,0.286-0.496,0.286c-0.352,0-0.622-0.298-0.622-0.739c-0.003-0.484,0.297-0.781,0.652-0.781&#10;&#9;&#9;&#9;&#9;c0.222,0,0.373,0.104,0.439,0.222h0.006v-0.869H43.533z M43.269,288.041c0-0.033-0.003-0.078-0.012-0.11&#10;&#9;&#9;&#9;&#9;c-0.039-0.168-0.183-0.308-0.381-0.308c-0.274,0-0.436,0.242-0.436,0.563c0,0.294,0.144,0.538,0.43,0.538&#10;&#9;&#9;&#9;&#9;c0.177,0,0.34-0.117,0.388-0.316c0.009-0.035,0.012-0.072,0.012-0.113L43.269,288.041L43.269,288.041z" id="el_908IxJIT4YE"/>
			<path d="M44.867,288.904v-1.253h-0.61v1.253h-0.261v-1.253h-0.205v-0.202h0.205v-0.048&#10;&#9;&#9;&#9;&#9;c0-0.204,0.048-0.382,0.162-0.495c0.084-0.084,0.205-0.136,0.367-0.136c0.084,0,0.163,0.026,0.208,0.052l-0.054,0.194&#10;&#9;&#9;&#9;&#9;c-0.039-0.019-0.096-0.036-0.156-0.036c-0.208,0-0.265,0.178-0.265,0.406v0.063h0.61v-0.068c0-0.205,0.048-0.391,0.171-0.508&#10;&#9;&#9;&#9;&#9;c0.099-0.097,0.231-0.136,0.352-0.136c0.096,0,0.174,0.021,0.226,0.042l-0.033,0.204c-0.042-0.019-0.093-0.032-0.171-0.032&#10;&#9;&#9;&#9;&#9;c-0.222,0-0.282,0.198-0.282,0.42v0.078h0.352v0.202h-0.349v1.253H44.867z" id="el_xftlwlDlvld"/>
			<path d="M46.523,288.904l-0.021-0.184h-0.009c-0.081,0.113-0.238,0.217-0.445,0.217&#10;&#9;&#9;&#9;&#9;c-0.295,0-0.445-0.208-0.445-0.418c0-0.352,0.313-0.544,0.875-0.541v-0.029c0-0.121-0.033-0.337-0.331-0.337&#10;&#9;&#9;&#9;&#9;c-0.135,0-0.277,0.042-0.379,0.108l-0.06-0.174c0.12-0.078,0.294-0.129,0.478-0.129c0.445,0,0.553,0.303,0.553,0.595v0.544&#10;&#9;&#9;&#9;&#9;c0,0.126,0.006,0.25,0.024,0.35h-0.24V288.904z M46.484,288.162c-0.289-0.006-0.616,0.045-0.616,0.328&#10;&#9;&#9;&#9;&#9;c0,0.17,0.114,0.252,0.25,0.252c0.189,0,0.31-0.121,0.352-0.244c0.009-0.026,0.015-0.057,0.015-0.084L46.484,288.162&#10;&#9;&#9;&#9;&#9;L46.484,288.162z" id="el_Q-D43KqAxJW"/>
		</g>
	</g>
</g></g>
</svg>