<svg version="1.1" id="el_hXiJmMrhJ" xmlns="http://www.w3.org/2000/svg" xmlns:xlink="http://www.w3.org/1999/xlink" x="0px" y="0px" viewBox="0 0 240 530" enable-background="new 0 0 240 530" xml:space="preserve"><style>@-webkit-keyframes kf_el_M9T6RLlwRg_an_jxOIa_SiW{33.33%{-webkit-transform: translate(115.01207733154297px, 180.66799545288086px) scale(0, 0) translate(-115.01207733154297px, -180.66799545288086px);transform: translate(115.01207733154297px, 180.66799545288086px) scale(0, 0) translate(-115.01207733154297px, -180.66799545288086px);}69.44%{-webkit-transform: translate(115.01207733154297px, 180.66799545288086px) scale(1, 1) translate(-115.01207733154297px, -180.66799545288086px);transform: translate(115.01207733154297px, 180.66799545288086px) scale(1, 1) translate(-115.01207733154297px, -180.66799545288086px);}100%{-webkit-transform: translate(115.01207733154297px, 180.66799545288086px) scale(1, 1) translate(-115.01207733154297px, -180.66799545288086px);transform: translate(115.01207733154297px, 180.66799545288086px) scale(1, 1) translate(-115.01207733154297px, -180.66799545288086px);}0%{-webkit-transform: translate(115.01207733154297px, 180.66799545288086px) scale(0, 0) translate(-115.01207733154297px, -180.66799545288086px);transform: translate(115.01207733154297px, 180.66799545288086px) scale(0, 0) translate(-115.01207733154297px, -180.66799545288086px);}}@keyframes kf_el_M9T6RLlwRg_an_jxOIa_SiW{33.33%{-webkit-transform: translate(115.01207733154297px, 180.66799545288086px) scale(0, 0) translate(-115.01207733154297px, -180.66799545288086px);transform: translate(115.01207733154297px, 180.66799545288086px) scale(0, 0) translate(-115.01207733154297px, -180.66799545288086px);}69.44%{-webkit-transform: translate(115.01207733154297px, 180.66799545288086px) scale(1, 1) translate(-115.01207733154297px, -180.66799545288086px);transform: translate(115.01207733154297px, 180.66799545288086px) scale(1, 1) translate(-115.01207733154297px, -180.66799545288086px);}100%{-webkit-transform: translate(115.01207733154297px, 180.66799545288086px) scale(1, 1) translate(-115.01207733154297px, -180.66799545288086px);transform: translate(115.01207733154297px, 180.66799545288086px) scale(1, 1) translate(-115.01207733154297px, -180.66799545288086px);}0%{-webkit-transform: translate(115.01207733154297px, 180.66799545288086px) scale(0, 0) translate(-115.01207733154297px, -180.66799545288086px);transform: translate(115.01207733154297px, 180.66799545288086px) scale(0, 0) translate(-115.01207733154297px, -180.66799545288086px);}}@-webkit-keyframes kf_el_M9T6RLlwRg_an_lQQxjJ8J7{0%{opacity: 0;}33.33%{opacity: 0;}69.44%{opacity: 1;}92.22%{opacity: 1;}93.33%{opacity: 0;}100%{opacity: 0;}}@keyframes kf_el_M9T6RLlwRg_an_lQQxjJ8J7{0%{opacity: 0;}33.33%{opacity: 0;}69.44%{opacity: 1;}92.22%{opacity: 1;}93.33%{opacity: 0;}100%{opacity: 0;}}@-webkit-keyframes kf_el_ak776_AVil_an_1bDRwJSlh{0%{opacity: 0;}32.78%{opacity: 0;}33.33%{opacity: 1;}100%{opacity: 1;}}@keyframes kf_el_ak776_AVil_an_1bDRwJSlh{0%{opacity: 0;}32.78%{opacity: 0;}33.33%{opacity: 1;}100%{opacity: 1;}}@-webkit-keyframes kf_el_LI0MMoknbO_an_x3JPT-fOe{0%{opacity: 1;}100%{opacity: 1;}}@keyframes kf_el_LI0MMoknbO_an_x3JPT-fOe{0%{opacity: 1;}100%{opacity: 1;}}@-webkit-keyframes kf_el_LI0MMoknbO_an_Hpt6vr_X2{0%{-webkit-transform: translate(120.23299407958984px, 351.4969787597656px) translate(-120.23299407958984px, -351.4969787597656px) translate(0px, 100px);transform: translate(120.23299407958984px, 351.4969787597656px) translate(-120.23299407958984px, -351.4969787597656px) translate(0px, 100px);}33.33%{-webkit-transform: translate(120.23299407958984px, 351.4969787597656px) translate(-120.23299407958984px, -351.4969787597656px) translate(0px, 0px);transform: translate(120.23299407958984px, 351.4969787597656px) translate(-120.23299407958984px, -351.4969787597656px) translate(0px, 0px);}100%{-webkit-transform: translate(120.23299407958984px, 351.4969787597656px) translate(-120.23299407958984px, -351.4969787597656px) translate(0px, 0px);transform: translate(120.23299407958984px, 351.4969787597656px) translate(-120.23299407958984px, -351.4969787597656px) translate(0px, 0px);}}@keyframes kf_el_LI0MMoknbO_an_Hpt6vr_X2{0%{-webkit-transform: translate(120.23299407958984px, 351.4969787597656px) translate(-120.23299407958984px, -351.4969787597656px) translate(0px, 100px);transform: translate(120.23299407958984px, 351.4969787597656px) translate(-120.23299407958984px, -351.4969787597656px) translate(0px, 100px);}33.33%{-webkit-transform: translate(120.23299407958984px, 351.4969787597656px) translate(-120.23299407958984px, -351.4969787597656px) translate(0px, 0px);transform: translate(120.23299407958984px, 351.4969787597656px) translate(-120.23299407958984px, -351.4969787597656px) translate(0px, 0px);}100%{-webkit-transform: translate(120.23299407958984px, 351.4969787597656px) translate(-120.23299407958984px, -351.4969787597656px) translate(0px, 0px);transform: translate(120.23299407958984px, 351.4969787597656px) translate(-120.23299407958984px, -351.4969787597656px) translate(0px, 0px);}}@-webkit-keyframes kf_el_DS2gfIUQR0_an_LL1yzGoXe{0%{opacity: 1;}100%{opacity: 1;}}@keyframes kf_el_DS2gfIUQR0_an_LL1yzGoXe{0%{opacity: 1;}100%{opacity: 1;}}@-webkit-keyframes kf_el_G-ScsX1u65_an_DCrfneED1{0%{opacity: 0;}29.44%{opacity: 0;}33.33%{opacity: 1;}100%{opacity: 1;}}@keyframes kf_el_G-ScsX1u65_an_DCrfneED1{0%{opacity: 0;}29.44%{opacity: 0;}33.33%{opacity: 1;}100%{opacity: 1;}}@-webkit-keyframes kf_el_G-ScsX1u65_an_mGDzgJI5L{0%{-webkit-transform: translate(120.0145034790039px, 269.1256103515625px) scale(0.8, 0.8) translate(-120.0145034790039px, -269.1256103515625px);transform: translate(120.0145034790039px, 269.1256103515625px) scale(0.8, 0.8) translate(-120.0145034790039px, -269.1256103515625px);}7.22%{-webkit-transform: translate(120.0145034790039px, 269.1256103515625px) scale(0.5, 0.5) translate(-120.0145034790039px, -269.1256103515625px);transform: translate(120.0145034790039px, 269.1256103515625px) scale(0.5, 0.5) translate(-120.0145034790039px, -269.1256103515625px);}33.33%{-webkit-transform: translate(120.0145034790039px, 269.1256103515625px) scale(1, 1) translate(-120.0145034790039px, -269.1256103515625px);transform: translate(120.0145034790039px, 269.1256103515625px) scale(1, 1) translate(-120.0145034790039px, -269.1256103515625px);}100%{-webkit-transform: translate(120.0145034790039px, 269.1256103515625px) scale(1, 1) translate(-120.0145034790039px, -269.1256103515625px);transform: translate(120.0145034790039px, 269.1256103515625px) scale(1, 1) translate(-120.0145034790039px, -269.1256103515625px);}}@keyframes kf_el_G-ScsX1u65_an_mGDzgJI5L{0%{-webkit-transform: translate(120.0145034790039px, 269.1256103515625px) scale(0.8, 0.8) translate(-120.0145034790039px, -269.1256103515625px);transform: translate(120.0145034790039px, 269.1256103515625px) scale(0.8, 0.8) translate(-120.0145034790039px, -269.1256103515625px);}7.22%{-webkit-transform: translate(120.0145034790039px, 269.1256103515625px) scale(0.5, 0.5) translate(-120.0145034790039px, -269.1256103515625px);transform: translate(120.0145034790039px, 269.1256103515625px) scale(0.5, 0.5) translate(-120.0145034790039px, -269.1256103515625px);}33.33%{-webkit-transform: translate(120.0145034790039px, 269.1256103515625px) scale(1, 1) translate(-120.0145034790039px, -269.1256103515625px);transform: translate(120.0145034790039px, 269.1256103515625px) scale(1, 1) translate(-120.0145034790039px, -269.1256103515625px);}100%{-webkit-transform: translate(120.0145034790039px, 269.1256103515625px) scale(1, 1) translate(-120.0145034790039px, -269.1256103515625px);transform: translate(120.0145034790039px, 269.1256103515625px) scale(1, 1) translate(-120.0145034790039px, -269.1256103515625px);}}@-webkit-keyframes kf_el_G-ScsX1u65_an_HBpMt7N1n{0%{-webkit-transform: translate(120.0145034790039px, 269.1256103515625px) translate(-120.0145034790039px, -269.1256103515625px) translate(0px, 0px);transform: translate(120.0145034790039px, 269.1256103515625px) translate(-120.0145034790039px, -269.1256103515625px) translate(0px, 0px);}33.33%{-webkit-transform: translate(120.0145034790039px, 269.1256103515625px) translate(-120.0145034790039px, -269.1256103515625px) translate(0px, 1px);transform: translate(120.0145034790039px, 269.1256103515625px) translate(-120.0145034790039px, -269.1256103515625px) translate(0px, 1px);}100%{-webkit-transform: translate(120.0145034790039px, 269.1256103515625px) translate(-120.0145034790039px, -269.1256103515625px) translate(0px, 1px);transform: translate(120.0145034790039px, 269.1256103515625px) translate(-120.0145034790039px, -269.1256103515625px) translate(0px, 1px);}}@keyframes kf_el_G-ScsX1u65_an_HBpMt7N1n{0%{-webkit-transform: translate(120.0145034790039px, 269.1256103515625px) translate(-120.0145034790039px, -269.1256103515625px) translate(0px, 0px);transform: translate(120.0145034790039px, 269.1256103515625px) translate(-120.0145034790039px, -269.1256103515625px) translate(0px, 0px);}33.33%{-webkit-transform: translate(120.0145034790039px, 269.1256103515625px) translate(-120.0145034790039px, -269.1256103515625px) translate(0px, 1px);transform: translate(120.0145034790039px, 269.1256103515625px) translate(-120.0145034790039px, -269.1256103515625px) translate(0px, 1px);}100%{-webkit-transform: translate(120.0145034790039px, 269.1256103515625px) translate(-120.0145034790039px, -269.1256103515625px) translate(0px, 1px);transform: translate(120.0145034790039px, 269.1256103515625px) translate(-120.0145034790039px, -269.1256103515625px) translate(0px, 1px);}}@-webkit-keyframes kf_el_LOBbkMHQA5_an_miFBE-2kD{0%{opacity: 1;}33.33%{opacity: 1;}33.89%{opacity: 0;}100%{opacity: 0;}}@keyframes kf_el_LOBbkMHQA5_an_miFBE-2kD{0%{opacity: 1;}33.33%{opacity: 1;}33.89%{opacity: 0;}100%{opacity: 0;}}@-webkit-keyframes kf_el_LOBbkMHQA5_an_Y1RpE6OEY{0%{-webkit-transform: translate(120.4861831665039px, 125.07330286502838px) scale(1, 1) translate(-120.4861831665039px, -125.07330286502838px);transform: translate(120.4861831665039px, 125.07330286502838px) scale(1, 1) translate(-120.4861831665039px, -125.07330286502838px);}33.33%{-webkit-transform: translate(120.4861831665039px, 125.07330286502838px) scale(0.35, 0.35) translate(-120.4861831665039px, -125.07330286502838px);transform: translate(120.4861831665039px, 125.07330286502838px) scale(0.35, 0.35) translate(-120.4861831665039px, -125.07330286502838px);}100%{-webkit-transform: translate(120.4861831665039px, 125.07330286502838px) scale(0.35, 0.35) translate(-120.4861831665039px, -125.07330286502838px);transform: translate(120.4861831665039px, 125.07330286502838px) scale(0.35, 0.35) translate(-120.4861831665039px, -125.07330286502838px);}}@keyframes kf_el_LOBbkMHQA5_an_Y1RpE6OEY{0%{-webkit-transform: translate(120.4861831665039px, 125.07330286502838px) scale(1, 1) translate(-120.4861831665039px, -125.07330286502838px);transform: translate(120.4861831665039px, 125.07330286502838px) scale(1, 1) translate(-120.4861831665039px, -125.07330286502838px);}33.33%{-webkit-transform: translate(120.4861831665039px, 125.07330286502838px) scale(0.35, 0.35) translate(-120.4861831665039px, -125.07330286502838px);transform: translate(120.4861831665039px, 125.07330286502838px) scale(0.35, 0.35) translate(-120.4861831665039px, -125.07330286502838px);}100%{-webkit-transform: translate(120.4861831665039px, 125.07330286502838px) scale(0.35, 0.35) translate(-120.4861831665039px, -125.07330286502838px);transform: translate(120.4861831665039px, 125.07330286502838px) scale(0.35, 0.35) translate(-120.4861831665039px, -125.07330286502838px);}}@-webkit-keyframes kf_el_LOBbkMHQA5_an_peufLVJZD{0%{-webkit-transform: translate(120.4861831665039px, 125.07330286502838px) translate(-120.4861831665039px, -125.07330286502838px) translate(0px, 0px);transform: translate(120.4861831665039px, 125.07330286502838px) translate(-120.4861831665039px, -125.07330286502838px) translate(0px, 0px);}33.33%{-webkit-transform: translate(120.4861831665039px, 125.07330286502838px) translate(-120.4861831665039px, -125.07330286502838px) translate(0px, 90px);transform: translate(120.4861831665039px, 125.07330286502838px) translate(-120.4861831665039px, -125.07330286502838px) translate(0px, 90px);}100%{-webkit-transform: translate(120.4861831665039px, 125.07330286502838px) translate(-120.4861831665039px, -125.07330286502838px) translate(0px, 90px);transform: translate(120.4861831665039px, 125.07330286502838px) translate(-120.4861831665039px, -125.07330286502838px) translate(0px, 90px);}}@keyframes kf_el_LOBbkMHQA5_an_peufLVJZD{0%{-webkit-transform: translate(120.4861831665039px, 125.07330286502838px) translate(-120.4861831665039px, -125.07330286502838px) translate(0px, 0px);transform: translate(120.4861831665039px, 125.07330286502838px) translate(-120.4861831665039px, -125.07330286502838px) translate(0px, 0px);}33.33%{-webkit-transform: translate(120.4861831665039px, 125.07330286502838px) translate(-120.4861831665039px, -125.07330286502838px) translate(0px, 90px);transform: translate(120.4861831665039px, 125.07330286502838px) translate(-120.4861831665039px, -125.07330286502838px) translate(0px, 90px);}100%{-webkit-transform: translate(120.4861831665039px, 125.07330286502838px) translate(-120.4861831665039px, -125.07330286502838px) translate(0px, 90px);transform: translate(120.4861831665039px, 125.07330286502838px) translate(-120.4861831665039px, -125.07330286502838px) translate(0px, 90px);}}#el_hXiJmMrhJ *{-webkit-animation-duration: 6s;animation-duration: 6s;-webkit-animation-iteration-count: infinite;animation-iteration-count: infinite;-webkit-animation-timing-function: cubic-bezier(0, 0, 1, 1);animation-timing-function: cubic-bezier(0, 0, 1, 1);}#el_TyKdOTF3kW{fill: url(#Path_6_5_);}#el_KlxEIQQ3cC{fill: url(#Path_6_6_);visibility: hidden;}#el_LOBbkMHQA5{fill: url(#SVGID_1_);-webkit-animation-fill-mode: backwards;animation-fill-mode: backwards;opacity: 1;-webkit-animation-name: kf_el_LOBbkMHQA5_an_miFBE-2kD;animation-name: kf_el_LOBbkMHQA5_an_miFBE-2kD;-webkit-animation-timing-function: cubic-bezier(0, 0, 1, 1);animation-timing-function: cubic-bezier(0, 0, 1, 1);}#el_G-ScsX1u65{fill: url(#SVGID_2_);-webkit-animation-fill-mode: backwards;animation-fill-mode: backwards;opacity: 0;-webkit-animation-name: kf_el_G-ScsX1u65_an_DCrfneED1;animation-name: kf_el_G-ScsX1u65_an_DCrfneED1;-webkit-animation-timing-function: cubic-bezier(0, 0, 1, 1);animation-timing-function: cubic-bezier(0, 0, 1, 1);}#el_DS2gfIUQR0{fill: url(#SVGID_3_);-webkit-animation-fill-mode: backwards;animation-fill-mode: backwards;opacity: 1;-webkit-animation-name: kf_el_DS2gfIUQR0_an_LL1yzGoXe;animation-name: kf_el_DS2gfIUQR0_an_LL1yzGoXe;-webkit-animation-timing-function: cubic-bezier(0, 0, 1, 1);animation-timing-function: cubic-bezier(0, 0, 1, 1);}#el_LI0MMoknbO{fill: url(#SVGID_4_);-webkit-animation-fill-mode: backwards;animation-fill-mode: backwards;opacity: 1;-webkit-animation-name: kf_el_LI0MMoknbO_an_x3JPT-fOe;animation-name: kf_el_LI0MMoknbO_an_x3JPT-fOe;-webkit-animation-timing-function: cubic-bezier(0, 0, 1, 1);animation-timing-function: cubic-bezier(0, 0, 1, 1);}#el_ak776_AVil{fill: url(#SVGID_5_);-webkit-animation-fill-mode: backwards;animation-fill-mode: backwards;opacity: 0;-webkit-animation-name: kf_el_ak776_AVil_an_1bDRwJSlh;animation-name: kf_el_ak776_AVil_an_1bDRwJSlh;-webkit-animation-timing-function: cubic-bezier(0, 0, 1, 1);animation-timing-function: cubic-bezier(0, 0, 1, 1);}#el_32URV83Rjp{fill: #FFFFFF;stroke: #231F20;stroke-width: 0.0667;}#el_g3fD21OONY{fill: #020202;}#el_3my7qtOEIy{fill: #F3C67B;}#el_pI6sbMbUAo{fill: #1E2958;}#el_YBsULpt5VOV{fill: #1E4383;}#el_kJ53Htotkvi{fill: #F3C67B;}#el_0vgpfKfUXxm{fill: #1E4383;}#el_swyRmiQPZxW{fill: #020202;}#el_-tQy4bJRKJr{fill: #1E2958;}#el_qkIzzdmx2mk{fill: #1E2958;}#el_-875RMSnoFd{fill: #233E7A;}#el_6dhmF3EGpAk{fill: #FFFFFF;stroke: #231F20;stroke-width: 0.0667;}#el_R5rNEOr-ntk{fill: #7A9FD3;}#el_EJC65z7p_iX{fill: #FFFFFF;stroke: #231F20;stroke-width: 0.0667;}#el_qUrBC7524z9{fill: #FFFFFF;stroke: #231F20;stroke-width: 0.0667;}#el_2bn5MpsF2mf{fill: #F3C67B;}#el_FqgQn-3RyZ1{fill: #F3C67B;}#el_6aP-zmAJqR0{fill: #0E0F0F;}#el_a2U1aHwca1u{fill: #F3C67B;}#el_HgGf7Td9ljr{fill: none;stroke: #020202;stroke-width: 0.0667;}#el_i3PPCd0Ho82{fill: #1E2958;}#el_XzcSLctd4Ec{fill: none;stroke: #020202;stroke-width: 0.0667;}#el_9QoYy8bbggS{fill: none;stroke: #020202;stroke-width: 0.0667;}#el_kp7FNgSrLCJ{fill: none;stroke: #020202;stroke-width: 0.0667;}#el_rvWieIP7U7Y{fill: none;stroke: #020202;stroke-width: 0.0667;}#el_v48i4AfByFr{fill: none;stroke: #020202;stroke-width: 0.0667;}#el_kLs9IqKNvgO{fill: none;stroke: #020202;stroke-width: 0.0667;}#el_9tgIxRi9C5I{fill: none;stroke: #020202;stroke-width: 0.0667;}#el_EnlUIyetL2Z{fill: #1E2958;}#el_aJ8Jr3hrZwL{fill: #7A9FD3;}#el_0LoBw5XEhGb{fill: #7A9FD3;}#el_LG3vl24dxx0{fill: #1E2958;}#el_krFmYLFcz-8{fill: #7A9FD3;}#el_uZdh3nV-UMF{fill: #1E2958;}#el_2ZbZw6A15R-{fill: #7A9FD3;}#el_jUKycQm9F0O{fill: #1E2958;}#el_rL9-S4oTKML{fill: #00AEC0;}#el_Nj3kl-NReL-{fill: #00AEC0;}#el_4YDEPDe7hsy{fill: #00AEC0;}#el_W27TphOZkit{fill: #82A5D5;}#el_WwVl_us0L7j{fill: #F0F4FB;}#el_XL_IeY_2q06{fill: #0B0C0C;}#el__XMjxLWQDYc{fill: none;stroke: #020202;stroke-width: 0.0667;}#el_PW8z4rGAxiH{fill: none;}#el_4Ymcl72Et6c{fill: #F3C67B;}#el_XRAdZ1IpZQY{fill: none;stroke: #020202;stroke-width: 0.0667;}#el_TD6WcYvINMJ{fill: none;stroke: #020202;stroke-width: 0.0667;}#el_gVnphKT6uPe{fill: #020202;}#el_Mnqnl52gArh{fill: #FFFFFF;stroke: #231F20;stroke-width: 0.0667;}#el_TJLmlSjSMCf{fill: none;stroke: #020202;stroke-width: 0.0667;}#el_FMtU_S4-GM9{fill: #1E2958;}#el_HUAM5Rd6YBn{fill: #F3C67B;}#el_p5FZafI6N8B{fill: #020202;}#el_IqH16m0blri{fill: #020202;}#el_NpK3BucFicu{fill: #7A9FD3;}#el__7iIm9urBpv{fill: #FFFFFF;}#el_U1dX94avmBl{fill: #FFFFFF;}#el_X4TFNWDYOoL{fill: #231F20;}#el_cVL17dgCU0D{fill: #FFFFFF;}#el_J4U2imGf_Wg{fill: #FFFFFF;}#el_MVRyXdYh0-m{fill: #231F20;}#el_D3KwlMbHXzS{fill: #231F20;}#el_oKn_z5oxb_4{fill: #FFFFFF;}#el_U5ykWlWavWM{fill: #FFFFFF;}#el_9zxWzNULM8G{fill: #231F20;}#el_TyKdOTF3kW_an_yiytjiBmq{-webkit-transform: translate(120.03499221801758px, 266.61219596862793px) rotate(360deg) translate(-120.03499221801758px, -266.61219596862793px);transform: translate(120.03499221801758px, 266.61219596862793px) rotate(360deg) translate(-120.03499221801758px, -266.61219596862793px);}#el_LOBbkMHQA5_an_peufLVJZD{-webkit-animation-fill-mode: backwards;animation-fill-mode: backwards;-webkit-transform: translate(120.4861831665039px, 125.07330286502838px) translate(-120.4861831665039px, -125.07330286502838px) translate(0px, 0px);transform: translate(120.4861831665039px, 125.07330286502838px) translate(-120.4861831665039px, -125.07330286502838px) translate(0px, 0px);-webkit-animation-name: kf_el_LOBbkMHQA5_an_peufLVJZD;animation-name: kf_el_LOBbkMHQA5_an_peufLVJZD;-webkit-animation-timing-function: cubic-bezier(0, 0, 1, 1);animation-timing-function: cubic-bezier(0, 0, 1, 1);}#el_LOBbkMHQA5_an_Y1RpE6OEY{-webkit-animation-fill-mode: backwards;animation-fill-mode: backwards;-webkit-transform: translate(120.4861831665039px, 125.07330286502838px) scale(1, 1) translate(-120.4861831665039px, -125.07330286502838px);transform: translate(120.4861831665039px, 125.07330286502838px) scale(1, 1) translate(-120.4861831665039px, -125.07330286502838px);-webkit-animation-name: kf_el_LOBbkMHQA5_an_Y1RpE6OEY;animation-name: kf_el_LOBbkMHQA5_an_Y1RpE6OEY;-webkit-animation-timing-function: cubic-bezier(0, 0, 1, 1);animation-timing-function: cubic-bezier(0, 0, 1, 1);}#el_G-ScsX1u65_an_HBpMt7N1n{-webkit-animation-fill-mode: backwards;animation-fill-mode: backwards;-webkit-transform: translate(120.0145034790039px, 269.1256103515625px) translate(-120.0145034790039px, -269.1256103515625px) translate(0px, 0px);transform: translate(120.0145034790039px, 269.1256103515625px) translate(-120.0145034790039px, -269.1256103515625px) translate(0px, 0px);-webkit-animation-name: kf_el_G-ScsX1u65_an_HBpMt7N1n;animation-name: kf_el_G-ScsX1u65_an_HBpMt7N1n;-webkit-animation-timing-function: cubic-bezier(0, 0, 1, 1);animation-timing-function: cubic-bezier(0, 0, 1, 1);}#el_G-ScsX1u65_an_mGDzgJI5L{-webkit-animation-fill-mode: backwards;animation-fill-mode: backwards;-webkit-transform: translate(120.0145034790039px, 269.1256103515625px) scale(0.8, 0.8) translate(-120.0145034790039px, -269.1256103515625px);transform: translate(120.0145034790039px, 269.1256103515625px) scale(0.8, 0.8) translate(-120.0145034790039px, -269.1256103515625px);-webkit-animation-name: kf_el_G-ScsX1u65_an_mGDzgJI5L;animation-name: kf_el_G-ScsX1u65_an_mGDzgJI5L;-webkit-animation-timing-function: cubic-bezier(0, 0, 1, 1);animation-timing-function: cubic-bezier(0, 0, 1, 1);}#el_LI0MMoknbO_an_Hpt6vr_X2{-webkit-animation-fill-mode: backwards;animation-fill-mode: backwards;-webkit-transform: translate(120.23299407958984px, 351.4969787597656px) translate(-120.23299407958984px, -351.4969787597656px) translate(0px, 100px);transform: translate(120.23299407958984px, 351.4969787597656px) translate(-120.23299407958984px, -351.4969787597656px) translate(0px, 100px);-webkit-animation-name: kf_el_LI0MMoknbO_an_Hpt6vr_X2;animation-name: kf_el_LI0MMoknbO_an_Hpt6vr_X2;-webkit-animation-timing-function: cubic-bezier(0, 0, 1, 1);animation-timing-function: cubic-bezier(0, 0, 1, 1);}#el_M9T6RLlwRg{-webkit-animation-fill-mode: backwards;animation-fill-mode: backwards;opacity: 0;-webkit-animation-name: kf_el_M9T6RLlwRg_an_lQQxjJ8J7;animation-name: kf_el_M9T6RLlwRg_an_lQQxjJ8J7;-webkit-animation-timing-function: cubic-bezier(0, 0, 1, 1);animation-timing-function: cubic-bezier(0, 0, 1, 1);}#el_M9T6RLlwRg_an_jxOIa_SiW{-webkit-animation-fill-mode: backwards;animation-fill-mode: backwards;-webkit-transform: translate(115.01207733154297px, 180.66799545288086px) scale(0, 0) translate(-115.01207733154297px, -180.66799545288086px);transform: translate(115.01207733154297px, 180.66799545288086px) scale(0, 0) translate(-115.01207733154297px, -180.66799545288086px);-webkit-animation-name: kf_el_M9T6RLlwRg_an_jxOIa_SiW;animation-name: kf_el_M9T6RLlwRg_an_jxOIa_SiW;-webkit-animation-timing-function: cubic-bezier(0, 0, 1, 1);animation-timing-function: cubic-bezier(0, 0, 1, 1);}</style>
<g id="el_QBfn93keP0">
	<defs>
		<path id="Path_6_2_" d="M151.944,525.794c47.195-2.9,81.02-40.756,81.02-78.102c0-37.347-29.301-70.665-29.301-70.665&#10;&#9;&#9;&#9;l-68.162-95.945c0,0-9.695-12.282,0.215-26.285c7.916-11.188,64.455-90.346,64.455-90.346s32.786-38.51,32.786-79.288&#10;&#9;&#9;&#9;c0-50.555-56.558-73.208-76.413-76.377c-21.834-3.484-51.71-2.333-73.024,0C63.53,10.973,7.106,34.604,7.106,85.163&#10;&#9;&#9;&#9;c0,39.644,32.783,79.288,32.783,79.288s56.541,79.158,64.459,90.346c9.91,14.003,0.213,26.285,0.213,26.285l-68.156,95.945&#10;&#9;&#9;&#9;c0,0-29.299,33.321-29.299,70.668s33.826,74.984,81.019,78.102C88.115,525.794,120.993,527.699,151.944,525.794z"/>
	</defs>
	<clipPath id="Path_6_3_">
		<use xlink:href="#Path_6_2_" overflow="visible"/>
	</clipPath>
	<radialGradient id="Path_6_5_" cx="120.0352" cy="266.6118" r="200.4593" gradientUnits="userSpaceOnUse">
		<stop offset="0" style="stop-color:#D4D4D4"/>
		<stop offset="0.4365" style="stop-color:#FFFFFF"/>
		<stop offset="0.6774" style="stop-color:#FFFFFF"/>
		<stop offset="1" style="stop-color:#D4D4D4"/>
	</radialGradient>
	<path id="el_TyKdOTF3kW" clip-path="url(#Path_6_3_)" d="M151.944,525.794&#10;&#9;&#9;c47.195-2.9,81.02-40.756,81.02-78.102c0-37.347-29.301-70.665-29.301-70.665l-68.162-95.945c0,0-9.695-12.282,0.215-26.285&#10;&#9;&#9;c7.916-11.188,64.455-90.346,64.455-90.346s32.786-38.51,32.786-79.288c0-50.555-56.558-73.208-76.413-76.377&#10;&#9;&#9;c-21.834-3.484-51.71-2.333-73.024,0C63.53,10.973,7.106,34.604,7.106,85.163c0,39.644,32.783,79.288,32.783,79.288&#10;&#9;&#9;s56.541,79.158,64.459,90.346c9.91,14.003,0.213,26.285,0.213,26.285l-68.156,95.945c0,0-29.299,33.321-29.299,70.668&#10;&#9;&#9;s33.826,74.984,81.019,78.102C88.115,525.794,120.993,527.699,151.944,525.794z"/>
	<radialGradient id="Path_6_6_" cx="120.0352" cy="266.6118" r="200.4593" gradientUnits="userSpaceOnUse">
		<stop offset="0" style="stop-color:#D4D4D4"/>
		<stop offset="0.4365" style="stop-color:#FFFFFF"/>
		<stop offset="0.6774" style="stop-color:#FFFFFF"/>
		<stop offset="1" style="stop-color:#D4D4D4"/>
	</radialGradient>
	
	
		<linearGradient id="SVGID_1_" gradientUnits="userSpaceOnUse" x1="2845.9531" y1="1016.8057" x2="3079.8623" y2="1016.8057" gradientTransform="matrix(-1 0 0 -1 3083.3945 1141.8789)">
		<stop offset="0" style="stop-color:#5DBC6C"/>
		<stop offset="0.3558" style="stop-color:#61CBEC"/>
		<stop offset="0.6515" style="stop-color:#61CBEC"/>
		<stop offset="1" style="stop-color:#326086"/>
	</linearGradient>
	<g id="el_LOBbkMHQA5_an_peufLVJZD" data-animator-group="true" data-animator-type="0"><g id="el_LOBbkMHQA5_an_Y1RpE6OEY" data-animator-group="true" data-animator-type="2"><path clip-path="url(#Path_6_3_)" enable-background="new    " d="M112.195,248.543&#10;&#9;&#9;C55.81,208.934,1.455,110.204,3.593,90.601c0-39.934,36.889-85.009,82.465-87.685c33.1-1.943,67.868-1.153,67.857-1.156&#10;&#9;&#9;c44.375,6.148,83.494,45.698,83.494,85.632c1.425,27.088-45.802,107.64-108.172,161.15H112.195z" id="el_LOBbkMHQA5"/></g></g>
	<linearGradient id="SVGID_2_" gradientUnits="userSpaceOnUse" x1="49.5469" y1="223.4775" x2="190.4834" y2="223.4775">
		<stop offset="0.086" style="stop-color:#326086"/>
		<stop offset="0.3558" style="stop-color:#61CBEC"/>
		<stop offset="0.6515" style="stop-color:#61CBEC"/>
		<stop offset="0.8925" style="stop-color:#5DBC6C"/>
	</linearGradient>
	<g id="el_G-ScsX1u65_an_HBpMt7N1n" data-animator-group="true" data-animator-type="0"><g id="el_G-ScsX1u65_an_mGDzgJI5L" data-animator-group="true" data-animator-type="2"><path clip-path="url(#Path_6_3_)" enable-background="new    " d="M127.5,269c0,0,0.198,2.167,7.899-13.749&#10;&#9;&#9;c7.916-11.188,55.084-77.384,55.084-77.384l-140.937-0.038c0,0,51.547,66.965,56.686,79.671c5.527,13.667,5.329,11.5,5.329,11.5&#10;&#9;&#9;H127.5z" id="el_G-ScsX1u65"/></g></g>
	<linearGradient id="SVGID_3_" gradientUnits="userSpaceOnUse" x1="110.5" y1="358" x2="128.833" y2="358">
		<stop offset="0.3558" style="stop-color:#61CBEC"/>
		<stop offset="0.6515" style="stop-color:#61CBEC"/>
	</linearGradient>
	<rect x="110.5" y="230.833" clip-path="url(#Path_6_3_)" width="18.333" height="254.334" id="el_DS2gfIUQR0"/>
	<g clip-path="url(#Path_6_3_)" id="el_d3pO2D--vQ">
		<linearGradient id="SVGID_4_" gradientUnits="userSpaceOnUse" x1="-1.3687" y1="445.7773" x2="241.835" y2="445.7773">
			<stop offset="0.086" style="stop-color:#326086"/>
			<stop offset="0.3558" style="stop-color:#61CBEC"/>
			<stop offset="0.6515" style="stop-color:#61CBEC"/>
			<stop offset="0.8925" style="stop-color:#5DBC6C"/>
		</linearGradient>
		<g id="el_LI0MMoknbO_an_Hpt6vr_X2" data-animator-group="true" data-animator-type="0"><path enable-background="new    " d="M111.027,351.498l-46.608,41.946l-65.788,60.844&#10;&#9;&#9;&#9;c0,40.575,35.663,81.465,86.933,84.852c-0.011-0.003,35.71,2.067,69.335-0.003c51.274-3.151,86.936-44.278,86.936-84.852&#10;&#9;&#9;&#9;l-56.822-54.685l-56.669-48.103H111.027z" id="el_LI0MMoknbO"/></g>
	</g>
	<linearGradient id="SVGID_5_" gradientUnits="userSpaceOnUse" x1="48.7754" y1="178.54" x2="191.0254" y2="178.54">
		<stop offset="0.086" style="stop-color:#326086"/>
		<stop offset="0.587" style="stop-color:#61CBEC"/>
		<stop offset="0.8925" style="stop-color:#5DBC6C"/>
	</linearGradient>
	<ellipse clip-path="url(#Path_6_3_)" cx="119.9" cy="178.539" rx="71.125" ry="6.218" id="el_ak776_AVil"/>
</g>
<g id="el_M9T6RLlwRg_an_jxOIa_SiW" data-animator-group="true" data-animator-type="2"><g id="el_M9T6RLlwRg">
	<g id="el_SPIMu3nUmt">
		<path stroke-miterlimit="10" d="M104.205,92.581&#10;&#9;&#9;&#9;c4.018-1.001,5.716-3.464,7.729-6.153c0.966-1.316,11.598-19.175,2.683-23.095c-3.549,2.46-7.752,10.989-10.412,20.061&#10;&#9;&#9;&#9;c-1.034-0.005-3.674,1.26-3.09,3.733C101.698,89.601,104.205,92.581,104.205,92.581z" id="el_32URV83Rjp"/>
	</g>
	<rect id="el_g3fD21OONY" x="128.175" y="180.411" width="7.938" height="0.257"/>
	<rect id="el_3my7qtOEIy" x="131.813" y="173.169" width="4.3" height="5.066"/>
	<path id="el_pI6sbMbUAo" d="M128.175,180.411c0-0.43-0.061-1.374,0.491-1.661c0.402-0.228,0.666-0.114,0.901-0.199&#10;&#9;&#9;c0.292-0.087,1.922-2.118,2.242-2.49h2.981l1.319,1.373v2.977H128.175L128.175,180.411z"/>
	<path id="el_YBsULpt5VOV" d="M136.675,96.214c3.066,27.417,2.451,55.377,0.827,78.816h-6.853&#10;&#9;&#9;c-2.466-22.58-4.926-48.908-5.702-78.816H136.675z"/>
	<rect id="el_kJ53Htotkvi" x="110.995" y="173.313" width="5.311" height="5.065"/>
	<path id="el_0vgpfKfUXxm" d="M114.899,96.214c-1.776,14.567-3.279,29.506-3.904,43.415&#10;&#9;&#9;c-0.579,12.877-0.345,24.841-0.286,35.401l6.408,0.887c3.128-12.621,3.571-26.3,3.968-36.803&#10;&#9;&#9;c3.155-10.56,5.386-19.089,6.511-28.905c0.473-4.149-1.193-9.673-0.679-13.995H114.899L114.899,96.214z"/>
	<rect id="el_swyRmiQPZxW" x="101.277" y="180.181" width="15.028" height="0.286"/>
	<path id="el_-tQy4bJRKJr" d="M116.306,180.181h-15.03c0,0,0.07-1.288,0.833-1.545c0.761-0.229,6.349-1.43,6.349-1.43&#10;&#9;&#9;s1.477-1.031,1.895-1.289c0.417-0.257,0.805-0.143,1.576,0.315l1.825,1.087h2.553L116.306,180.181z"/>
	<path id="el_qkIzzdmx2mk" d="M124.45,112.47c0,0-6.83,24.241-6.862,26.357c-0.034,2.118-0.006,32.167-1.282,35.315&#10;&#9;&#9;c-0.25,0.573-0.186,1.202,0.172,1.688l0.64,0.086c3.127-12.621,3.572-26.3,3.967-36.803c2.024-6.782,3.672-12.735,4.887-18.716&#10;&#9;&#9;h-0.018L124.45,112.47z"/>
	<path id="el_-875RMSnoFd" d="M135.503,173.714c0.512-4.464-0.17-32.912-0.684-43.442"/>
	<path id="el_6dhmF3EGpAk" stroke-miterlimit="10" d="M111.107,131.072&#10;&#9;&#9;c0.326-4.722,3.246-67.481,3.415-67.882c1.311-1.173,2.874-2.061,4.566-2.547l12.693-0.629c4.96,1.116,7.426,2.89,7.426,2.89&#10;&#9;&#9;l-2.233,17.4l2.624,53.688C132.129,134.191,119.261,132.933,111.107,131.072z"/>
	<path id="el_R5rNEOr-ntk" d="M132.249,60.5l-7.303,12.363l-5.269-12.335l2.457-0.858h7.474L132.249,60.5z"/>
	<path id="el_EJC65z7p_iX" stroke-miterlimit="10" d="M124.913,72.833l-5.7-4.665&#10;&#9;&#9;l0.894-2.031l-2.127-1.517l1.072-3.863"/>
	<path id="el_qUrBC7524z9" stroke-miterlimit="10" d="M124.913,72.833l6.479-4.665&#10;&#9;&#9;l-0.547-2.031l2.38-1.517l-0.412-3.863"/>
	<path id="el_2bn5MpsF2mf" d="M121.697,61.33l4.376,3.061l4.446-3.061l0.012-10.704l-8.007,1.116L121.697,61.33z"/>
	<path id="el_FqgQn-3RyZ1" d="M125.526,38.835c1.54,0.085,6.179,0.372,6.108,6.439c-0.071,6.066-1.043,8.042-1.796,8.928&#10;&#9;&#9;c-0.965,1.145-2.505,2.375-6.257,2.776c-2.18-0.171-2.51-1.489-3.163-2.805c-0.52-1.058-1.545-3.147-1.313-9.215&#10;&#9;&#9;C119.339,38.892,123.984,38.835,125.526,38.835z"/>
	<path id="el_6aP-zmAJqR0" d="M129.68,42.47c0.542,0.344-0.65,5.065,1.853,4.809c1.632-2.52,1.938-5.639-0.171-6.926&#10;&#9;&#9;c-0.397-2.232-2.553-3.148-5.302-3.062c-1.586,0.028-3.343,1.488-5.146,1.516c-2.814,0-3.681,1.717-2.683,3.292&#10;&#9;&#9;c0.433,0.686,1.908,0.83,2.55,0.6c0.894-0.343,3.265,1.26,4.965,1.202C127.683,43.843,128.354,42.784,129.68,42.47z"/>
	<path id="el_a2U1aHwca1u" d="M131.101,47.878c0.174-0.372,0.518-0.658,0.925-0.715c0.474-0.115,1.325,0.172,1.289,1.517&#10;&#9;&#9;c-0.037,1.344-1.18,2.489-1.88,2.288C130.731,50.797,131.101,47.878,131.101,47.878z"/>
	<path id="el_HgGf7Td9ljr" stroke-miterlimit="10" d="M131.606,48.565&#10;&#9;&#9;c0-0.172,0.675-0.944,1.217-0.401"/>
	<path id="el_i3PPCd0Ho82" d="M120.423,47.65c0.337,0.057,0.595,0.343,0.62,0.686c0.047,0.344-0.156,0.658-0.45,0.63&#10;&#9;&#9;c-0.339-0.058-0.595-0.315-0.619-0.658C119.924,47.936,120.127,47.65,120.423,47.65z"/>
	<path id="el_XzcSLctd4Ec" stroke-miterlimit="10" d="M121.444,46.248&#10;&#9;&#9;c0.302,0.115,0.513,0.4,0.552,0.744c0.105,1.201-0.344,3.492-0.313,3.92c0.04,0.63,0.963,0.573,0.963,0.573"/>
	<path id="el_9QoYy8bbggS" stroke-miterlimit="10" d="M123.962,53.144&#10;&#9;&#9;c0,0-1.057,0.773-2.796-0.085"/>
	<path id="el_kp7FNgSrLCJ" stroke-miterlimit="10" d="M126.542,46.333&#10;&#9;&#9;c-0.36-0.144-1.407-0.087-2.031,0.028"/>
	<path id="el_rvWieIP7U7Y" stroke-miterlimit="10" d="M129.9,39.75&#10;&#9;&#9;c0.567,1.947-0.777,4.494-2.954,4.895"/>
	<path id="el_v48i4AfByFr" stroke-miterlimit="10" d="M131.099,51.227&#10;&#9;&#9;c-0.36,1.659-0.844,2.489-1.263,2.976c-0.963,1.145-2.505,2.375-6.255,2.776"/>
	<path id="el_kLs9IqKNvgO" stroke-miterlimit="10" d="M119.484,46.361&#10;&#9;&#9;c0.352-0.143,1.396-0.172,2.027-0.086"/>
	<path id="el_9tgIxRi9C5I" stroke-miterlimit="10" d="M123.469,53.86&#10;&#9;&#9;c-0.393,0.171-0.813,0.257-1.241,0.286"/>
	<path id="el_EnlUIyetL2Z" d="M124.815,65.88l-0.948,4.436l1.082,2.547l1.507-2.576l-0.201-4.407l1.411-1.317l-0.901-1.516&#10;&#9;&#9;l-1.059,0.83l-0.917-0.83l-1.161,1.516L124.815,65.88z"/>
	<path id="el_aJ8Jr3hrZwL" d="M125.719,63.876l-2.99,1.487l-2.157-5.15l0.978-0.344L125.719,63.876z"/>
	<path id="el_0LoBw5XEhGb" d="M125.706,63.876l2.741,1.458l3.022-5.122l-0.92-0.344L125.706,63.876z"/>
	<path id="el_LG3vl24dxx0" d="M125.285,47.65c0.337,0.057,0.595,0.343,0.618,0.686c0.047,0.344-0.155,0.658-0.449,0.63&#10;&#9;&#9;c-0.339-0.058-0.594-0.315-0.62-0.658C124.788,47.936,124.989,47.65,125.285,47.65z"/>
	<path id="el_krFmYLFcz-8" d="M120.721,77.786h-0.188h-0.16l0.015,0.171l0.029,0.314l0.016,0.144h0.151h0.123l0,0h0.062l0,0&#10;&#9;&#9;c0.479-0.029,0.755-0.058,1.112-0.43c0.173-0.199,0.287-0.458,0.33-0.715c0.343-1.574-0.581-5.152-1.441-5.982l-0.106-0.085&#10;&#9;&#9;l-0.108,0.085l-0.239,0.23l-0.125,0.114l0.125,0.115c0,0,0.14,0.142,0.438,0.915c0.506,1.317,1.122,2.976,0.847,4.407&#10;&#9;&#9;c-0.019,0.172-0.08,0.343-0.18,0.487C121.235,77.727,121.047,77.756,120.721,77.786z"/>
	<path id="el_uZdh3nV-UMF" d="M120.493,78.615c0.361-0.029,0.631-0.258,0.607-0.543c-0.021-0.286-0.342-0.516-0.703-0.486&#10;&#9;&#9;c-0.361,0.027-0.632,0.286-0.606,0.571C119.815,78.442,120.134,78.643,120.493,78.615z"/>
	<path id="el_2ZbZw6A15R-" d="M117.413,78.128L117.6,78.1h0.161l0.011,0.144l0.026,0.314l0.014,0.171h-0.152l-0.123,0.03&#10;&#9;&#9;l0,0h-0.061l0,0c-0.479,0.058-0.754,0.085-1.168-0.201c-0.205-0.201-0.361-0.401-0.45-0.658c-0.609-1.488-0.32-5.18,0.386-6.154&#10;&#9;&#9;l0.086-0.113l0.125,0.086l0.271,0.171l0.144,0.086l-0.104,0.143c0,0-0.113,0.144-0.27,0.974c-0.271,1.374-0.585,3.148-0.065,4.521&#10;&#9;&#9;c0.047,0.144,0.135,0.287,0.257,0.401C116.901,78.185,117.087,78.156,117.413,78.128z"/>
	<path id="el_jUKycQm9F0O" d="M117.789,78.929c-0.359,0.029-0.672-0.171-0.695-0.458c-0.024-0.286,0.25-0.543,0.612-0.572&#10;&#9;&#9;c0.361-0.057,0.673,0.144,0.696,0.458C118.424,78.643,118.15,78.872,117.789,78.929z"/>
	<path id="el_rL9-S4oTKML" d="M117.519,67.969c-0.246,0.371-0.47,0.8-0.675,1.201c-0.197,0.429-0.361,0.801-0.496,1.144&#10;&#9;&#9;c-0.073,0.201-0.141,0.401-0.207,0.573c-0.064,0.2-0.116,0.372-0.164,0.515c-0.059,0.172-0.11,0.315-0.15,0.487&#10;&#9;&#9;c-0.036,0.143-0.055,0.257-0.066,0.314l-0.049,0.315l0.306,0.057l0.26,0.058l0.248,0.057l0.3,0.058l0.077-0.286&#10;&#9;&#9;c0.024-0.115,0.05-0.201,0.084-0.344l0,0c0.027-0.086,0.061-0.199,0.101-0.343c0.019-0.057,0.044-0.115,0.075-0.172&#10;&#9;&#9;c0.029-0.058,0.059-0.115,0.089-0.171c0.1-0.144,0.213-0.286,0.339-0.401c0.468-0.543,1.261-0.601,1.803-0.143&#10;&#9;&#9;c0.151,0.085,0.29,0.229,0.417,0.344c0.043,0.057,0.085,0.115,0.122,0.171c0.036,0.057,0.074,0.115,0.11,0.172&#10;&#9;&#9;c0.058,0.114,0.112,0.201,0.16,0.315c0.049,0.115,0.103,0.229,0.146,0.314l0.125,0.259l0.278-0.115l0.231-0.087l0.245-0.085&#10;&#9;&#9;l0.307-0.085l-0.108-0.314c-0.023-0.059-0.065-0.172-0.124-0.315c-0.071-0.144-0.151-0.315-0.242-0.458&#10;&#9;&#9;c-0.077-0.144-0.163-0.315-0.254-0.486c-0.099-0.172-0.201-0.344-0.31-0.516c-0.202-0.343-0.435-0.686-0.699-1.059&#10;&#9;&#9;c-0.278-0.371-0.577-0.745-0.893-1.116l-0.104-0.115l-0.154,0.029l-0.893,0.086h-0.158l-0.082,0.144L117.519,67.969L117.519,67.969&#10;&#9;&#9;z M118.711,69.428c-0.237-0.029-0.475,0-0.708,0.058l0.039-0.087l0,0c0.083-0.171,0.171-0.314,0.264-0.485&#10;&#9;&#9;c0.091,0.113,0.198,0.228,0.309,0.372L118.711,69.428z"/>
	<path id="el_Nj3kl-NReL-" d="M117.909,68.283c-0.364-0.859-0.625-1.745-0.777-2.662c-0.279-1.487-0.179-3.033,0.29-4.492&#10;&#9;&#9;c0.472-1.431,1.528-2.605,2.904-3.205c0.479-0.23,0.979-0.372,1.494-0.458l0.129,0.8c-0.449,0.058-0.889,0.201-1.308,0.372&#10;&#9;&#9;c-1.173,0.544-2.072,1.546-2.472,2.777c-0.425,1.316-0.513,2.719-0.257,4.092c0.14,0.831,0.381,1.66,0.721,2.461L117.909,68.283z"/>
	<path id="el_4YDEPDe7hsy" d="M133.697,72.261c0.834-1.03,1.737-3.606,1.938-6.325c0.115-1.26,0.016-2.547-0.293-3.778&#10;&#9;&#9;c-0.267-1.116-0.876-2.117-1.742-2.89c-0.767-0.631-1.784-1.031-3.118-1.145l0.059-0.802c1.505,0.115,2.671,0.602,3.557,1.345&#10;&#9;&#9;c0.995,0.859,1.698,2.004,2.007,3.291c0.334,1.316,0.441,2.69,0.32,4.064c-0.212,2.833-1.2,5.609-2.114,6.754L133.697,72.261z"/>
	<path id="el_W27TphOZkit" d="M133.882,75.809c0.984-0.629,1.277-1.945,0.653-2.918c-0.002,0-0.002,0-0.002,0&#10;&#9;&#9;c-0.016-0.028-0.033-0.057-0.049-0.086c-0.708-1.001-2.063-1.258-3.081-0.572c-0.984,0.63-1.275,1.947-0.65,2.919&#10;&#9;&#9;c0.017,0.029,0.031,0.058,0.05,0.087C131.51,76.24,132.866,76.497,133.882,75.809z"/>
	<path id="el_WwVl_us0L7j" d="M133.471,75.209c0.656-0.401,0.853-1.287,0.435-1.947h-0.001&#10;&#9;&#9;c-0.009-0.028-0.021-0.028-0.032-0.057c-0.472-0.658-1.38-0.829-2.06-0.401c-0.659,0.43-0.854,1.316-0.437,1.975&#10;&#9;&#9;c0.002,0,0.002,0,0.002,0c0.01,0.029,0.02,0.029,0.032,0.058C131.88,75.495,132.79,75.667,133.471,75.209z M133.187,74.808&#10;&#9;&#9;c-0.446,0.286-1.042,0.172-1.354-0.257c-0.29-0.43-0.187-1.002,0.234-1.316h0.032c0.446-0.315,1.044-0.2,1.352,0.257&#10;&#9;&#9;c0.294,0.43,0.19,1.001-0.23,1.288l0,0L133.187,74.808L133.187,74.808z"/>
	<path id="el_XL_IeY_2q06" d="M122.083,98.019l-2.13-16.457c-0.133-1.001-1.119-2.031-2.2-2.289l-0.052-0.372&#10;&#9;&#9;c-0.081-0.631-0.686-1.26-1.345-1.402l-5.186-1.145c-0.661-0.144-1.135,0.257-1.054,0.859l0.05,0.399l-0.975-0.228&#10;&#9;&#9;c-1.086-0.229-1.866,0.401-1.735,1.431l2.127,16.455c0.133,1.002,1.131,2.032,2.219,2.29l8.545,1.861&#10;&#9;&#9;C121.434,99.678,122.216,99.02,122.083,98.019z"/>
	<path id="el__XMjxLWQDYc" stroke-miterlimit="10" d="M112.646,75.782&#10;&#9;&#9;c0.102-0.516,0.682-0.802,1.296-0.688c0.616,0.115,1.031,0.629,0.928,1.146c-0.101,0.486-0.682,0.8-1.296,0.658&#10;&#9;&#9;C112.959,76.783,112.543,76.269,112.646,75.782z"/>
	<line id="el_PW8z4rGAxiH" x1="124.949" y1="72.863" x2="124.228" y2="133.162"/>
	<path id="el_4Ymcl72Et6c" d="M127.666,91.35c-0.855-0.287-2.557-1.174-3.257-1.375c-0.227-0.057-0.682-0.085-1.791-0.229&#10;&#9;&#9;c-0.754-0.143-1.499-0.344-2.229-0.572c-0.044,0.257,0.053,0.543,0.261,0.744c0.346,0.257,1.067,0.716,1.557,0.802&#10;&#9;&#9;c0.486,0.114,1.254,0.172,1.422,0.257c-0.645,0.201-1.304,0.372-1.304,0.372c-0.685-0.171-1.546-0.43-2.047-0.573&#10;&#9;&#9;c-0.315-0.257-0.644-0.486-0.984-0.715c-0.178-0.315-0.431-0.545-0.735-0.716c-0.116,0.171-0.199,0.372-0.246,0.572&#10;&#9;&#9;c-0.073-0.057-0.171-0.115-0.27-0.086l0.045,0.944l0.425,0.859v0.401l1.151,1.574l0.66,0.744l2.281,0.286&#10;&#9;&#9;c0,0,3.387-0.229,3.888-0.229l1.045,0.029L127.666,91.35z"/>
	<path id="el_XRAdZ1IpZQY" stroke-miterlimit="10" d="M118.314,89.919l0.109,0.458&#10;&#9;&#9;l1.401,1.488l2.021,0.458"/>
	<path id="el_TD6WcYvINMJ" stroke-miterlimit="10" d="M118.465,91.75l1.061,1.031&#10;&#9;&#9;l1.829,0.485"/>
	<path id="el_gVnphKT6uPe" d="M128.237,95.071l0.14-4.122l-1.471-0.201l-0.753,3.921L128.237,95.071z"/>
	<path id="el_Mnqnl52gArh" stroke-miterlimit="10" d="M137.963,86.829&#10;&#9;&#9;c-0.515-4.264-0.495-1.976-0.901-7.213c0,0-0.051-11.734,2.144-16.713c3.435,1.86,4.747,11.82,5.598,26.358&#10;&#9;&#9;c0,0,0.443,5.895-2.631,6.697c-3.072,0.8-16.627,0.085-16.627,0.085l0.492-6.182l11.84-0.429L137.963,86.829z"/>
	<path id="el_TJLmlSjSMCf" stroke-miterlimit="10" d="M140.338,89.919&#10;&#9;&#9;c0,0,4.069,0.458,3.052,0.83c-1.017,0.372-4.068-0.458-3.052,0.372c0.655,0.602,1.171,1.317,1.506,2.146"/>
	<path id="el_FMtU_S4-GM9" d="M122.847,47.42c0.418-0.085,3.504-0.573,5.073-0.057c0.34,0.829-0.416,2.461-0.699,2.632&#10;&#9;&#9;c-0.284,0.172-2.913,0.201-3.427,0.115c-0.51-0.029-0.774-1.861-0.851-2.089c-0.022-0.086-0.04-0.144-0.056-0.229&#10;&#9;&#9;c-0.279-0.115-0.586-0.115-0.866,0c-0.016,0.085-0.033,0.144-0.055,0.229c-0.076,0.228-0.341,2.06-0.853,2.089&#10;&#9;&#9;c-0.51,0.085-1.637,0.057-1.921-0.115c-0.284-0.171-1.04-1.803-0.698-2.604c1.542-0.515,3.042-0.057,3.545,0&#10;&#9;&#9;c0.263-0.057,0.541-0.057,0.804,0L122.847,47.42z M121.608,47.65c-0.293-0.058-1.353-0.487-2.652-0.029&#10;&#9;&#9;c-0.278,0.658,0.339,1.975,0.571,2.117c0.232,0.144,0.877,0.173,1.294,0.115c0.417-0.028,0.632-1.517,0.694-1.718&#10;&#9;&#9;c0.043-0.171,0.073-0.343,0.09-0.485H121.608z M123.308,47.65c0.018,0.143,0.048,0.314,0.091,0.485&#10;&#9;&#9;c0.062,0.173,0.278,1.69,0.694,1.69c0.418,0.085,2.563,0.057,2.796-0.087c0.23-0.142,0.85-1.458,0.571-2.117&#10;&#9;&#9;C126.162,47.163,123.6,47.592,123.308,47.65L123.308,47.65z"/>
	<g id="el_fwVUjrJBtx3">
		<path d="M94.493,69.771c-0.073-0.287-1.153-1.059-1.354-1.172c-0.201-0.115-1.072-0.773-1.293-1.145&#10;&#9;&#9;&#9;c-0.264-0.372-0.616-0.658-1.024-0.859c-0.27,0.086-0.18,1.174,0.228,1.603c0.409,0.43,0.779,0.658,0.965,0.888&#10;&#9;&#9;&#9;c0.125,0.199,0.203,0.429,0.226,0.687l-0.626,0.172c0,0-1.442-0.401-1.634-0.401c-0.193,0-1.176-0.516-1.176-0.516&#10;&#9;&#9;&#9;s-0.007-0.018-0.021-0.046c0.028,0.081,0.047,0.145,0.056,0.183c0.041,0.19,0.417,1.541,0.448,1.651l0.719,0.841&#10;&#9;&#9;&#9;c0.12-0.004,0.864-0.028,1.087-0.028c0.246,0,0.456,0.028,1.117,0.405l-0.033,0.058c-0.646-0.368-0.848-0.396-1.084-0.396&#10;&#9;&#9;&#9;c-0.241,0-1.092,0.027-1.1,0.029h-0.016l-0.012-0.013l-0.74-0.871c-0.017-0.059-0.409-1.463-0.451-1.662&#10;&#9;&#9;&#9;c-0.044-0.208-0.324-0.926-0.594-1.092c-0.005,0-0.01-0.002-0.015-0.002c-0.12-0.027-0.229-0.085-0.348,0.115&#10;&#9;&#9;&#9;c-0.069-0.572-0.533-1.087-0.885-1.116c-0.091,0.029-0.212,0.257-0.212,0.257c-0.053-0.086-0.424-0.372-0.56-0.343&#10;&#9;&#9;&#9;c-0.082,0.029-0.146,0.085-0.17,0.171c-0.244-0.4-0.497-0.601-0.793-0.516c0.06,0.43,0.182,0.859,0.362,1.289&#10;&#9;&#9;&#9;c0.225,0.572,0.908,1.774,0.908,1.774l0.43,1.088c0,0,1.459,1.116,1.654,1.201c0.194,0.086,0.469,0.944,0.789,1.058&#10;&#9;&#9;&#9;c0.288,0.104,2.82,1.042,3.509,1.416l2.417-2.126C94.982,71.39,94.542,69.954,94.493,69.771z M88.368,71.448l-0.992-1.746&#10;&#9;&#9;&#9;l-0.689-2.238l0.063-0.02l0.687,2.233l0.988,1.738L88.368,71.448z" id="el_HUAM5Rd6YBn"/>
		<polygon points="86.752,67.443 86.687,67.463 87.376,69.702 88.368,71.448 88.426,71.415 87.438,69.677 &#9;&#9;" id="el_p5FZafI6N8B"/>
		<path d="M88.773,69.177c0.042,0.199,0.435,1.603,0.451,1.662l0.74,0.871l0.012,0.013h0.016&#10;&#9;&#9;&#9;c0.007-0.001,0.859-0.029,1.1-0.029c0.236,0,0.438,0.027,1.084,0.396l0.033-0.058c-0.661-0.377-0.872-0.405-1.117-0.405&#10;&#9;&#9;&#9;c-0.223,0-0.967,0.024-1.087,0.028l-0.719-0.841c-0.03-0.11-0.407-1.46-0.448-1.651c-0.009-0.038-0.028-0.102-0.056-0.183&#10;&#9;&#9;&#9;c-0.104-0.297-0.332-0.81-0.572-0.955l-0.034,0.057c0,0.001,0.001,0.001,0.002,0.002C88.447,68.251,88.729,68.969,88.773,69.177z" id="el_IqH16m0blri"/>
		<path d="M96.216,73.402l-0.75-1.227l-0.201,0.176l-2.417,2.126l-0.473,0.416l0.938,1.346l0.489-0.299&#10;&#9;&#9;&#9;c0.232-0.252,0.464-0.514,0.694-0.775C95.109,74.472,95.688,73.816,96.216,73.402z" id="el_NpK3BucFicu"/>
		<path d="M104.118,83.806l0.011-0.066c-0.004,0.001-0.007,0.004-0.011,0.005V83.806z" id="el__7iIm9urBpv"/>
		<path d="M103.293,86.729c-0.159,0.307-0.331,0.774-0.513,1.267c-0.363,0.986-0.739,2.006-1.105,2.008h-0.001&#10;&#9;&#9;&#9;c-0.139,0-0.257-0.136-0.364-0.416c-0.602-1.556,1.04-5.047,2.755-5.889c-1.749-2.705-4.274-6.031-7.507-9.888&#10;&#9;&#9;&#9;c-0.151-0.181-0.253-0.301-0.299-0.358c-0.524,0.409-1.102,1.064-1.712,1.756c-0.66,0.748-1.34,1.52-1.971,1.987&#10;&#9;&#9;&#9;c0.664,1.895,2.526,5.536,4.437,8.674c1.375,2.26,3.936,6.169,5.651,6.991l1.059-6.598&#10;&#9;&#9;&#9;C103.587,86.293,103.436,86.453,103.293,86.729z" id="el_U1dX94avmBl"/>
		<path d="M102.653,92.862c0.003,0,0.008-0.001,0.01-0.001l0,0c-1.714-0.821-4.276-4.731-5.651-6.991&#10;&#9;&#9;&#9;c-1.91-3.138-3.771-6.779-4.438-8.674c0.631-0.468,1.313-1.239,1.971-1.987c0.611-0.692,1.189-1.347,1.713-1.756&#10;&#9;&#9;&#9;c0.045,0.057,0.146,0.177,0.297,0.358c3.234,3.857,5.758,7.183,7.509,9.888c0.013-0.006,0.025-0.014,0.038-0.02l0.001,0.002&#10;&#9;&#9;&#9;l0.006-0.036c-1.751-2.704-4.274-6.026-7.502-9.877c-0.175-0.208-0.291-0.347-0.317-0.382l-0.021-0.027l-0.026,0.021&#10;&#9;&#9;&#9;c-0.009,0.007-0.019,0.015-0.028,0.022c-0.529,0.414-1.108,1.069-1.72,1.763c-0.231,0.261-0.463,0.523-0.695,0.775&#10;&#9;&#9;&#9;c-0.438,0.479-0.874,0.916-1.286,1.217l-0.021,0.013l0.009,0.024c1.276,3.666,7.211,14.344,10.139,15.73l0.014-0.03&#10;&#9;&#9;&#9;L102.653,92.862z" id="el_X4TFNWDYOoL"/>
		<path d="M104.096,88.167c0.013-0.072,0.023-0.142,0.032-0.212l-0.003-1.152c-0.06-0.301-0.167-0.492-0.3-0.537&#10;&#9;&#9;&#9;c-0.032-0.012-0.067-0.01-0.102-0.004l-1.06,6.599l0,0c0.552-0.077,1.063-0.178,1.543-0.298v-4.69&#10;&#9;&#9;&#9;c-0.013,0.1-0.026,0.201-0.044,0.306L104.096,88.167z" id="el_cVL17dgCU0D"/>
		<path d="M104.162,83.743l-0.031-0.005l0.001,0.001c-0.001,0-0.002,0.001-0.003,0.001l-0.011,0.066l0.006,2.741&#10;&#9;&#9;&#9;c0.036,0.096,0.063,0.207,0.081,0.332V83.52c-0.005,0.019-0.011,0.036-0.016,0.055L104.162,83.743z" id="el_J4U2imGf_Wg"/>
		<path d="M104.205,92.632v-0.069c-0.479,0.12-0.991,0.221-1.542,0.298c-0.002,0-0.007,0.001-0.01,0.001l0.005,0.034&#10;&#9;&#9;&#9;l0.005,0.032C103.214,92.852,103.725,92.752,104.205,92.632z" id="el_MVRyXdYh0-m"/>
		<path d="M104.131,83.738l0.031,0.005l0.026-0.167c0.006-0.019,0.011-0.036,0.016-0.055v-0.233&#10;&#9;&#9;&#9;c-0.026,0.091-0.054,0.182-0.081,0.274l-0.014,0.084l-0.006,0.035L104.131,83.738z" id="el_D3KwlMbHXzS"/>
		<path d="M101.372,89.563c0.094,0.249,0.196,0.375,0.302,0.375l0,0c0.32-0.002,0.705-1.045,1.044-1.964&#10;&#9;&#9;&#9;c0.182-0.496,0.354-0.965,0.516-1.275c0.269-0.52,0.499-0.533,0.613-0.496c0.118,0.041,0.211,0.162,0.277,0.345l-0.006-2.742&#10;&#9;&#9;&#9;v-0.059C102.291,84.613,100.822,88.141,101.372,89.563z" id="el_oKn_z5oxb_4"/>
		<path d="M104.125,86.803l0.003,1.152C104.192,87.486,104.183,87.093,104.125,86.803z" id="el_U5ykWlWavWM"/>
		<path d="M103.847,86.203c-0.114-0.038-0.344-0.024-0.613,0.496c-0.161,0.31-0.333,0.778-0.516,1.275&#10;&#9;&#9;&#9;c-0.339,0.919-0.724,1.961-1.043,1.963c-0.001,0-0.001,0-0.001,0c-0.106,0-0.208-0.125-0.301-0.374&#10;&#9;&#9;&#9;c-0.551-1.422,0.918-4.95,2.745-5.817c0.004-0.001,0.008-0.004,0.011-0.005c0.001,0,0.002-0.001,0.003-0.002l0,0l-0.027-0.058&#10;&#9;&#9;&#9;v-0.001c-0.014,0.006-0.027,0.014-0.04,0.019c-1.715,0.842-3.358,4.333-2.755,5.89c0.107,0.28,0.226,0.416,0.364,0.416h0.001&#10;&#9;&#9;&#9;c0.366-0.001,0.742-1.021,1.105-2.008c0.183-0.494,0.354-0.96,0.513-1.267c0.142-0.276,0.293-0.438,0.43-0.466&#10;&#9;&#9;&#9;c0.035-0.006,0.07-0.008,0.102,0.004c0.133,0.044,0.241,0.236,0.3,0.537c0.057,0.29,0.065,0.683,0.003,1.152&#10;&#9;&#9;&#9;c-0.009,0.07-0.021,0.14-0.033,0.212l0.067,0.011c0.018-0.105,0.031-0.207,0.042-0.306v-0.994&#10;&#9;&#9;&#9;c-0.019-0.126-0.045-0.236-0.081-0.332C104.059,86.365,103.965,86.244,103.847,86.203z" id="el_9zxWzNULM8G"/>
	</g>
</g></g>
</svg>