<svg version="1.1" id="el_O3TtJuOnN" xmlns="http://www.w3.org/2000/svg" xmlns:xlink="http://www.w3.org/1999/xlink" x="0px" y="0px" viewBox="0 0 110 662" enable-background="new 0 0 110.995 662" xml:space="preserve"><style>@-webkit-keyframes kf_el_3uAZz9lgam_an_N7GYQXG1l{0%{opacity: 1;}25%{opacity: 0;}37.50%{opacity: 1;}50%{opacity: 1;}75%{opacity: 0;}87.50%{opacity: 1;}100%{opacity: 1;}}@keyframes kf_el_3uAZz9lgam_an_N7GYQXG1l{0%{opacity: 1;}25%{opacity: 0;}37.50%{opacity: 1;}50%{opacity: 1;}75%{opacity: 0;}87.50%{opacity: 1;}100%{opacity: 1;}}#el_O3TtJuOnN *{-webkit-animation-duration: 4s;animation-duration: 4s;-webkit-animation-iteration-count: infinite;animation-iteration-count: infinite;-webkit-animation-timing-function: cubic-bezier(0, 0, 1, 1);animation-timing-function: cubic-bezier(0, 0, 1, 1);}#el_O48M7IIJQ6{fill: url(#SVGID_1_);}#el_3uAZz9lgam{fill: url(#SVGID_2_);-webkit-animation-fill-mode: backwards;animation-fill-mode: backwards;opacity: 1;-webkit-animation-name: kf_el_3uAZz9lgam_an_N7GYQXG1l;animation-name: kf_el_3uAZz9lgam_an_N7GYQXG1l;-webkit-animation-timing-function: cubic-bezier(0, 0, 1, 1);animation-timing-function: cubic-bezier(0, 0, 1, 1);}#el_1iCxu30eRQ{fill: #4B4542;}</style>
<radialGradient id="SVGID_1_" cx="141.04" cy="472.667" r="28.4023" gradientTransform="matrix(1.4963 0 0 -1.5343 -155.7241 772.7927)" gradientUnits="userSpaceOnUse">
	<stop offset="0" style="stop-color:#FFFFFF"/>
	<stop offset="0.7742" style="stop-color:#FBED26"/>
	<stop offset="1" style="stop-color:#FFFFFF"/>
</radialGradient>
<ellipse cx="55.313" cy="47.579" rx="42.5" ry="43.578" id="el_O48M7IIJQ6"/>
<radialGradient id="SVGID_2_" cx="141.04" cy="472.667" r="27.25" gradientTransform="matrix(1.4963 0 0 -1.5343 -155.7241 772.7927)" gradientUnits="userSpaceOnUse">
	<stop offset="0" style="stop-color:#FFFFFF"/>
	<stop offset="0.7742" style="stop-color:#D7D9BE"/>
</radialGradient>
<ellipse cx="55.313" cy="47.579" rx="40.775" ry="41.809" id="el_3uAZz9lgam"/>
<path d="M85.116,512.077c1.652,0,2.992-1.374,2.992-3.068v-12.785c0-1.693-1.34-3.067-2.992-3.067h-8.529&#10;&#9;L66.353,353.4h2.385c4.854,0,8.789-4.035,8.789-9.012s-3.936-9.011-8.789-9.011h-2.449V112.404h7.467&#10;&#9;c3.598,0,6.514-2.991,6.514-6.68s-2.916-6.68-6.514-6.68h-2.256l20.414-30.689H18.595L39.01,99.044h-3.667&#10;&#9;c-3.598,0-6.514,2.991-6.514,6.68s2.917,6.68,6.514,6.68h9v222.974h-2.672c-4.853,0-8.788,4.034-8.788,9.011&#10;&#9;s3.936,9.012,8.788,9.012h2.611L34.73,493.156H23.521c-1.654,0-2.993,1.374-2.993,3.067v12.785c0,1.694,1.338,3.068,2.993,3.068&#10;&#9;h9.916L23.393,659h65.339l-10.76-146.923H85.116z" id="el_1iCxu30eRQ"/>
</svg>