<svg version="1.1" id="el_r7hn2ZguJ" xmlns="http://www.w3.org/2000/svg" xmlns:xlink="http://www.w3.org/1999/xlink" x="0px" y="0px" viewBox="0 0 350 662" enable-background="new 0 0 350 662" xml:space="preserve"><style>@-webkit-keyframes kf_el_J5zFjgZhRdo_an_lAtkKS6Df{0%{-webkit-transform: translate(111.93615913391113px, 252.09999084472656px) rotate(-10deg) translate(-111.93615913391113px, -252.09999084472656px);transform: translate(111.93615913391113px, 252.09999084472656px) rotate(-10deg) translate(-111.93615913391113px, -252.09999084472656px);}8.33%{-webkit-transform: translate(111.93615913391113px, 252.09999084472656px) rotate(0deg) translate(-111.93615913391113px, -252.09999084472656px);transform: translate(111.93615913391113px, 252.09999084472656px) rotate(0deg) translate(-111.93615913391113px, -252.09999084472656px);}16.67%{-webkit-transform: translate(111.93615913391113px, 252.09999084472656px) rotate(10deg) translate(-111.93615913391113px, -252.09999084472656px);transform: translate(111.93615913391113px, 252.09999084472656px) rotate(10deg) translate(-111.93615913391113px, -252.09999084472656px);}25%{-webkit-transform: translate(111.93615913391113px, 252.09999084472656px) rotate(0deg) translate(-111.93615913391113px, -252.09999084472656px);transform: translate(111.93615913391113px, 252.09999084472656px) rotate(0deg) translate(-111.93615913391113px, -252.09999084472656px);}33.33%{-webkit-transform: translate(111.93615913391113px, 252.09999084472656px) rotate(-10deg) translate(-111.93615913391113px, -252.09999084472656px);transform: translate(111.93615913391113px, 252.09999084472656px) rotate(-10deg) translate(-111.93615913391113px, -252.09999084472656px);}41.67%{-webkit-transform: translate(111.93615913391113px, 252.09999084472656px) rotate(0deg) translate(-111.93615913391113px, -252.09999084472656px);transform: translate(111.93615913391113px, 252.09999084472656px) rotate(0deg) translate(-111.93615913391113px, -252.09999084472656px);}50%{-webkit-transform: translate(111.93615913391113px, 252.09999084472656px) rotate(10deg) translate(-111.93615913391113px, -252.09999084472656px);transform: translate(111.93615913391113px, 252.09999084472656px) rotate(10deg) translate(-111.93615913391113px, -252.09999084472656px);}58.33%{-webkit-transform: translate(111.93615913391113px, 252.09999084472656px) rotate(0deg) translate(-111.93615913391113px, -252.09999084472656px);transform: translate(111.93615913391113px, 252.09999084472656px) rotate(0deg) translate(-111.93615913391113px, -252.09999084472656px);}66.67%{-webkit-transform: translate(111.93615913391113px, 252.09999084472656px) rotate(-10deg) translate(-111.93615913391113px, -252.09999084472656px);transform: translate(111.93615913391113px, 252.09999084472656px) rotate(-10deg) translate(-111.93615913391113px, -252.09999084472656px);}75%{-webkit-transform: translate(111.93615913391113px, 252.09999084472656px) rotate(0deg) translate(-111.93615913391113px, -252.09999084472656px);transform: translate(111.93615913391113px, 252.09999084472656px) rotate(0deg) translate(-111.93615913391113px, -252.09999084472656px);}83.33%{-webkit-transform: translate(111.93615913391113px, 252.09999084472656px) rotate(10deg) translate(-111.93615913391113px, -252.09999084472656px);transform: translate(111.93615913391113px, 252.09999084472656px) rotate(10deg) translate(-111.93615913391113px, -252.09999084472656px);}91.67%{-webkit-transform: translate(111.93615913391113px, 252.09999084472656px) rotate(0deg) translate(-111.93615913391113px, -252.09999084472656px);transform: translate(111.93615913391113px, 252.09999084472656px) rotate(0deg) translate(-111.93615913391113px, -252.09999084472656px);}100%{-webkit-transform: translate(111.93615913391113px, 252.09999084472656px) rotate(-10deg) translate(-111.93615913391113px, -252.09999084472656px);transform: translate(111.93615913391113px, 252.09999084472656px) rotate(-10deg) translate(-111.93615913391113px, -252.09999084472656px);}}@keyframes kf_el_J5zFjgZhRdo_an_lAtkKS6Df{0%{-webkit-transform: translate(111.93615913391113px, 252.09999084472656px) rotate(-10deg) translate(-111.93615913391113px, -252.09999084472656px);transform: translate(111.93615913391113px, 252.09999084472656px) rotate(-10deg) translate(-111.93615913391113px, -252.09999084472656px);}8.33%{-webkit-transform: translate(111.93615913391113px, 252.09999084472656px) rotate(0deg) translate(-111.93615913391113px, -252.09999084472656px);transform: translate(111.93615913391113px, 252.09999084472656px) rotate(0deg) translate(-111.93615913391113px, -252.09999084472656px);}16.67%{-webkit-transform: translate(111.93615913391113px, 252.09999084472656px) rotate(10deg) translate(-111.93615913391113px, -252.09999084472656px);transform: translate(111.93615913391113px, 252.09999084472656px) rotate(10deg) translate(-111.93615913391113px, -252.09999084472656px);}25%{-webkit-transform: translate(111.93615913391113px, 252.09999084472656px) rotate(0deg) translate(-111.93615913391113px, -252.09999084472656px);transform: translate(111.93615913391113px, 252.09999084472656px) rotate(0deg) translate(-111.93615913391113px, -252.09999084472656px);}33.33%{-webkit-transform: translate(111.93615913391113px, 252.09999084472656px) rotate(-10deg) translate(-111.93615913391113px, -252.09999084472656px);transform: translate(111.93615913391113px, 252.09999084472656px) rotate(-10deg) translate(-111.93615913391113px, -252.09999084472656px);}41.67%{-webkit-transform: translate(111.93615913391113px, 252.09999084472656px) rotate(0deg) translate(-111.93615913391113px, -252.09999084472656px);transform: translate(111.93615913391113px, 252.09999084472656px) rotate(0deg) translate(-111.93615913391113px, -252.09999084472656px);}50%{-webkit-transform: translate(111.93615913391113px, 252.09999084472656px) rotate(10deg) translate(-111.93615913391113px, -252.09999084472656px);transform: translate(111.93615913391113px, 252.09999084472656px) rotate(10deg) translate(-111.93615913391113px, -252.09999084472656px);}58.33%{-webkit-transform: translate(111.93615913391113px, 252.09999084472656px) rotate(0deg) translate(-111.93615913391113px, -252.09999084472656px);transform: translate(111.93615913391113px, 252.09999084472656px) rotate(0deg) translate(-111.93615913391113px, -252.09999084472656px);}66.67%{-webkit-transform: translate(111.93615913391113px, 252.09999084472656px) rotate(-10deg) translate(-111.93615913391113px, -252.09999084472656px);transform: translate(111.93615913391113px, 252.09999084472656px) rotate(-10deg) translate(-111.93615913391113px, -252.09999084472656px);}75%{-webkit-transform: translate(111.93615913391113px, 252.09999084472656px) rotate(0deg) translate(-111.93615913391113px, -252.09999084472656px);transform: translate(111.93615913391113px, 252.09999084472656px) rotate(0deg) translate(-111.93615913391113px, -252.09999084472656px);}83.33%{-webkit-transform: translate(111.93615913391113px, 252.09999084472656px) rotate(10deg) translate(-111.93615913391113px, -252.09999084472656px);transform: translate(111.93615913391113px, 252.09999084472656px) rotate(10deg) translate(-111.93615913391113px, -252.09999084472656px);}91.67%{-webkit-transform: translate(111.93615913391113px, 252.09999084472656px) rotate(0deg) translate(-111.93615913391113px, -252.09999084472656px);transform: translate(111.93615913391113px, 252.09999084472656px) rotate(0deg) translate(-111.93615913391113px, -252.09999084472656px);}100%{-webkit-transform: translate(111.93615913391113px, 252.09999084472656px) rotate(-10deg) translate(-111.93615913391113px, -252.09999084472656px);transform: translate(111.93615913391113px, 252.09999084472656px) rotate(-10deg) translate(-111.93615913391113px, -252.09999084472656px);}}#el_r7hn2ZguJ *{-webkit-animation-duration: 6s;animation-duration: 6s;-webkit-animation-iteration-count: infinite;animation-iteration-count: infinite;-webkit-animation-timing-function: cubic-bezier(0, 0, 1, 1);animation-timing-function: cubic-bezier(0, 0, 1, 1);}#el_TNFrVka-Wg{fill: #FFFFFF;stroke: #231F20;stroke-width: 0.3;}#el__ob17VIYvk{fill: #FFFFFF;stroke: #231F20;stroke-width: 0.3;}#el_giXPRcG9OP{fill: #FFFFFF;stroke: #231F20;stroke-width: 0.3;}#el_kBzHDzh8m0{opacity: 0.07;fill: #020202;}#el_RCd86KyuK5{fill: #020202;}#el_mra7nVoBWG{fill: #F3C67B;}#el_8RshflK_v0{fill: #1E2958;}#el_JOkPUyg5_U{fill: #1E4383;}#el_O5c5tWPxbs{fill: #F3C67B;}#el_GV7g9jq4Yt{fill: #1E4383;}#el_BMozZMw9_Y{fill: #020202;}#el_hC5ESxNGO6{fill: #1E2958;}#el_slQ5Rq6lwn{fill: #1E2958;}#el_9R1ahFFQe_{fill: #233E7A;}#el_Mvv1uQ-xeMx{fill: #FFFFFF;stroke: #231F20;stroke-width: 0.3;}#el_vLgzGlMbNQi{fill: #7A9FD3;}#el_KwQ5k3L4ju_{fill: #FFFFFF;stroke: #231F20;stroke-width: 0.3;}#el_3atBsxtQWEs{fill: #FFFFFF;stroke: #231F20;stroke-width: 0.3;}#el_M3bk30gy0TD{fill: #F3C67B;}#el__MjgxWaN3sO{fill: #F3C67B;}#el_18SyS-KBQSP{fill: #0E0F0F;}#el_8KGWQTQ6l05{fill: #F3C67B;}#el_cjwEuR4DAzk{fill: none;stroke: #020202;stroke-width: 0.3;}#el_8U5q0WTANHC{fill: #1E2958;}#el_5gQ3ahUp8tO{fill: none;stroke: #020202;stroke-width: 0.3;}#el_Lgw1cXqEA2Z{fill: none;stroke: #020202;stroke-width: 0.3;}#el_8b_vrIQOteb{fill: none;stroke: #020202;stroke-width: 0.3;}#el_OvPa5rpCpnb{fill: none;stroke: #020202;stroke-width: 0.3;}#el_D5MZHfnMyq-{fill: none;stroke: #020202;stroke-width: 0.3;}#el_5qf7wYE3TpD{fill: none;stroke: #020202;stroke-width: 0.3;}#el_OtotxaBZjJu{fill: none;stroke: #020202;stroke-width: 0.3;}#el_JVe-jGstbA2{fill: #1E2958;}#el_ng5VWYLfR-W{fill: #7A9FD3;}#el_60JIUkrsWSC{fill: #7A9FD3;}#el_OFcS49rqhK2{fill: #1E2958;}#el_aQAJNGYGObG{fill: #7A9FD3;}#el_EKgjHbZlfki{fill: #1E2958;}#el_ztEn7Lf3QaJ{fill: #7A9FD3;}#el_mhkjoINK8_Y{fill: #1E2958;}#el_vF5_mvTxXDp{fill: #00AEC0;}#el_BiORUohdBkD{fill: #00AEC0;}#el_pZRcCi4Q3A8{fill: #00AEC0;}#el_q0__ix5-z9d{fill: #82A5D5;}#el_83TQPoYPPzY{fill: #F0F4FB;}#el_MXCgIzIiIgR{fill: #0B0C0C;}#el_SXG2BBcm7K6{fill: none;stroke: #020202;stroke-width: 0.3;}#el_jY_s5EDDVTb{fill: none;}#el_v49YVz7igT1{fill: #F3C67B;}#el_4AkWyyTIxla{fill: none;stroke: #020202;stroke-width: 0.3;}#el_7LwkqhK2qUN{fill: none;stroke: #020202;stroke-width: 0.3;}#el_yW4HEAvPu2V{fill: #020202;}#el_bFYGFv0cO9h{fill: #FFFFFF;stroke: #231F20;stroke-width: 0.3;}#el_Y87bP1jIZTp{fill: none;stroke: #020202;stroke-width: 0.3;}#el_cz51r6Gzdkq{fill: #1E2958;}#el_Z_lINUHJgpv{fill: #FFFFFF;stroke: #231F20;stroke-width: 0.3;}#el_GLfSRMFPzhH{fill: #FFFFFF;stroke: #231F20;stroke-width: 0.3;}#el_aOPavrXhYaj{fill: #FFFFFF;stroke: #231F20;stroke-width: 0.3;}#el_5rT01KLb76V{fill: #FFFFFF;stroke: #231F20;stroke-width: 0.3;}#el_LsSwp5qGGR2{fill: #F3C67B;}#el_Tgt--o4NRRF{fill: none;}#el_eLNywVENNZc{fill: none;stroke: #020202;stroke-width: 0.3;}#el_4aZjFI_l1iF{fill: none;stroke: #020202;stroke-width: 0.3;}#el_ioSLN0_8hA7{fill: #7A9FD3;}#el_7mV07Fsojtl{fill: #F3C67B;}#el_J8G9ul1xqnQ{fill: none;}#el_FCUu_SN-TvE{fill: none;stroke: #020202;stroke-width: 0.3;}#el_mY2uLELICCI{fill: none;stroke: #020202;stroke-width: 0.3;}#el_WoRqMvum5p0{fill: #7A9FD3;}#el_J5zFjgZhRdo_an_lAtkKS6Df{-webkit-animation-fill-mode: backwards;animation-fill-mode: backwards;-webkit-transform: translate(111.93615913391113px, 252.09999084472656px) rotate(-10deg) translate(-111.93615913391113px, -252.09999084472656px);transform: translate(111.93615913391113px, 252.09999084472656px) rotate(-10deg) translate(-111.93615913391113px, -252.09999084472656px);-webkit-animation-name: kf_el_J5zFjgZhRdo_an_lAtkKS6Df;animation-name: kf_el_J5zFjgZhRdo_an_lAtkKS6Df;-webkit-animation-timing-function: cubic-bezier(0, 0, 1, 1);animation-timing-function: cubic-bezier(0, 0, 1, 1);}</style>
<g id="el_RjStew4A9v">
	<path stroke-miterlimit="10" d="M111.936,250.686&#10;&#9;&#9;c18.063-4.505,25.703-15.574,34.755-27.672c4.343-5.921,52.165-86.233,12.063-103.866c-15.962,11.068-34.864,49.423-46.818,90.223&#10;&#9;&#9;c-6.769,3.046-12.269,11.963-13.901,16.788C90.256,249.141,111.936,250.686,111.936,250.686z" id="el_TNFrVka-Wg"/>
</g>
<path id="el__ob17VIYvk" stroke-miterlimit="10" d="M104.975,252.101&#10;&#9;c23.223-3.218,31.579-15.444,41.716-29.087c4.343-5.921,52.165-86.233,12.064-103.866c-16.058,11.068-35.094,49.938-47.037,90.995&#10;&#9;l-0.126,0.772"/>
<path id="el_giXPRcG9OP" stroke-miterlimit="10" d="M104.975,252.101&#10;&#9;c23.223-3.218,31.579-15.444,41.716-29.087c4.343-5.921,52.165-86.233,12.064-103.866c-16.058,11.068-35.094,49.938-47.037,90.995&#10;&#9;l-0.126,0.772"/>
<path id="el_kBzHDzh8m0" enable-background="new    " d="M209.161,614.924&#10;&#9;c75.573,0,136.839,10.296,136.839,23.038S284.734,661,209.161,661c-75.571,0-136.835-10.296-136.835-23.038&#10;&#9;S133.59,614.924,209.161,614.924z"/>
<rect id="el_RCd86KyuK5" x="219.732" y="645.685" width="35.703" height="1.158"/>
<rect id="el_mra7nVoBWG" x="236.096" y="613.121" width="19.342" height="22.781"/>
<path id="el_8RshflK_v0" d="M219.732,645.685c0-1.931-0.274-6.179,2.209-7.466c1.813-1.028,2.998-0.515,4.057-0.899&#10;&#9;c1.311-0.388,8.641-9.524,10.084-11.197h13.404l5.938,6.178v13.386L219.732,645.685L219.732,645.685z"/>
<path id="el_JOkPUyg5_U" d="M257.961,267.031c13.787,123.3,11.025,249.046,3.721,354.456h-30.818&#10;&#9;c-11.09-101.55-22.154-219.959-25.641-354.456H257.961z"/>
<rect id="el_O5c5tWPxbs" x="142.473" y="613.765" width="23.881" height="22.781"/>
<path id="el_GV7g9jq4Yt" d="M160.027,267.031c-7.984,65.511-14.743,132.694-17.555,195.247&#10;&#9;c-2.606,57.917-1.557,111.717-1.288,159.209l28.817,3.989c14.063-56.76,16.062-118.28,17.84-165.517&#10;&#9;c14.191-47.492,24.228-85.847,29.281-129.993c2.129-18.662-5.365-43.502-3.049-62.937h-54.046V267.031z"/>
<rect id="el_BMozZMw9_Y" x="98.764" y="644.654" width="67.59" height="1.287"/>
<path id="el_hC5ESxNGO6" d="M166.354,644.654H98.759c0,0,0.315-5.792,3.743-6.95c3.426-1.029,28.558-6.436,28.558-6.436&#10;&#9;s6.638-4.634,8.515-5.792c1.878-1.157,3.629-0.644,7.089,1.415l8.214,4.893h11.483L166.354,644.654z"/>
<path id="el_slQ5Rq6lwn" d="M202.979,340.136c0,0-30.707,109.016-30.858,118.538c-0.153,9.524-0.025,144.666-5.766,158.823&#10;&#9;c-1.128,2.574-0.832,5.406,0.773,7.594l2.878,0.387c14.067-56.76,16.065-118.28,17.843-165.517&#10;&#9;c9.106-30.503,16.512-57.273,21.979-84.174h-0.081L202.979,340.136z"/>
<path id="el_9R1ahFFQe_" d="M252.691,615.567c2.303-20.079-0.768-148.014-3.074-195.376"/>
<path id="el_Mvv1uQ-xeMx" stroke-miterlimit="10" d="M142.977,423.795&#10;&#9;c1.458-21.236,14.596-303.489,15.351-305.291c5.903-5.277,12.925-9.267,20.538-11.455l57.087-2.831&#10;&#9;c22.302,5.021,33.393,12.999,33.393,12.999l-10.041,78.253l11.801,241.453C237.518,437.824,179.645,432.161,142.977,423.795z"/>
<path id="el_vLgzGlMbNQi" d="M238.063,106.405l-32.846,55.602l-23.699-55.473l11.051-3.861h33.611L238.063,106.405z"/>
<path id="el_KwQ5k3L4ju_" stroke-miterlimit="10" d="M205.061,161.878l-25.627-20.979&#10;&#9;l4.02-9.138l-9.566-6.821l4.818-17.376"/>
<path id="el_3atBsxtQWEs" stroke-miterlimit="10" d="M205.061,161.878l29.145-20.979&#10;&#9;l-2.465-9.138l10.71-6.821l-1.854-17.376"/>
<path id="el_M3bk30gy0TD" d="M190.604,110.138l19.676,13.771l20.002-13.771l0.052-48.136l-36.011,5.02L190.604,110.138z"/>
<path id="el__MjgxWaN3sO" d="M207.824,8.975c6.926,0.386,27.783,1.673,27.467,28.958&#10;&#9;c-0.316,27.286-4.688,36.167-8.075,40.156c-4.337,5.148-11.267,10.683-28.135,12.484c-9.804-0.771-11.288-6.692-14.228-12.612&#10;&#9;c-2.34-4.763-6.949-14.158-5.902-41.443C179.996,9.232,200.891,8.975,207.824,8.975z"/>
<path id="el_18SyS-KBQSP" d="M226.505,25.321c2.433,1.544-2.928,22.781,8.328,21.623c7.34-11.326,8.715-25.355-0.763-31.147&#10;&#9;c-1.793-10.039-11.486-14.158-23.85-13.771c-7.133,0.129-15.035,6.693-23.138,6.821c-12.658,0-16.56,7.723-12.069,14.801&#10;&#9;c1.949,3.089,8.582,3.732,11.467,2.703c4.021-1.545,14.687,5.663,22.332,5.405C217.523,31.499,220.536,26.736,226.505,25.321z"/>
<path id="el_8KGWQTQ6l05" d="M232.895,49.646c0.775-1.674,2.323-2.961,4.156-3.218c2.133-0.515,5.957,0.772,5.795,6.821&#10;&#9;s-5.304,11.197-8.457,10.297C231.232,62.774,232.895,49.646,232.895,49.646z"/>
<path id="el_cjwEuR4DAzk" stroke-miterlimit="10" d="M235.17,52.735&#10;&#9;c0-0.772,3.029-4.247,5.469-1.802"/>
<path id="el_8U5q0WTANHC" d="M184.87,48.616c1.521,0.258,2.675,1.545,2.789,3.089c0.208,1.545-0.704,2.961-2.026,2.832&#10;&#9;c-1.521-0.258-2.672-1.416-2.785-2.96C182.631,49.903,183.541,48.616,184.87,48.616z"/>
<path id="el_5gQ3ahUp8tO" stroke-miterlimit="10" d="M189.464,42.31&#10;&#9;c1.36,0.516,2.306,1.802,2.481,3.347c0.476,5.405-1.541,15.702-1.406,17.633c0.184,2.831,4.331,2.574,4.331,2.574"/>
<path id="el_Lgw1cXqEA2Z" stroke-miterlimit="10" d="M200.785,73.328&#10;&#9;c0,0-4.753,3.475-12.57-0.386"/>
<path id="el_8b_vrIQOteb" stroke-miterlimit="10" d="M212.387,42.696&#10;&#9;c-1.621-0.644-6.324-0.387-9.132,0.129"/>
<path id="el_OvPa5rpCpnb" stroke-miterlimit="10" d="M227.491,13.094&#10;&#9;c2.558,8.752-3.496,20.207-13.28,22.009"/>
<path id="el_D5MZHfnMyq-" stroke-miterlimit="10" d="M232.883,64.705&#10;&#9;c-1.621,7.465-3.795,11.197-5.677,13.385c-4.333,5.148-11.265,10.683-28.132,12.484"/>
<path id="el_5qf7wYE3TpD" stroke-miterlimit="10" d="M180.648,42.825&#10;&#9;c1.586-0.644,6.281-0.772,9.121-0.387"/>
<path id="el_OtotxaBZjJu" stroke-miterlimit="10" d="M198.57,76.546&#10;&#9;c-1.771,0.772-3.66,1.158-5.582,1.287"/>
<path id="el_JVe-jGstbA2" d="M204.625,130.603l-4.266,19.949l4.865,11.455l6.779-11.584l-0.904-19.82l6.346-5.921&#10;&#9;l-4.055-6.821l-4.76,3.732l-4.124-3.732l-5.223,6.821L204.625,130.603z"/>
<path id="el_ng5VWYLfR-W" d="M208.686,121.593l-13.447,6.692l-9.702-23.167l4.397-1.544L208.686,121.593z"/>
<path id="el_60JIUkrsWSC" d="M208.627,121.593l12.33,6.564l13.598-23.039l-4.141-1.544L208.627,121.593z"/>
<path id="el_OFcS49rqhK2" d="M206.736,48.616c1.521,0.258,2.675,1.545,2.785,3.089c0.209,1.545-0.701,2.961-2.025,2.832&#10;&#9;c-1.52-0.258-2.672-1.416-2.786-2.96C204.499,49.903,205.408,48.616,206.736,48.616z"/>
<path id="el_aQAJNGYGObG" d="M186.208,184.145h-0.843h-0.723l0.065,0.771l0.132,1.416l0.069,0.644h0.682h0.556l0,0h0.271&#10;&#9;l0,0c2.161-0.129,3.398-0.258,5.004-1.931c0.78-0.9,1.294-2.06,1.488-3.218c1.535-7.079-2.616-23.167-6.487-26.899l-0.476-0.386&#10;&#9;l-0.49,0.386l-1.078,1.029l-0.561,0.516l0.563,0.515c0,0,0.632,0.644,1.972,4.118c2.277,5.921,5.049,13.386,3.811,19.821&#10;&#9;c-0.083,0.771-0.363,1.544-0.811,2.188C188.52,183.887,187.678,184.016,186.208,184.145z"/>
<path id="el_EKgjHbZlfki" d="M185.189,187.877c1.623-0.129,2.84-1.159,2.733-2.446c-0.104-1.286-1.541-2.316-3.167-2.188&#10;&#9;s-2.839,1.287-2.729,2.574C182.139,187.104,183.568,188.005,185.189,187.877z"/>
<path id="el_ztEn7Lf3QaJ" d="M171.331,185.688l0.844-0.129h0.722l0.054,0.644l0.116,1.416l0.063,0.772h-0.683l-0.555,0.129&#10;&#9;l0,0h-0.272l0,0c-2.152,0.257-3.386,0.386-5.247-0.901c-0.927-0.901-1.628-1.802-2.027-2.96c-2.737-6.693-1.438-23.296,1.739-27.672&#10;&#9;l0.386-0.515l0.56,0.386l1.218,0.772l0.644,0.386l-0.466,0.644c0,0-0.515,0.644-1.218,4.376c-1.215,6.178-2.631,14.158-0.287,20.336&#10;&#9;c0.21,0.644,0.609,1.287,1.155,1.802C169.032,185.946,169.868,185.817,171.331,185.688z"/>
<path id="el_mhkjoINK8_Y" d="M173.026,189.292c-1.622,0.129-3.024-0.771-3.13-2.059s1.128-2.446,2.752-2.574&#10;&#9;c1.627-0.258,3.029,0.644,3.131,2.059C175.882,188.005,174.648,189.035,173.026,189.292z"/>
<path id="el_vF5_mvTxXDp" d="M171.811,139.998c-1.105,1.673-2.117,3.604-3.035,5.405c-0.883,1.931-1.621,3.604-2.229,5.148&#10;&#9;c-0.329,0.901-0.637,1.802-0.929,2.574c-0.292,0.9-0.522,1.673-0.738,2.316c-0.269,0.772-0.494,1.416-0.677,2.188&#10;&#9;c-0.162,0.644-0.247,1.158-0.3,1.415l-0.219,1.416l1.378,0.258l1.168,0.257l1.11,0.258l1.354,0.258l0.341-1.287&#10;&#9;c0.109-0.516,0.23-0.901,0.381-1.545l0,0c0.122-0.386,0.272-0.9,0.455-1.544c0.087-0.258,0.198-0.516,0.333-0.772&#10;&#9;c0.134-0.258,0.267-0.515,0.404-0.772c0.445-0.644,0.956-1.287,1.524-1.802c2.106-2.445,5.669-2.703,8.109-0.644&#10;&#9;c0.68,0.386,1.308,1.029,1.872,1.544c0.199,0.258,0.383,0.516,0.549,0.772c0.168,0.258,0.337,0.515,0.495,0.772&#10;&#9;c0.26,0.515,0.504,0.901,0.722,1.416c0.221,0.515,0.458,1.029,0.65,1.415l0.564,1.159l1.254-0.516l1.038-0.386l1.106-0.386&#10;&#9;l1.378-0.387l-0.489-1.415c-0.105-0.258-0.292-0.772-0.557-1.416c-0.321-0.644-0.686-1.416-1.092-2.06&#10;&#9;c-0.348-0.644-0.729-1.416-1.142-2.188c-0.442-0.772-0.907-1.545-1.388-2.317c-0.912-1.544-1.955-3.089-3.146-4.762&#10;&#9;c-1.255-1.673-2.596-3.347-4.014-5.02l-0.471-0.515l-0.693,0.128l-4.015,0.387h-0.706l-0.373,0.644h0.026V139.998z M177.174,146.562&#10;&#9;c-1.068-0.128-2.14,0-3.188,0.258l0.179-0.386l0,0c0.374-0.772,0.769-1.416,1.185-2.188c0.406,0.515,0.889,1.029,1.387,1.673&#10;&#9;L177.174,146.562z"/>
<path id="el_BiORUohdBkD" d="M173.57,141.414c-1.644-3.861-2.817-7.852-3.5-11.97c-1.252-6.693-0.804-13.644,1.306-20.207&#10;&#9;c2.119-6.436,6.868-11.713,13.062-14.415c2.147-1.03,4.403-1.674,6.715-2.06l0.584,3.604c-2.023,0.258-4,0.901-5.881,1.674&#10;&#9;c-5.281,2.445-9.321,6.95-11.121,12.484c-1.909,5.92-2.309,12.227-1.156,18.404c0.631,3.732,1.721,7.466,3.245,11.069&#10;&#9;L173.57,141.414z"/>
<path id="el_pZRcCi4Q3A8" d="M244.572,159.304c3.746-4.634,7.814-16.217,8.715-28.444&#10;&#9;c0.518-5.663,0.072-11.454-1.314-16.989c-1.201-5.02-3.945-9.523-7.841-12.999c-3.44-2.831-8.024-4.634-14.022-5.148l0.265-3.604&#10;&#9;c6.771,0.515,12.015,2.703,16,6.049c4.476,3.861,7.63,9.01,9.021,14.802c1.502,5.92,1.987,12.099,1.439,18.276&#10;&#9;c-0.953,12.741-5.396,25.227-9.508,30.374L244.572,159.304z"/>
<path id="el_q0__ix5-z9d" d="M245.402,175.264c4.427-2.832,5.738-8.752,2.932-13.128c-0.002,0-0.005,0-0.007,0&#10;&#9;c-0.068-0.129-0.146-0.258-0.22-0.387c-3.181-4.505-9.282-5.663-13.854-2.574c-4.429,2.832-5.737,8.752-2.922,13.128&#10;&#9;c0.069,0.129,0.142,0.258,0.218,0.387C234.729,177.194,240.835,178.353,245.402,175.264z"/>
<path id="el_83TQPoYPPzY" d="M243.548,172.561c2.956-1.802,3.833-5.792,1.958-8.752c-0.002,0-0.004,0-0.004,0&#10;&#9;c-0.044-0.129-0.094-0.129-0.146-0.258c-2.117-2.96-6.207-3.732-9.265-1.802c-2.959,1.931-3.835,5.921-1.958,8.881&#10;&#9;c0.001,0,0.002,0,0.004,0c0.043,0.129,0.092,0.129,0.146,0.258C236.4,173.848,240.488,174.62,243.548,172.561z M242.273,170.759&#10;&#9;c-2.01,1.287-4.687,0.772-6.084-1.158c-1.313-1.931-0.846-4.505,1.049-5.921h0.146c2.007-1.416,4.694-0.9,6.082,1.158&#10;&#9;c1.317,1.931,0.853,4.505-1.04,5.792c-0.002,0-0.002,0-0.002,0l-0.146,0.129H242.273z"/>
<path id="el_MXCgIzIiIgR" d="M192.335,275.14l-9.577-74.007c-0.597-4.504-5.035-9.138-9.894-10.296l-0.231-1.673&#10;&#9;c-0.361-2.832-3.085-5.664-6.054-6.307l-23.323-5.148c-2.968-0.644-5.1,1.158-4.739,3.861l0.229,1.802l-4.383-1.03&#10;&#9;c-4.89-1.029-8.397,1.803-7.802,6.436l9.566,74.006c0.596,4.505,5.084,9.139,9.976,10.297l38.43,8.366&#10;&#9;C189.42,282.604,192.934,279.644,192.335,275.14z"/>
<path id="el_SXG2BBcm7K6" stroke-miterlimit="10" d="M149.891,175.135&#10;&#9;c0.459-2.316,3.07-3.604,5.834-3.089c2.764,0.515,4.632,2.831,4.174,5.148c-0.457,2.188-3.069,3.604-5.833,2.96&#10;&#9;C151.303,179.64,149.434,177.322,149.891,175.135z"/>
<line id="el_jY_s5EDDVTb" x1="205.229" y1="162.007" x2="201.977" y2="433.19"/>
<path id="el_v49YVz7igT1" d="M217.445,245.15c-3.848-1.287-11.498-5.276-14.646-6.178&#10;&#9;c-1.022-0.257-3.065-0.386-8.057-1.029c-3.394-0.644-6.739-1.545-10.022-2.574c-0.199,1.158,0.242,2.445,1.176,3.347&#10;&#9;c1.553,1.158,4.799,3.218,6.994,3.604c2.193,0.515,5.644,0.772,6.397,1.158c-2.897,0.901-5.863,1.673-5.863,1.673&#10;&#9;c-3.077-0.771-6.95-1.931-9.204-2.574c-1.416-1.158-2.895-2.188-4.428-3.217c-0.8-1.416-1.939-2.445-3.305-3.218&#10;&#9;c-0.521,0.772-0.896,1.673-1.104,2.574c-0.33-0.258-0.773-0.516-1.216-0.387l0.202,4.247l1.915,3.861v1.802l5.177,7.079l2.965,3.347&#10;&#9;l10.258,1.287c0,0,15.233-1.03,17.48-1.03l4.703,0.129L217.445,245.15z"/>
<path id="el_4AkWyyTIxla" stroke-miterlimit="10" d="M175.387,238.716l0.495,2.059&#10;&#9;l6.298,6.693l9.094,2.059"/>
<path id="el_7LwkqhK2qUN" stroke-miterlimit="10" d="M176.063,246.953l4.772,4.633&#10;&#9;l8.228,2.188"/>
<path id="el_yW4HEAvPu2V" d="M220.014,261.883l0.625-18.534l-6.613-0.9l-3.383,17.633L220.014,261.883z"/>
<path id="el_bFYGFv0cO9h" stroke-miterlimit="10" d="M263.752,224.815&#10;&#9;c-2.314-19.178-2.227-8.881-4.055-32.435c0,0-0.223-52.77,9.644-75.164c15.443,8.366,21.347,53.155,25.177,118.538&#10;&#9;c0,0,1.988,26.514-11.834,30.117c-13.822,3.604-74.781,0.387-74.781,0.387l2.217-27.801l53.249-1.931L263.752,224.815z"/>
<path id="el_Y87bP1jIZTp" stroke-miterlimit="10" d="M274.438,238.716&#10;&#9;c0,0,18.299,2.059,13.725,3.732c-4.573,1.673-18.299-2.06-13.725,1.673c2.945,2.703,5.265,5.921,6.771,9.653"/>
<path id="el_cz51r6Gzdkq" d="M195.773,47.587c1.877-0.386,15.752-2.574,22.813-0.258c1.532,3.732-1.869,11.069-3.146,11.841&#10;&#9;c-1.278,0.772-13.098,0.901-15.408,0.516c-2.297-0.129-3.487-8.366-3.828-9.396c-0.098-0.387-0.174-0.644-0.247-1.03&#10;&#9;c-1.258-0.515-2.64-0.515-3.896,0c-0.066,0.387-0.148,0.644-0.246,1.03c-0.342,1.029-1.535,9.267-3.834,9.396&#10;&#9;c-2.293,0.386-7.361,0.257-8.641-0.516c-1.275-0.771-4.676-8.108-3.143-11.712c6.93-2.316,13.681-0.257,15.947,0&#10;&#9;c1.178-0.257,2.436-0.257,3.612,0L195.773,47.587z M190.202,48.616c-1.317-0.257-6.081-2.188-11.929-0.128&#10;&#9;c-1.254,2.96,1.527,8.88,2.569,9.523c1.044,0.644,3.942,0.772,5.819,0.516c1.874-0.129,2.838-6.822,3.122-7.723&#10;&#9;c0.196-0.772,0.331-1.545,0.403-2.188H190.202z M197.846,48.616c0.076,0.644,0.211,1.416,0.404,2.188&#10;&#9;c0.281,0.772,1.255,7.594,3.127,7.594c1.874,0.386,11.529,0.257,12.571-0.387c1.04-0.644,3.819-6.563,2.569-9.523&#10;&#9;c-5.836-2.06-17.361-0.129-18.681,0.128H197.846z"/>
<g id="el_J5zFjgZhRdo_an_lAtkKS6Df" data-animator-group="true" data-animator-type="1"><g id="el_J5zFjgZhRdo">
	<defs>
		<rect id="SVGID_1_" x="23" y="128.285" width="88.936" height="124.33"/>
	</defs>
	<clipPath id="SVGID_2_">
		<use xlink:href="#SVGID_1_" overflow="visible"/>
	</clipPath>
	<g clip-path="url(#SVGID_2_)" id="el_3IDz5JEzYm6">
		<path id="el_Z_lINUHJgpv" stroke-miterlimit="10" d="M111.6,210.915&#10;&#9;&#9;&#9;c-13.781-21.365-34.513-45.305-35.377-46.463c-5.024,3.861-11.317,12.999-16.771,16.989c5.692,16.346,32.479,64.481,45.522,70.659&#10;&#9;&#9;&#9;"/>
		<path id="el_GLfSRMFPzhH" stroke-miterlimit="10" d="M111.541,210.786&#10;&#9;&#9;&#9;c-7.997,3.732-15.077,19.692-12.487,26.385c2.59,6.821,6.05-7.851,8.645-12.87c2.595-5.019,5.188-0.901,3.893,6.563"/>
		<path id="el_aOPavrXhYaj" stroke-miterlimit="10" d="M111.6,210.915&#10;&#9;&#9;&#9;c-13.781-21.365-34.513-45.305-35.377-46.463c-5.024,3.861-11.317,12.999-16.771,16.989c5.692,16.346,32.479,64.481,45.522,70.659&#10;&#9;&#9;&#9;"/>
		<path id="el_5rT01KLb76V" stroke-miterlimit="10" d="M111.541,210.786&#10;&#9;&#9;&#9;c-7.997,3.732-15.077,19.692-12.487,26.385c2.59,6.821,6.05-7.851,8.645-12.87c2.595-5.019,5.188-0.901,3.893,6.563"/>
		<path id="el_LsSwp5qGGR2" d="M72.76,163.422c-0.385-1.802-4.185-14.157-4.51-15.315&#10;&#9;&#9;&#9;c-0.324-1.287-5.178-4.763-6.08-5.277c-0.906-0.515-4.821-3.475-5.821-5.148c-1.184-1.673-2.769-2.96-4.601-3.86&#10;&#9;&#9;&#9;c-1.217,0.386-0.81,5.276,1.026,7.207c1.837,1.931,3.5,2.96,4.333,3.99c0.564,0.9,0.914,1.931,1.019,3.089l-2.817,0.772&#10;&#9;&#9;&#9;c0,0-6.49-1.803-7.353-1.803c-0.864,0-5.292-2.316-5.292-2.316s-1.808-4.376-2.873-4.247c-0.536-0.129-1.027-0.386-1.565,0.515&#10;&#9;&#9;&#9;c-0.313-2.574-2.397-4.891-3.982-5.021c-0.406,0.129-0.95,1.159-0.95,1.159c-0.238-0.386-1.909-1.673-2.517-1.544&#10;&#9;&#9;&#9;c-0.373,0.129-0.661,0.386-0.766,0.773c-1.095-1.803-2.239-2.703-3.566-2.317c0.266,1.931,0.811,3.861,1.623,5.792&#10;&#9;&#9;&#9;c1.01,2.574,4.082,7.979,4.082,7.979l1.939,4.892c0,0,6.56,5.02,7.437,5.405c0.875,0.386,2.112,4.247,3.547,4.762&#10;&#9;&#9;&#9;c1.436,0.514,15.319,5.663,16.488,6.821c0.976,1.03,1.725,2.317,2.201,3.732C64.083,174.233,72.779,163.165,72.76,163.422z"/>
		<line id="el_Tgt--o4NRRF" x1="29.309" y1="136.78" x2="34.184" y2="150.81"/>
		<path id="el_eLNywVENNZc" stroke-miterlimit="10" d="M33.294,137.681l3.087,10.04&#10;&#9;&#9;&#9;l4.46,7.851"/>
		<path id="el_4aZjFI_l1iF" stroke-miterlimit="10" d="M57.907,158.402&#10;&#9;&#9;&#9;c-2.932-1.673-3.849-1.802-4.947-1.802c-1.1,0-4.954,0.129-4.954,0.129l-3.301-3.861c0,0-1.837-6.563-2.028-7.465&#10;&#9;&#9;&#9;c-0.19-0.9-1.472-4.247-2.753-5.019"/>
		<path id="el_ioSLN0_8hA7" d="M72.631,158.918l-13.9,12.227l4.217,6.05l15.196-9.268L72.631,158.918z"/>
		<path id="el_7mV07Fsojtl" d="M72.76,163.422c-0.385-1.802-4.185-14.157-4.51-15.315&#10;&#9;&#9;&#9;c-0.324-1.287-5.178-4.763-6.08-5.277c-0.906-0.515-4.821-3.475-5.821-5.148c-1.184-1.673-2.769-2.96-4.601-3.86&#10;&#9;&#9;&#9;c-1.217,0.386-0.81,5.276,1.026,7.207c1.837,1.931,3.5,2.96,4.333,3.99c0.564,0.9,0.914,1.931,1.019,3.089l-2.817,0.772&#10;&#9;&#9;&#9;c0,0-6.49-1.803-7.353-1.803c-0.864,0-5.292-2.316-5.292-2.316s-1.808-4.376-2.873-4.247c-0.536-0.129-1.027-0.386-1.565,0.515&#10;&#9;&#9;&#9;c-0.313-2.574-2.397-4.891-3.982-5.021c-0.406,0.129-0.95,1.159-0.95,1.159c-0.238-0.386-1.909-1.673-2.517-1.544&#10;&#9;&#9;&#9;c-0.373,0.129-0.661,0.386-0.766,0.773c-1.095-1.803-2.239-2.703-3.566-2.317c0.266,1.931,0.811,3.861,1.623,5.792&#10;&#9;&#9;&#9;c1.01,2.574,4.082,7.979,4.082,7.979l1.939,4.892c0,0,6.56,5.02,7.437,5.405c0.875,0.386,2.112,4.247,3.547,4.762&#10;&#9;&#9;&#9;c1.436,0.514,15.319,5.663,16.488,6.821c0.976,1.03,1.725,2.317,2.201,3.732C64.083,174.233,72.779,163.165,72.76,163.422z"/>
		<line id="el_J8G9ul1xqnQ" x1="29.309" y1="136.78" x2="34.184" y2="150.81"/>
		<path id="el_FCUu_SN-TvE" stroke-miterlimit="10" d="M33.294,137.681l3.087,10.04&#10;&#9;&#9;&#9;l4.46,7.851"/>
		<path id="el_mY2uLELICCI" stroke-miterlimit="10" d="M57.907,158.402&#10;&#9;&#9;&#9;c-2.932-1.673-3.849-1.802-4.947-1.802c-1.1,0-4.954,0.129-4.954,0.129l-3.301-3.861c0,0-1.837-6.563-2.028-7.465&#10;&#9;&#9;&#9;c-0.19-0.9-1.472-4.247-2.753-5.019"/>
		<path id="el_WoRqMvum5p0" d="M72.631,158.918l-13.9,12.227l4.217,6.05l15.196-9.268L72.631,158.918z"/>
	</g>
</g></g>
</svg>