<svg version="1.1" id="el_zeUOaL7wQ" xmlns="http://www.w3.org/2000/svg" xmlns:xlink="http://www.w3.org/1999/xlink" x="0px" y="0px" viewBox="0 0 263 562" enable-background="new 0 0 263 562" xml:space="preserve"><style>@-webkit-keyframes kf_el_Fxv5JPkSW1w_an_7-uqxQuod{0%{-webkit-transform: translate(101.25461196899414px, 218.95199584960938px) rotate(7deg) translate(-101.25461196899414px, -218.95199584960938px);transform: translate(101.25461196899414px, 218.95199584960938px) rotate(7deg) translate(-101.25461196899414px, -218.95199584960938px);}8.33%{-webkit-transform: translate(101.25461196899414px, 218.95199584960938px) rotate(0deg) translate(-101.25461196899414px, -218.95199584960938px);transform: translate(101.25461196899414px, 218.95199584960938px) rotate(0deg) translate(-101.25461196899414px, -218.95199584960938px);}16.67%{-webkit-transform: translate(101.25461196899414px, 218.95199584960938px) rotate(-7deg) translate(-101.25461196899414px, -218.95199584960938px);transform: translate(101.25461196899414px, 218.95199584960938px) rotate(-7deg) translate(-101.25461196899414px, -218.95199584960938px);}25%{-webkit-transform: translate(101.25461196899414px, 218.95199584960938px) rotate(0deg) translate(-101.25461196899414px, -218.95199584960938px);transform: translate(101.25461196899414px, 218.95199584960938px) rotate(0deg) translate(-101.25461196899414px, -218.95199584960938px);}33.33%{-webkit-transform: translate(101.25461196899414px, 218.95199584960938px) rotate(7deg) translate(-101.25461196899414px, -218.95199584960938px);transform: translate(101.25461196899414px, 218.95199584960938px) rotate(7deg) translate(-101.25461196899414px, -218.95199584960938px);}41.67%{-webkit-transform: translate(101.25461196899414px, 218.95199584960938px) rotate(0deg) translate(-101.25461196899414px, -218.95199584960938px);transform: translate(101.25461196899414px, 218.95199584960938px) rotate(0deg) translate(-101.25461196899414px, -218.95199584960938px);}50%{-webkit-transform: translate(101.25461196899414px, 218.95199584960938px) rotate(-7deg) translate(-101.25461196899414px, -218.95199584960938px);transform: translate(101.25461196899414px, 218.95199584960938px) rotate(-7deg) translate(-101.25461196899414px, -218.95199584960938px);}58.33%{-webkit-transform: translate(101.25461196899414px, 218.95199584960938px) rotate(0deg) translate(-101.25461196899414px, -218.95199584960938px);transform: translate(101.25461196899414px, 218.95199584960938px) rotate(0deg) translate(-101.25461196899414px, -218.95199584960938px);}66.67%{-webkit-transform: translate(101.25461196899414px, 218.95199584960938px) rotate(7deg) translate(-101.25461196899414px, -218.95199584960938px);transform: translate(101.25461196899414px, 218.95199584960938px) rotate(7deg) translate(-101.25461196899414px, -218.95199584960938px);}75%{-webkit-transform: translate(101.25461196899414px, 218.95199584960938px) rotate(0deg) translate(-101.25461196899414px, -218.95199584960938px);transform: translate(101.25461196899414px, 218.95199584960938px) rotate(0deg) translate(-101.25461196899414px, -218.95199584960938px);}83.33%{-webkit-transform: translate(101.25461196899414px, 218.95199584960938px) rotate(-7deg) translate(-101.25461196899414px, -218.95199584960938px);transform: translate(101.25461196899414px, 218.95199584960938px) rotate(-7deg) translate(-101.25461196899414px, -218.95199584960938px);}91.67%{-webkit-transform: translate(101.25461196899414px, 218.95199584960938px) rotate(0deg) translate(-101.25461196899414px, -218.95199584960938px);transform: translate(101.25461196899414px, 218.95199584960938px) rotate(0deg) translate(-101.25461196899414px, -218.95199584960938px);}100%{-webkit-transform: translate(101.25461196899414px, 218.95199584960938px) rotate(7deg) translate(-101.25461196899414px, -218.95199584960938px);transform: translate(101.25461196899414px, 218.95199584960938px) rotate(7deg) translate(-101.25461196899414px, -218.95199584960938px);}}@keyframes kf_el_Fxv5JPkSW1w_an_7-uqxQuod{0%{-webkit-transform: translate(101.25461196899414px, 218.95199584960938px) rotate(7deg) translate(-101.25461196899414px, -218.95199584960938px);transform: translate(101.25461196899414px, 218.95199584960938px) rotate(7deg) translate(-101.25461196899414px, -218.95199584960938px);}8.33%{-webkit-transform: translate(101.25461196899414px, 218.95199584960938px) rotate(0deg) translate(-101.25461196899414px, -218.95199584960938px);transform: translate(101.25461196899414px, 218.95199584960938px) rotate(0deg) translate(-101.25461196899414px, -218.95199584960938px);}16.67%{-webkit-transform: translate(101.25461196899414px, 218.95199584960938px) rotate(-7deg) translate(-101.25461196899414px, -218.95199584960938px);transform: translate(101.25461196899414px, 218.95199584960938px) rotate(-7deg) translate(-101.25461196899414px, -218.95199584960938px);}25%{-webkit-transform: translate(101.25461196899414px, 218.95199584960938px) rotate(0deg) translate(-101.25461196899414px, -218.95199584960938px);transform: translate(101.25461196899414px, 218.95199584960938px) rotate(0deg) translate(-101.25461196899414px, -218.95199584960938px);}33.33%{-webkit-transform: translate(101.25461196899414px, 218.95199584960938px) rotate(7deg) translate(-101.25461196899414px, -218.95199584960938px);transform: translate(101.25461196899414px, 218.95199584960938px) rotate(7deg) translate(-101.25461196899414px, -218.95199584960938px);}41.67%{-webkit-transform: translate(101.25461196899414px, 218.95199584960938px) rotate(0deg) translate(-101.25461196899414px, -218.95199584960938px);transform: translate(101.25461196899414px, 218.95199584960938px) rotate(0deg) translate(-101.25461196899414px, -218.95199584960938px);}50%{-webkit-transform: translate(101.25461196899414px, 218.95199584960938px) rotate(-7deg) translate(-101.25461196899414px, -218.95199584960938px);transform: translate(101.25461196899414px, 218.95199584960938px) rotate(-7deg) translate(-101.25461196899414px, -218.95199584960938px);}58.33%{-webkit-transform: translate(101.25461196899414px, 218.95199584960938px) rotate(0deg) translate(-101.25461196899414px, -218.95199584960938px);transform: translate(101.25461196899414px, 218.95199584960938px) rotate(0deg) translate(-101.25461196899414px, -218.95199584960938px);}66.67%{-webkit-transform: translate(101.25461196899414px, 218.95199584960938px) rotate(7deg) translate(-101.25461196899414px, -218.95199584960938px);transform: translate(101.25461196899414px, 218.95199584960938px) rotate(7deg) translate(-101.25461196899414px, -218.95199584960938px);}75%{-webkit-transform: translate(101.25461196899414px, 218.95199584960938px) rotate(0deg) translate(-101.25461196899414px, -218.95199584960938px);transform: translate(101.25461196899414px, 218.95199584960938px) rotate(0deg) translate(-101.25461196899414px, -218.95199584960938px);}83.33%{-webkit-transform: translate(101.25461196899414px, 218.95199584960938px) rotate(-7deg) translate(-101.25461196899414px, -218.95199584960938px);transform: translate(101.25461196899414px, 218.95199584960938px) rotate(-7deg) translate(-101.25461196899414px, -218.95199584960938px);}91.67%{-webkit-transform: translate(101.25461196899414px, 218.95199584960938px) rotate(0deg) translate(-101.25461196899414px, -218.95199584960938px);transform: translate(101.25461196899414px, 218.95199584960938px) rotate(0deg) translate(-101.25461196899414px, -218.95199584960938px);}100%{-webkit-transform: translate(101.25461196899414px, 218.95199584960938px) rotate(7deg) translate(-101.25461196899414px, -218.95199584960938px);transform: translate(101.25461196899414px, 218.95199584960938px) rotate(7deg) translate(-101.25461196899414px, -218.95199584960938px);}}#el_zeUOaL7wQ *{-webkit-animation-duration: 6s;animation-duration: 6s;-webkit-animation-iteration-count: infinite;animation-iteration-count: infinite;-webkit-animation-timing-function: cubic-bezier(0, 0, 1, 1);animation-timing-function: cubic-bezier(0, 0, 1, 1);}#el_eo9IXaZACA{fill: #FFFFFF;stroke: #231F20;stroke-width: 0.3;}#el_6CuiUMoXrO{fill: #FFFFFF;stroke: #231F20;stroke-width: 0.3;}#el_JGmK2b4Hi7{fill: #FFFFFF;stroke: #231F20;stroke-width: 0.3;}#el_6sX6razVwC{fill: #020202;}#el_2m_ngpGgvz{fill: #F3C67B;}#el_hUzRQpA665{fill: #1E2958;}#el_FZdQ-msCWy{fill: #1E4383;}#el_gqsmu7y7Wf{fill: #F3C67B;}#el_nmmTvSP9B-{fill: #1E4383;}#el_LpvkO3jgY6{fill: #020202;}#el_aq8RyPsFXq{fill: #1E2958;}#el_b1TckZoF5J{fill: #1E2958;}#el_VBxJxR4-AG{fill: #233E7A;}#el_BL9FVqVHQ1{fill: #FFFFFF;stroke: #231F20;stroke-width: 0.3;}#el_p72qZd3RFwC{fill: #7A9FD3;}#el_msf2nqmazBb{fill: #FFFFFF;stroke: #231F20;stroke-width: 0.3;}#el_L7OTVKPeMbl{fill: #FFFFFF;stroke: #231F20;stroke-width: 0.3;}#el_DpG-fAnJwxs{fill: #F3C67B;}#el_Es4VwgDCpRp{fill: #F3C67B;}#el_r-VKNSPf-IK{fill: #0E0F0F;}#el_DwuJKRARWbE{fill: #F3C67B;}#el_5ryzJd6ROe6{fill: none;stroke: #020202;stroke-width: 0.3;}#el_mbzu5p78CRg{fill: #1E2958;}#el_2wjBONbGzLJ{fill: none;stroke: #020202;stroke-width: 0.3;}#el_hNTgt16W80y{fill: none;stroke: #020202;stroke-width: 0.3;}#el_kvzlXepslFP{fill: none;stroke: #020202;stroke-width: 0.3;}#el_XO5b456qBk9{fill: none;stroke: #020202;stroke-width: 0.3;}#el_Lywa3HchNzP{fill: none;stroke: #020202;stroke-width: 0.3;}#el_Id4ipde6LIk{fill: none;stroke: #020202;stroke-width: 0.3;}#el__ZjbE_8pzIZ{fill: none;stroke: #020202;stroke-width: 0.3;}#el_WVtUReVtQUr{fill: #1E2958;}#el_2ynkPP3DCK4{fill: #7A9FD3;}#el_abNjTaA4yCt{fill: #7A9FD3;}#el_tb1aDqczlL5{fill: #1E2958;}#el_HBdRO3QV47Y{fill: #7A9FD3;}#el_ZFC4w6EtCh0{fill: #1E2958;}#el_l0SVF4sLL1T{fill: #7A9FD3;}#el_VdfjxQCip9k{fill: #1E2958;}#el_Z7QB8xAoJwT{fill: #00AEC0;}#el_aCaF3SqDVbd{fill: #00AEC0;}#el_HXAUMyh4UYT{fill: #00AEC0;}#el_hl86dvHQAWx{fill: #82A5D5;}#el_M04naG9P1aL{fill: #F0F4FB;}#el_8ZrWKliz00c{fill: #0B0C0C;}#el_duD4jYmF50v{fill: none;stroke: #020202;stroke-width: 0.3;}#el_ppWJTZpmYcO{fill: none;}#el_hTQQybUkiOC{fill: #F3C67B;}#el_OUjY7TCp-10{fill: none;stroke: #020202;stroke-width: 0.3;}#el_baHq_wCZghr{fill: none;stroke: #020202;stroke-width: 0.3;}#el_X3JbpaViG5f{fill: #020202;}#el_nJ9kLLQUCNI{fill: #FFFFFF;stroke: #231F20;stroke-width: 0.3;}#el_4OLjzZYIviX{fill: none;stroke: #020202;stroke-width: 0.3;}#el_cX-_9Z6o2zx{fill: #1E2958;}#el_PpYjos7XoZm{fill: #FFFFFF;stroke: #231F20;stroke-width: 0.3;}#el_OqNyKjhKFr3{fill: #FFFFFF;stroke: #231F20;stroke-width: 0.3;}#el_PUPY6Qcv-1d{fill: #FFFFFF;stroke: #231F20;stroke-width: 0.3;}#el_oHOilxdjIef{fill: #FFFFFF;stroke: #231F20;stroke-width: 0.3;}#el_OCweNqhsG_-{fill: #F3C67B;}#el_qSnkwNzHb1D{fill: none;}#el_wqrVXO5eyXN{fill: none;stroke: #020202;stroke-width: 0.3;}#el_8nC8UWOvbRJ{fill: none;stroke: #020202;stroke-width: 0.3;}#el_tjviWYrE4mL{fill: #7A9FD3;}#el_-U5hpEreTis{fill: #F3C67B;}#el_YVWuAOI76S7{fill: none;}#el_SeoQKTtlc5j{fill: none;stroke: #020202;stroke-width: 0.3;}#el_TCBU4W64K9_{fill: none;stroke: #020202;stroke-width: 0.3;}#el_A0usPAKd_FI{fill: #7A9FD3;}#el_Fxv5JPkSW1w_an_7-uqxQuod{-webkit-animation-fill-mode: backwards;animation-fill-mode: backwards;-webkit-transform: translate(101.25461196899414px, 218.95199584960938px) rotate(7deg) translate(-101.25461196899414px, -218.95199584960938px);transform: translate(101.25461196899414px, 218.95199584960938px) rotate(7deg) translate(-101.25461196899414px, -218.95199584960938px);-webkit-animation-name: kf_el_Fxv5JPkSW1w_an_7-uqxQuod;animation-name: kf_el_Fxv5JPkSW1w_an_7-uqxQuod;-webkit-animation-timing-function: cubic-bezier(0, 0, 1, 1);animation-timing-function: cubic-bezier(0, 0, 1, 1);}</style>
<g id="el_9iIj82bmka">
	<path stroke-miterlimit="10" d="M101.255,217.73&#10;&#9;&#9;c15.628-3.891,22.238-13.453,30.07-23.902c3.757-5.115,45.132-74.486,10.437-89.717c-13.81,9.56-30.164,42.69-40.506,77.933&#10;&#9;&#9;c-5.856,2.631-10.615,10.333-12.027,14.501C82.498,216.396,101.255,217.73,101.255,217.73z" id="el_eo9IXaZACA"/>
</g>
<path id="el_6CuiUMoXrO" stroke-miterlimit="10" d="M95.232,218.953&#10;&#9;c20.092-2.78,27.322-13.34,36.092-25.125c3.757-5.115,45.132-74.486,10.438-89.717c-13.894,9.56-30.363,43.135-40.696,78.6&#10;&#9;l-0.109,0.667"/>
<path id="el_JGmK2b4Hi7" stroke-miterlimit="10" d="M95.232,218.953&#10;&#9;c20.092-2.78,27.322-13.34,36.092-25.125c3.757-5.115,45.132-74.486,10.438-89.717c-13.894,9.56-30.363,43.135-40.696,78.6&#10;&#9;l-0.109,0.667"/>
<rect id="el_6sX6razVwC" x="194.52" y="558.922" width="30.89" height="1"/>
<rect id="el_2m_ngpGgvz" x="208.677" y="530.794" width="16.734" height="19.678"/>
<path id="el_hUzRQpA665" d="M194.52,558.922c0-1.668-0.237-5.338,1.911-6.449c1.568-0.889,2.594-0.444,3.51-0.777&#10;&#9;c1.134-0.334,7.476-8.227,8.725-9.672h11.597l5.138,5.337v11.562H194.52L194.52,558.922z"/>
<path id="el_FZdQ-msCWy" d="M227.594,231.849c11.929,106.503,9.539,215.121,3.22,306.171h-26.664&#10;&#9;c-9.595-87.717-19.168-189.996-22.184-306.171H227.594z"/>
<rect id="el_gqsmu7y7Wf" x="127.675" y="531.35" width="20.662" height="19.678"/>
<path id="el_nmmTvSP9B-" d="M142.863,231.849c-6.908,56.587-12.755,114.619-15.188,168.65&#10;&#9;c-2.254,50.027-1.347,96.499-1.114,137.521l24.932,3.445c12.168-49.027,13.896-102.167,15.435-142.969&#10;&#9;c12.278-41.023,20.962-74.153,25.334-112.286c1.842-16.12-4.642-37.576-2.638-54.364h-46.76V231.849z"/>
<rect id="el_LpvkO3jgY6" x="89.859" y="558.031" width="58.478" height="1.112"/>
<path id="el_aq8RyPsFXq" d="M148.337,558.031H89.854c0,0,0.273-5.003,3.239-6.003c2.964-0.89,24.708-5.559,24.708-5.559&#10;&#9;s5.743-4.003,7.367-5.004c1.625-0.999,3.14-0.556,6.133,1.223l7.106,4.227h9.935L148.337,558.031z"/>
<path id="el_b1TckZoF5J" d="M180.023,294.995c0,0-26.566,94.165-26.698,102.391c-0.133,8.227-0.021,124.959-4.989,137.188&#10;&#9;c-0.976,2.223-0.72,4.669,0.668,6.559l2.49,0.334c12.17-49.027,13.9-102.168,15.437-142.97&#10;&#9;c7.879-26.348,14.286-49.471,19.017-72.707h-0.07L180.023,294.995z"/>
<path id="el_VBxJxR4-AG" d="M223.035,532.907c1.992-17.344-0.664-127.852-2.66-168.762"/>
<path id="el_BL9FVqVHQ1" stroke-miterlimit="10" d="M128.111,367.258&#10;&#9;c1.261-18.343,12.628-262.146,13.282-263.703c5.107-4.558,11.182-8.005,17.769-9.895l49.391-2.445&#10;&#9;c19.296,4.337,28.892,11.229,28.892,11.229l-8.688,67.593l10.21,208.562C209.907,379.376,159.836,374.484,128.111,367.258z"/>
<path id="el_p72qZd3RFwC" d="M210.378,93.104l-28.417,48.028l-20.505-47.916l9.562-3.335h29.08L210.378,93.104z"/>
<path id="el_msf2nqmazBb" stroke-miterlimit="10" d="M181.825,141.02l-22.172-18.121&#10;&#9;l3.478-7.894l-8.277-5.892l4.168-15.009"/>
<path id="el_L7OTVKPeMbl" stroke-miterlimit="10" d="M181.825,141.02l25.216-18.121&#10;&#9;l-2.133-7.894l9.267-5.892l-1.604-15.009"/>
<path id="el_DpG-fAnJwxs" d="M169.317,96.328l17.023,11.896l17.305-11.896l0.045-41.579l-31.156,4.336L169.317,96.328z"/>
<path id="el_Es4VwgDCpRp" d="M184.217,8.946c5.991,0.333,24.037,1.445,23.764,25.013&#10;&#9;c-0.273,23.569-4.056,31.24-6.986,34.686c-3.753,4.446-9.748,9.228-24.342,10.784c-8.482-0.667-9.767-5.781-12.31-10.895&#10;&#9;c-2.024-4.114-6.013-12.229-5.107-35.797C160.14,9.168,178.218,8.946,184.217,8.946z"/>
<path id="el_r-VKNSPf-IK" d="M200.379,23.065c2.104,1.334-2.533,19.678,7.205,18.678c6.351-9.783,7.54-21.901-0.66-26.904&#10;&#9;c-1.551-8.671-9.938-12.229-20.634-11.895c-6.172,0.111-13.009,5.781-20.019,5.892c-10.952,0-14.328,6.67-10.442,12.785&#10;&#9;c1.687,2.668,7.425,3.224,9.921,2.335c3.479-1.334,12.707,4.892,19.321,4.668C192.608,28.401,195.215,24.287,200.379,23.065z"/>
<path id="el_DwuJKRARWbE" d="M205.907,44.077c0.671-1.446,2.01-2.558,3.596-2.78c1.846-0.445,5.154,0.667,5.014,5.892&#10;&#9;c-0.141,5.225-4.589,9.671-7.317,8.894C204.469,55.416,205.907,44.077,205.907,44.077z"/>
<path id="el_5ryzJd6ROe6" stroke-miterlimit="10" d="M207.876,46.745&#10;&#9;c0-0.667,2.62-3.668,4.731-1.556"/>
<path id="el_mbzu5p78CRg" d="M164.356,43.187c1.315,0.223,2.314,1.334,2.413,2.668c0.181,1.334-0.609,2.558-1.753,2.446&#10;&#9;c-1.316-0.223-2.312-1.223-2.41-2.557C162.419,44.298,163.207,43.187,164.356,43.187z"/>
<path id="el_2wjBONbGzLJ" stroke-miterlimit="10" d="M168.331,37.74&#10;&#9;c1.177,0.446,1.995,1.557,2.147,2.892c0.411,4.668-1.334,13.563-1.217,15.23c0.158,2.445,3.747,2.224,3.747,2.224"/>
<path id="el_hNTgt16W80y" stroke-miterlimit="10" d="M178.126,64.533&#10;&#9;c0,0-4.112,3.001-10.875-0.333"/>
<path id="el_kvzlXepslFP" stroke-miterlimit="10" d="M188.164,38.073&#10;&#9;c-1.402-0.557-5.472-0.334-7.901,0.112"/>
<path id="el_XO5b456qBk9" stroke-miterlimit="10" d="M201.232,12.503&#10;&#9;c2.213,7.56-3.025,17.455-11.49,19.011"/>
<path id="el_Lywa3HchNzP" stroke-miterlimit="10" d="M205.896,57.084&#10;&#9;c-1.402,6.448-3.283,9.671-4.911,11.561c-3.749,4.447-9.746,9.228-24.34,10.784"/>
<path id="el_Id4ipde6LIk" stroke-miterlimit="10" d="M160.704,38.185&#10;&#9;c1.372-0.557,5.435-0.667,7.892-0.334"/>
<path id="el__ZjbE_8pzIZ" stroke-miterlimit="10" d="M176.21,67.312&#10;&#9;c-1.532,0.667-3.167,1-4.829,1.112"/>
<path id="el_WVtUReVtQUr" d="M181.448,114.005l-3.69,17.231l4.209,9.895l5.866-10.006l-0.783-17.12l5.49-5.114l-3.508-5.892&#10;&#9;l-4.118,3.224l-3.567-3.224l-4.52,5.892L181.448,114.005z"/>
<path id="el_2ynkPP3DCK4" d="M184.962,106.223l-11.635,5.781l-8.395-20.011l3.805-1.333L184.962,106.223z"/>
<path id="el_abNjTaA4yCt" d="M184.911,106.223l10.668,5.67l11.765-19.9l-3.583-1.333L184.911,106.223z"/>
<path id="el_tb1aDqczlL5" d="M183.275,43.187c1.316,0.223,2.314,1.334,2.409,2.668c0.181,1.334-0.606,2.558-1.752,2.446&#10;&#9;c-1.314-0.223-2.312-1.223-2.411-2.557C181.34,44.298,182.126,43.187,183.275,43.187z"/>
<path id="el_HBdRO3QV47Y" d="M165.515,160.254h-0.729h-0.625l0.057,0.666l0.113,1.223l0.061,0.556h0.59h0.48l0,0h0.235l0,0&#10;&#9;c1.869-0.111,2.939-0.223,4.329-1.668c0.675-0.777,1.119-1.779,1.287-2.78c1.328-6.115-2.263-20.011-5.612-23.235l-0.411-0.333&#10;&#9;l-0.425,0.333l-0.933,0.889l-0.485,0.446l0.488,0.444c0,0,0.546,0.557,1.706,3.557c1.97,5.115,4.368,11.563,3.296,17.121&#10;&#9;c-0.071,0.666-0.313,1.334-0.701,1.89C167.514,160.031,166.786,160.143,165.515,160.254z"/>
<path id="el_ZFC4w6EtCh0" d="M164.633,163.478c1.404-0.111,2.457-1.001,2.365-2.113c-0.091-1.111-1.333-2-2.74-1.89&#10;&#9;c-1.406,0.111-2.456,1.111-2.36,2.223S163.23,163.588,164.633,163.478z"/>
<path id="el_l0SVF4sLL1T" d="M152.643,161.586l0.73-0.111h0.625l0.047,0.557l0.1,1.223l0.055,0.667h-0.591l-0.48,0.111l0,0&#10;&#9;h-0.235l0,0c-1.862,0.222-2.93,0.334-4.54-0.778c-0.802-0.779-1.408-1.557-1.753-2.557c-2.368-5.781-1.244-20.123,1.504-23.903&#10;&#9;l0.334-0.444l0.485,0.333l1.054,0.667l0.557,0.333l-0.404,0.557c0,0-0.445,0.556-1.053,3.78c-1.051,5.336-2.276,12.229-0.249,17.565&#10;&#9;c0.182,0.557,0.527,1.112,1,1.557C150.654,161.809,151.377,161.698,152.643,161.586z"/>
<path id="el_VdfjxQCip9k" d="M154.109,164.7c-1.403,0.111-2.616-0.666-2.708-1.779c-0.092-1.112,0.976-2.112,2.381-2.223&#10;&#9;c1.408-0.223,2.621,0.556,2.709,1.778C156.58,163.588,155.513,164.478,154.109,164.7z"/>
<path id="el_Z7QB8xAoJwT" d="M153.058,122.121c-0.956,1.445-1.832,3.113-2.626,4.668c-0.764,1.668-1.402,3.113-1.929,4.447&#10;&#9;c-0.285,0.779-0.551,1.557-0.803,2.224c-0.253,0.777-0.452,1.445-0.639,2c-0.233,0.667-0.428,1.223-0.585,1.89&#10;&#9;c-0.141,0.557-0.214,1-0.26,1.223l-0.189,1.223l1.192,0.223l1.011,0.222l0.96,0.223l1.171,0.223l0.295-1.112&#10;&#9;c0.094-0.446,0.199-0.779,0.33-1.334l0,0c0.106-0.333,0.235-0.778,0.394-1.333c0.075-0.223,0.171-0.446,0.288-0.667&#10;&#9;c0.116-0.223,0.231-0.444,0.349-0.667c0.385-0.557,0.827-1.111,1.319-1.557c1.822-2.112,4.904-2.335,7.016-0.556&#10;&#9;c0.588,0.333,1.132,0.889,1.62,1.333c0.172,0.223,0.331,0.446,0.475,0.667c0.146,0.223,0.292,0.445,0.429,0.667&#10;&#9;c0.225,0.445,0.436,0.778,0.624,1.223c0.191,0.445,0.396,0.889,0.563,1.223l0.488,1.001l1.085-0.446l0.898-0.333l0.957-0.333&#10;&#9;l1.192-0.334l-0.423-1.223c-0.092-0.223-0.253-0.667-0.482-1.223c-0.277-0.556-0.593-1.223-0.944-1.779&#10;&#9;c-0.301-0.556-0.631-1.223-0.987-1.89c-0.383-0.667-0.785-1.334-1.201-2.001c-0.789-1.333-1.691-2.668-2.722-4.113&#10;&#9;c-1.086-1.445-2.246-2.891-3.473-4.336l-0.408-0.445l-0.6,0.11l-3.474,0.334h-0.61l-0.323,0.556h0.022V122.121z M157.698,127.791&#10;&#9;c-0.924-0.11-1.851,0-2.757,0.223l0.154-0.333l0,0c0.324-0.667,0.665-1.223,1.025-1.89c0.352,0.444,0.769,0.889,1.2,1.445&#10;&#9;L157.698,127.791z"/>
<path id="el_aCaF3SqDVbd" d="M154.58,123.344c-1.422-3.335-2.438-6.782-3.028-10.339c-1.083-5.781-0.695-11.786,1.13-17.455&#10;&#9;c1.833-5.56,5.942-10.117,11.301-12.452c1.858-0.889,3.81-1.446,5.81-1.779l0.505,3.113c-1.75,0.223-3.46,0.778-5.088,1.446&#10;&#9;c-4.569,2.112-8.064,6.003-9.622,10.783c-1.652,5.113-1.998,10.562-1,15.897c0.546,3.224,1.489,6.449,2.808,9.561L154.58,123.344z"/>
<path id="el_HXAUMyh4UYT" d="M216.011,138.797c3.241-4.003,6.761-14.008,7.54-24.57c0.447-4.892,0.063-9.893-1.138-14.674&#10;&#9;c-1.039-4.336-3.413-8.226-6.784-11.228c-2.977-2.446-6.942-4.003-12.132-4.447l0.229-3.113c5.857,0.445,10.395,2.335,13.843,5.225&#10;&#9;c3.872,3.335,6.602,7.783,7.805,12.786c1.299,5.114,1.719,10.451,1.245,15.786c-0.824,11.005-4.669,21.791-8.227,26.237&#10;&#9;L216.011,138.797z"/>
<path id="el_hl86dvHQAWx" d="M216.729,152.583c3.83-2.446,4.965-7.56,2.536-11.34c-0.001,0-0.004,0-0.006,0&#10;&#9;c-0.059-0.111-0.126-0.223-0.189-0.334c-2.752-3.891-8.031-4.892-11.987-2.224c-3.831,2.446-4.964,7.56-2.527,11.34&#10;&#9;c0.06,0.111,0.122,0.223,0.188,0.334C207.494,154.25,212.777,155.251,216.729,152.583z"/>
<path id="el_M04naG9P1aL" d="M215.124,150.248c2.558-1.557,3.316-5.003,1.694-7.56c-0.002,0-0.004,0-0.004,0&#10;&#9;c-0.038-0.111-0.081-0.111-0.126-0.223c-1.832-2.557-5.371-3.224-8.017-1.556c-2.56,1.668-3.317,5.114-1.693,7.671&#10;&#9;c0.001,0,0.002,0,0.003,0c0.037,0.111,0.08,0.111,0.126,0.223C208.94,151.359,212.477,152.026,215.124,150.248z M214.021,148.691&#10;&#9;c-1.739,1.112-4.055,0.667-5.264-1c-1.136-1.668-0.731-3.891,0.907-5.114h0.126c1.736-1.223,4.062-0.778,5.262,1&#10;&#9;c1.141,1.668,0.738,3.891-0.899,5.003c-0.002,0-0.002,0-0.002,0l-0.127,0.111H214.021z"/>
<path id="el_8ZrWKliz00c" d="M170.815,238.854l-8.286-63.926c-0.517-3.891-4.356-7.893-8.56-8.894l-0.2-1.445&#10;&#9;c-0.312-2.446-2.669-4.893-5.237-5.448l-20.179-4.447c-2.568-0.556-4.412,1-4.1,3.335l0.198,1.557l-3.792-0.89&#10;&#9;c-4.23-0.889-7.265,1.558-6.75,5.559l8.276,63.925c0.516,3.891,4.399,7.894,8.631,8.894l33.25,7.226&#10;&#9;C168.293,245.301,171.333,242.744,170.815,238.854z"/>
<path id="el_duD4jYmF50v" stroke-miterlimit="10" d="M134.093,152.471&#10;&#9;c0.397-2,2.656-3.113,5.047-2.668c2.391,0.445,4.007,2.445,3.611,4.447c-0.396,1.89-2.655,3.113-5.047,2.557&#10;&#9;C135.315,156.363,133.698,154.36,134.093,152.471z"/>
<line id="el_ppWJTZpmYcO" x1="181.971" y1="141.131" x2="179.157" y2="375.374"/>
<path id="el_hTQQybUkiOC" d="M192.54,212.949c-3.328-1.112-9.947-4.558-12.671-5.336c-0.885-0.222-2.652-0.333-6.971-0.889&#10;&#9;c-2.936-0.556-5.83-1.334-8.671-2.223c-0.173,1,0.209,2.112,1.018,2.891c1.343,1,4.151,2.78,6.051,3.113&#10;&#9;c1.897,0.445,4.883,0.667,5.535,1c-2.507,0.778-5.073,1.445-5.073,1.445c-2.662-0.666-6.013-1.667-7.963-2.223&#10;&#9;c-1.226-1-2.504-1.89-3.831-2.779c-0.691-1.223-1.678-2.112-2.859-2.779c-0.451,0.667-0.776,1.445-0.955,2.223&#10;&#9;c-0.285-0.223-0.669-0.446-1.052-0.334l0.175,3.669l1.657,3.334v1.557l4.479,6.114l2.564,2.891l8.875,1.112&#10;&#9;c0,0,13.18-0.89,15.124-0.89l4.069,0.111L192.54,212.949z"/>
<path id="el_OUjY7TCp-10" stroke-miterlimit="10" d="M156.152,207.391l0.428,1.778&#10;&#9;l5.449,5.781l7.867,1.778"/>
<path id="el_baHq_wCZghr" stroke-miterlimit="10" d="M156.736,214.506l4.129,4.002&#10;&#9;l7.119,1.89"/>
<path id="el_X3JbpaViG5f" d="M194.763,227.402l0.541-16.009l-5.722-0.777l-2.928,15.231L194.763,227.402z"/>
<path id="el_nJ9kLLQUCNI" stroke-miterlimit="10" d="M232.604,195.384&#10;&#9;c-2.003-16.565-1.927-7.671-3.508-28.017c0,0-0.193-45.582,8.343-64.925c13.362,7.227,18.47,45.915,21.783,102.391&#10;&#9;c0,0,1.72,22.902-10.238,26.015c-11.959,3.113-64.7,0.334-64.7,0.334l1.918-24.014l46.07-1.668L232.604,195.384z"/>
<path id="el_4OLjzZYIviX" stroke-miterlimit="10" d="M241.85,207.391&#10;&#9;c0,0,15.832,1.778,11.874,3.224c-3.956,1.445-15.832-1.779-11.874,1.445c2.548,2.334,4.555,5.114,5.857,8.338"/>
<path id="el_cX-_9Z6o2zx" d="M173.79,42.298c1.624-0.333,13.629-2.223,19.737-0.223c1.325,3.224-1.617,9.561-2.723,10.228&#10;&#9;c-1.105,0.667-11.332,0.778-13.331,0.446c-1.987-0.111-3.017-7.227-3.312-8.116c-0.085-0.334-0.15-0.556-0.214-0.89&#10;&#9;c-1.088-0.445-2.284-0.445-3.37,0c-0.058,0.334-0.129,0.556-0.213,0.89c-0.296,0.889-1.328,8.005-3.317,8.116&#10;&#9;c-1.984,0.333-6.369,0.222-7.476-0.446c-1.104-0.666-4.046-7.003-2.719-10.117c5.996-2,11.836-0.222,13.797,0&#10;&#9;c1.02-0.222,2.107-0.222,3.125,0L173.79,42.298z M168.97,43.187c-1.14-0.222-5.261-1.89-10.32-0.111&#10;&#9;c-1.085,2.557,1.321,7.67,2.223,8.226c0.903,0.556,3.411,0.667,5.035,0.446c1.621-0.111,2.455-5.893,2.701-6.67&#10;&#9;c0.17-0.667,0.286-1.335,0.349-1.89H168.97z M175.583,43.187c0.066,0.556,0.183,1.223,0.35,1.89&#10;&#9;c0.243,0.667,1.086,6.559,2.706,6.559c1.621,0.333,9.975,0.222,10.876-0.334c0.9-0.556,3.305-5.668,2.223-8.226&#10;&#9;c-5.049-1.779-15.021-0.111-16.162,0.111H175.583z"/>
<g id="el_Fxv5JPkSW1w_an_7-uqxQuod" data-animator-group="true" data-animator-type="1"><g id="el_Fxv5JPkSW1w">
	<defs>
		<rect id="SVGID_1_" x="24.309" y="112.003" width="76.946" height="107.394"/>
	</defs>
	<clipPath id="SVGID_2_">
		<use xlink:href="#SVGID_1_" overflow="visible"/>
	</clipPath>
	<g clip-path="url(#SVGID_2_)" id="el_pfg_KP7b9aJ">
		<path id="el_PpYjos7XoZm" stroke-miterlimit="10" d="M100.964,183.377&#10;&#9;&#9;&#9;c-11.923-18.455-29.86-39.133-30.608-40.133c-4.347,3.335-9.791,11.228-14.51,14.674c4.925,14.12,28.101,55.697,39.385,61.034"/>
		<path id="el_OqNyKjhKFr3" stroke-miterlimit="10" d="M100.913,183.266&#10;&#9;&#9;&#9;c-6.919,3.224-13.044,17.01-10.803,22.791c2.241,5.892,5.234-6.782,7.479-11.117c2.245-4.335,4.488-0.778,3.368,5.669"/>
		<path id="el_PUPY6Qcv-1d" stroke-miterlimit="10" d="M100.964,183.377&#10;&#9;&#9;&#9;c-11.923-18.455-29.86-39.133-30.608-40.133c-4.347,3.335-9.791,11.228-14.51,14.674c4.925,14.12,28.101,55.697,39.385,61.034"/>
		<path id="el_oHOilxdjIef" stroke-miterlimit="10" d="M100.913,183.266&#10;&#9;&#9;&#9;c-6.919,3.224-13.044,17.01-10.803,22.791c2.241,5.892,5.234-6.782,7.479-11.117c2.245-4.335,4.488-0.778,3.368,5.669"/>
		<path id="el_OCweNqhsG_-" d="M67.36,142.354c-0.333-1.556-3.62-12.228-3.902-13.229c-0.28-1.112-4.48-4.114-5.26-4.558&#10;&#9;&#9;&#9;c-0.784-0.445-4.171-3.002-5.036-4.447c-1.024-1.445-2.396-2.557-3.98-3.334c-1.053,0.333-0.701,4.557,0.887,6.225&#10;&#9;&#9;&#9;c1.589,1.668,3.028,2.558,3.749,3.447c0.488,0.777,0.791,1.668,0.882,2.668l-2.438,0.667c0,0-5.615-1.557-6.362-1.557&#10;&#9;&#9;&#9;c-0.748,0-4.578-2-4.578-2s-1.564-3.78-2.486-3.668c-0.464-0.111-0.889-0.333-1.354,0.445c-0.271-2.223-2.074-4.225-3.445-4.336&#10;&#9;&#9;&#9;c-0.352,0.112-0.822,1.001-0.822,1.001c-0.206-0.333-1.652-1.445-2.178-1.334c-0.323,0.111-0.572,0.333-0.663,0.668&#10;&#9;&#9;&#9;c-0.948-1.557-1.938-2.335-3.085-2.001c0.23,1.668,0.702,3.335,1.404,5.003c0.875,2.223,3.532,6.892,3.532,6.892l1.678,4.226&#10;&#9;&#9;&#9;c0,0,5.676,4.336,6.435,4.669c0.757,0.333,1.828,3.668,3.069,4.113c1.242,0.444,13.254,4.892,14.265,5.892&#10;&#9;&#9;&#9;c0.845,0.89,1.493,2.001,1.905,3.224C59.853,151.692,67.376,142.132,67.36,142.354z"/>
		<line id="el_qSnkwNzHb1D" x1="29.767" y1="119.341" x2="33.985" y2="131.46"/>
		<path id="el_wqrVXO5eyXN" stroke-miterlimit="10" d="M33.215,120.119l2.67,8.672&#10;&#9;&#9;&#9;l3.859,6.781"/>
		<path id="el_8nC8UWOvbRJ" stroke-miterlimit="10" d="M54.51,138.018&#10;&#9;&#9;&#9;c-2.537-1.445-3.33-1.557-4.28-1.557c-0.952,0-4.286,0.111-4.286,0.111l-2.856-3.334c0,0-1.589-5.669-1.755-6.449&#10;&#9;&#9;&#9;c-0.165-0.777-1.273-3.668-2.382-4.335"/>
		<path id="el_tjviWYrE4mL" d="M67.249,138.463l-12.026,10.562l3.648,5.226l13.147-8.006L67.249,138.463z"/>
		<path id="el_-U5hpEreTis" d="M67.36,142.354c-0.333-1.556-3.62-12.228-3.902-13.229c-0.28-1.112-4.48-4.114-5.26-4.558&#10;&#9;&#9;&#9;c-0.784-0.445-4.171-3.002-5.036-4.447c-1.024-1.445-2.396-2.557-3.98-3.334c-1.053,0.333-0.701,4.557,0.887,6.225&#10;&#9;&#9;&#9;c1.589,1.668,3.028,2.558,3.749,3.447c0.488,0.777,0.791,1.668,0.882,2.668l-2.438,0.667c0,0-5.615-1.557-6.362-1.557&#10;&#9;&#9;&#9;c-0.748,0-4.578-2-4.578-2s-1.564-3.78-2.486-3.668c-0.464-0.111-0.889-0.333-1.354,0.445c-0.271-2.223-2.074-4.225-3.445-4.336&#10;&#9;&#9;&#9;c-0.352,0.112-0.822,1.001-0.822,1.001c-0.206-0.333-1.652-1.445-2.178-1.334c-0.323,0.111-0.572,0.333-0.663,0.668&#10;&#9;&#9;&#9;c-0.948-1.557-1.938-2.335-3.085-2.001c0.23,1.668,0.702,3.335,1.404,5.003c0.875,2.223,3.532,6.892,3.532,6.892l1.678,4.226&#10;&#9;&#9;&#9;c0,0,5.676,4.336,6.435,4.669c0.757,0.333,1.828,3.668,3.069,4.113c1.242,0.444,13.254,4.892,14.265,5.892&#10;&#9;&#9;&#9;c0.845,0.89,1.493,2.001,1.905,3.224C59.853,151.692,67.376,142.132,67.36,142.354z"/>
		<line id="el_YVWuAOI76S7" x1="29.767" y1="119.341" x2="33.985" y2="131.46"/>
		<path id="el_SeoQKTtlc5j" stroke-miterlimit="10" d="M33.215,120.119l2.67,8.672&#10;&#9;&#9;&#9;l3.859,6.781"/>
		<path id="el_TCBU4W64K9_" stroke-miterlimit="10" d="M54.51,138.018&#10;&#9;&#9;&#9;c-2.537-1.445-3.33-1.557-4.28-1.557c-0.952,0-4.286,0.111-4.286,0.111l-2.856-3.334c0,0-1.589-5.669-1.755-6.449&#10;&#9;&#9;&#9;c-0.165-0.777-1.273-3.668-2.382-4.335"/>
		<path id="el_A0usPAKd_FI" d="M67.249,138.463l-12.026,10.562l3.648,5.226l13.147-8.006L67.249,138.463z"/>
	</g>
</g></g>
</svg>