<svg version="1.1" id="el_SrLoiie0U" xmlns="http://www.w3.org/2000/svg" xmlns:xlink="http://www.w3.org/1999/xlink" x="0px" y="0px" viewBox="0 0 350 662" enable-background="new 0 0 350 662" xml:space="preserve"><style>@-webkit-keyframes kf_el_OyxjtgvdGmr_an_rJY4A_--o{0%{-webkit-transform: translate(113.93615531921387px, 252.09999084472656px) rotate(-15deg) translate(-113.93615531921387px, -252.09999084472656px);transform: translate(113.93615531921387px, 252.09999084472656px) rotate(-15deg) translate(-113.93615531921387px, -252.09999084472656px);}10%{-webkit-transform: translate(113.93615531921387px, 252.09999084472656px) rotate(0deg) translate(-113.93615531921387px, -252.09999084472656px);transform: translate(113.93615531921387px, 252.09999084472656px) rotate(0deg) translate(-113.93615531921387px, -252.09999084472656px);}20%{-webkit-transform: translate(113.93615531921387px, 252.09999084472656px) rotate(-15deg) translate(-113.93615531921387px, -252.09999084472656px);transform: translate(113.93615531921387px, 252.09999084472656px) rotate(-15deg) translate(-113.93615531921387px, -252.09999084472656px);}30%{-webkit-transform: translate(113.93615531921387px, 252.09999084472656px) rotate(0deg) translate(-113.93615531921387px, -252.09999084472656px);transform: translate(113.93615531921387px, 252.09999084472656px) rotate(0deg) translate(-113.93615531921387px, -252.09999084472656px);}40%{-webkit-transform: translate(113.93615531921387px, 252.09999084472656px) rotate(-15deg) translate(-113.93615531921387px, -252.09999084472656px);transform: translate(113.93615531921387px, 252.09999084472656px) rotate(-15deg) translate(-113.93615531921387px, -252.09999084472656px);}50%{-webkit-transform: translate(113.93615531921387px, 252.09999084472656px) rotate(0deg) translate(-113.93615531921387px, -252.09999084472656px);transform: translate(113.93615531921387px, 252.09999084472656px) rotate(0deg) translate(-113.93615531921387px, -252.09999084472656px);}60%{-webkit-transform: translate(113.93615531921387px, 252.09999084472656px) rotate(-15deg) translate(-113.93615531921387px, -252.09999084472656px);transform: translate(113.93615531921387px, 252.09999084472656px) rotate(-15deg) translate(-113.93615531921387px, -252.09999084472656px);}70%{-webkit-transform: translate(113.93615531921387px, 252.09999084472656px) rotate(0deg) translate(-113.93615531921387px, -252.09999084472656px);transform: translate(113.93615531921387px, 252.09999084472656px) rotate(0deg) translate(-113.93615531921387px, -252.09999084472656px);}80%{-webkit-transform: translate(113.93615531921387px, 252.09999084472656px) rotate(-15deg) translate(-113.93615531921387px, -252.09999084472656px);transform: translate(113.93615531921387px, 252.09999084472656px) rotate(-15deg) translate(-113.93615531921387px, -252.09999084472656px);}90%{-webkit-transform: translate(113.93615531921387px, 252.09999084472656px) rotate(0deg) translate(-113.93615531921387px, -252.09999084472656px);transform: translate(113.93615531921387px, 252.09999084472656px) rotate(0deg) translate(-113.93615531921387px, -252.09999084472656px);}100%{-webkit-transform: translate(113.93615531921387px, 252.09999084472656px) rotate(-15deg) translate(-113.93615531921387px, -252.09999084472656px);transform: translate(113.93615531921387px, 252.09999084472656px) rotate(-15deg) translate(-113.93615531921387px, -252.09999084472656px);}}@keyframes kf_el_OyxjtgvdGmr_an_rJY4A_--o{0%{-webkit-transform: translate(113.93615531921387px, 252.09999084472656px) rotate(-15deg) translate(-113.93615531921387px, -252.09999084472656px);transform: translate(113.93615531921387px, 252.09999084472656px) rotate(-15deg) translate(-113.93615531921387px, -252.09999084472656px);}10%{-webkit-transform: translate(113.93615531921387px, 252.09999084472656px) rotate(0deg) translate(-113.93615531921387px, -252.09999084472656px);transform: translate(113.93615531921387px, 252.09999084472656px) rotate(0deg) translate(-113.93615531921387px, -252.09999084472656px);}20%{-webkit-transform: translate(113.93615531921387px, 252.09999084472656px) rotate(-15deg) translate(-113.93615531921387px, -252.09999084472656px);transform: translate(113.93615531921387px, 252.09999084472656px) rotate(-15deg) translate(-113.93615531921387px, -252.09999084472656px);}30%{-webkit-transform: translate(113.93615531921387px, 252.09999084472656px) rotate(0deg) translate(-113.93615531921387px, -252.09999084472656px);transform: translate(113.93615531921387px, 252.09999084472656px) rotate(0deg) translate(-113.93615531921387px, -252.09999084472656px);}40%{-webkit-transform: translate(113.93615531921387px, 252.09999084472656px) rotate(-15deg) translate(-113.93615531921387px, -252.09999084472656px);transform: translate(113.93615531921387px, 252.09999084472656px) rotate(-15deg) translate(-113.93615531921387px, -252.09999084472656px);}50%{-webkit-transform: translate(113.93615531921387px, 252.09999084472656px) rotate(0deg) translate(-113.93615531921387px, -252.09999084472656px);transform: translate(113.93615531921387px, 252.09999084472656px) rotate(0deg) translate(-113.93615531921387px, -252.09999084472656px);}60%{-webkit-transform: translate(113.93615531921387px, 252.09999084472656px) rotate(-15deg) translate(-113.93615531921387px, -252.09999084472656px);transform: translate(113.93615531921387px, 252.09999084472656px) rotate(-15deg) translate(-113.93615531921387px, -252.09999084472656px);}70%{-webkit-transform: translate(113.93615531921387px, 252.09999084472656px) rotate(0deg) translate(-113.93615531921387px, -252.09999084472656px);transform: translate(113.93615531921387px, 252.09999084472656px) rotate(0deg) translate(-113.93615531921387px, -252.09999084472656px);}80%{-webkit-transform: translate(113.93615531921387px, 252.09999084472656px) rotate(-15deg) translate(-113.93615531921387px, -252.09999084472656px);transform: translate(113.93615531921387px, 252.09999084472656px) rotate(-15deg) translate(-113.93615531921387px, -252.09999084472656px);}90%{-webkit-transform: translate(113.93615531921387px, 252.09999084472656px) rotate(0deg) translate(-113.93615531921387px, -252.09999084472656px);transform: translate(113.93615531921387px, 252.09999084472656px) rotate(0deg) translate(-113.93615531921387px, -252.09999084472656px);}100%{-webkit-transform: translate(113.93615531921387px, 252.09999084472656px) rotate(-15deg) translate(-113.93615531921387px, -252.09999084472656px);transform: translate(113.93615531921387px, 252.09999084472656px) rotate(-15deg) translate(-113.93615531921387px, -252.09999084472656px);}}#el_SrLoiie0U *{-webkit-animation-duration: 5s;animation-duration: 5s;-webkit-animation-iteration-count: infinite;animation-iteration-count: infinite;-webkit-animation-timing-function: cubic-bezier(0, 0, 1, 1);animation-timing-function: cubic-bezier(0, 0, 1, 1);}#el_B8ww2Rb2c2{fill: #FFFFFF;stroke: #231F20;stroke-width: 0.3;}#el_og-vK4XYBQ{opacity: 0.07;fill: #010101;}#el_EkSJnmIuBW{fill: #010101;}#el_yurAsc1oNz{fill: #F3C67B;}#el_2VVy57gRqP{fill: #1F2858;}#el_Hp_NB2ZnPz{fill: #1F4283;}#el_of18DShL1L{fill: #F3C67B;}#el_-Q_X0To1TU{fill: #1F4283;}#el_vWyivi7KpL{fill: #010101;}#el_mAkAA6m2P2{fill: #1F2858;}#el_1xVSSCO2gs{fill: #1F2858;}#el_v7LO6-UCbV{fill: #223D7A;}#el_28myZWA7By{fill: #FFFFFF;stroke: #231F20;stroke-width: 0.3;}#el_fIeSvYVDqi{fill: #7A9FD4;}#el_u3x0PDZlcga{fill: #FFFFFF;stroke: #231F20;stroke-width: 0.3;}#el_x-VO4FX1AzK{fill: #FFFFFF;stroke: #231F20;stroke-width: 0.3;}#el_an9-Od9u7pJ{fill: #F3C67B;}#el_okEGHU_lNXq{fill: #F3C67B;}#el_m79gwhTxhqm{fill: #0C0D0D;}#el_qxip4wuN04D{fill: #F3C67B;}#el_YxiYbJ3JkDH{fill: none;stroke: #010101;stroke-width: 0.3;}#el_tPGAnW0srfI{fill: #1F2858;}#el_e7dK1whGQGM{fill: none;stroke: #010101;stroke-width: 0.3;}#el_Gd1pqc-nd0i{fill: none;stroke: #010101;stroke-width: 0.3;}#el_FuGm-H-X_cB{fill: none;stroke: #010101;stroke-width: 0.3;}#el_WyNivRMjUbA{fill: none;stroke: #010101;stroke-width: 0.3;}#el_HK6Qd6_4LNv{fill: none;stroke: #010101;stroke-width: 0.3;}#el_Grp-ygOGW7s{fill: none;stroke: #010101;stroke-width: 0.3;}#el_Odlt8CVvMLK{fill: none;stroke: #010101;stroke-width: 0.3;}#el_WGFzSl0jP6T{fill: #1F2858;}#el_bLRqZ0Q8wvJ{fill: #7A9FD4;}#el_Z1Ypk_Yiawv{fill: #7A9FD4;}#el_OcKDYTaXxs0{fill: #1F2858;}#el_ej9Z-aTYgCN{fill: #7A9FD4;}#el_qrPr5o7kkPR{fill: #1F2858;}#el_24DK8U4CjQr{fill: #7A9FD4;}#el_oqrJLd-SAYT{fill: #1F2858;}#el_es38y4i1rQs{fill: #00AEC0;}#el_zdxEgP2F2rd{fill: #00AEC0;}#el_cg0xi4XcBtz{fill: #00AEC0;}#el_SI1Oki-OXBw{fill: #82A6D6;}#el_b_uT-54LZ0R{fill: #F0F4FA;}#el_OySUfyLOXKJ{fill: #090A0A;}#el_cstzYi3oS7j{fill: none;stroke: #010101;stroke-width: 0.3;}#el_d2aR_ZzN7ZG{fill: none;}#el_-mFxUOSmBYk{fill: #F3C67B;}#el_BID6degnJ0A{fill: none;stroke: #010101;stroke-width: 0.3;}#el_JX1w9oWEGxs{fill: none;stroke: #010101;stroke-width: 0.3;}#el_TRch4WnJq7Q{fill: #010101;}#el__s9SQWmjdpX{fill: #FFFFFF;stroke: #231F20;stroke-width: 0.3;}#el_biplfkGD4SH{fill: none;stroke: #010101;stroke-width: 0.3;}#el_ZXakzUjMU66{fill: #1F2858;}#el_Ekr84I0zEYM{fill: #FFFFFF;stroke: #231F20;stroke-width: 0.2;}#el_A7rOOLwjeR9{fill: #FFFFFF;stroke: #231F20;stroke-width: 0.2;}#el_77CtLHhsoLX{fill: #F3C67B;}#el__aIjvwg9JRY{fill: none;}#el_rv3uCekvWmX{fill: none;stroke: #010101;stroke-width: 0.2;}#el_0Pi57VJIkuy{fill: none;stroke: #010101;stroke-width: 0.2;}#el_fKuTDfFfHaT{fill: #7A9FD4;}#el_q_xDhL2TBfc{fill: #FFFFFF;stroke: #231F20;stroke-width: 0.2;}#el_BQdXI-a4pzb{fill: #FFFFFF;stroke: #231F20;stroke-width: 0.2;}#el_w1vhc6I9U27{fill: #F3C67B;}#el_fykOFlMqEXQ{fill: none;}#el_e_obnwFdb93{fill: none;stroke: #010101;stroke-width: 0.2;}#el_GNqMmaoDDoD{fill: none;stroke: #010101;stroke-width: 0.2;}#el_NVec8tHvG_Z{fill: #7A9FD4;}#el_i2TvKNf1G6p{fill: #FFFFFF;stroke: #231F20;stroke-width: 0.2;}#el_Z1ojOCwMtki{fill: #FFFFFF;stroke: #231F20;stroke-width: 0.2;}#el_OyxjtgvdGmr_an_rJY4A_--o{-webkit-animation-fill-mode: backwards;animation-fill-mode: backwards;-webkit-transform: translate(113.93615531921387px, 252.09999084472656px) rotate(-15deg) translate(-113.93615531921387px, -252.09999084472656px);transform: translate(113.93615531921387px, 252.09999084472656px) rotate(-15deg) translate(-113.93615531921387px, -252.09999084472656px);-webkit-animation-name: kf_el_OyxjtgvdGmr_an_rJY4A_--o;animation-name: kf_el_OyxjtgvdGmr_an_rJY4A_--o;-webkit-animation-timing-function: cubic-bezier(0, 0, 1, 1);animation-timing-function: cubic-bezier(0, 0, 1, 1);}</style>
<g id="el_oVYx92PU1U">
	<path stroke-miterlimit="10" d="M113.936,250.686&#10;&#9;&#9;c18.063-4.505,25.703-15.574,34.755-27.672c4.343-5.921,52.165-86.233,12.063-103.866c-15.962,11.068-34.864,49.423-46.818,90.223&#10;&#9;&#9;c-6.769,3.046-12.269,11.963-13.901,16.788C92.256,249.141,113.936,250.686,113.936,250.686z" id="el_B8ww2Rb2c2"/>
</g>
<path id="el_og-vK4XYBQ" d="M211.161,614.924c75.574,0,136.839,10.296,136.839,23.038&#10;&#9;S286.735,661,211.161,661c-75.571,0-136.835-10.296-136.835-23.038S135.59,614.924,211.161,614.924z"/>
<rect id="el_EkSJnmIuBW" x="221.732" y="645.685" width="35.704" height="1.158"/>
<rect id="el_yurAsc1oNz" x="238.096" y="613.121" width="19.341" height="22.781"/>
<path id="el_2VVy57gRqP" d="M221.732,645.685c0-1.931-0.274-6.179,2.21-7.466c1.813-1.029,2.998-0.515,4.056-0.9&#10;&#9;c1.31-0.387,8.641-9.524,10.084-11.197h13.405l5.937,6.178v13.386H221.732z"/>
<path id="el_Hp_NB2ZnPz" d="M259.961,267.031c13.787,123.3,11.025,249.046,3.72,354.456h-30.817&#10;&#9;c-11.09-101.549-22.155-219.959-25.641-354.456H259.961z"/>
<rect id="el_of18DShL1L" x="144.473" y="613.765" width="23.881" height="22.781"/>
<path id="el_-Q_X0To1TU" d="M162.027,267.031c-7.984,65.511-14.743,132.695-17.555,195.247&#10;&#9;c-2.606,57.917-1.557,111.717-1.288,159.209l28.817,3.99c14.063-56.76,16.061-118.281,17.84-165.517&#10;&#9;c14.191-47.492,24.228-85.847,29.281-129.993c2.129-18.662-5.365-43.502-3.049-62.937H162.027z"/>
<rect id="el_vWyivi7KpL" x="100.764" y="644.654" width="67.59" height="1.287"/>
<path id="el_mAkAA6m2P2" d="M168.354,644.654h-67.595c0,0,0.315-5.792,3.743-6.95c3.426-1.029,28.558-6.435,28.558-6.435&#10;&#9;s6.638-4.634,8.515-5.792c1.878-1.158,3.629-0.644,7.089,1.415l8.214,4.892h11.483L168.354,644.654z"/>
<path id="el_1xVSSCO2gs" d="M204.979,340.136c0,0-30.707,109.015-30.859,118.538c-0.153,9.524-0.025,144.666-5.766,158.823&#10;&#9;c-1.128,2.574-0.832,5.406,0.773,7.594l2.878,0.387c14.067-56.76,16.065-118.281,17.843-165.517&#10;&#9;c9.106-30.503,16.511-57.273,21.979-84.174h-0.081L204.979,340.136z"/>
<path id="el_v7LO6-UCbV" d="M254.691,615.567c2.303-20.079-0.767-148.013-3.074-195.376"/>
<path id="el_28myZWA7By" stroke-miterlimit="10" d="M144.977,423.795&#10;&#9;c1.458-21.236,14.596-303.489,15.351-305.291c5.903-5.277,12.925-9.267,20.538-11.455l57.087-2.831&#10;&#9;c22.302,5.02,33.392,12.999,33.392,12.999l-10.04,78.253l11.8,241.453C239.518,437.824,181.645,432.161,144.977,423.795z"/>
<path id="el_fIeSvYVDqi" d="M240.062,106.405l-32.845,55.602l-23.699-55.473l11.05-3.861h33.612L240.062,106.405z"/>
<path id="el_u3x0PDZlcga" stroke-miterlimit="10" d="M207.06,161.878l-25.627-20.979&#10;&#9;l4.02-9.138l-9.566-6.821l4.818-17.376"/>
<path id="el_x-VO4FX1AzK" stroke-miterlimit="10" d="M207.06,161.878l29.145-20.979&#10;&#9;l-2.465-9.138l10.71-6.821l-1.854-17.376"/>
<path id="el_an9-Od9u7pJ" d="M192.604,110.138l19.675,13.771l20.002-13.771l0.052-48.136l-36.011,5.02L192.604,110.138z"/>
<path id="el_okEGHU_lNXq" d="M209.824,8.975c6.926,0.386,27.783,1.673,27.467,28.958&#10;&#9;c-0.316,27.286-4.687,36.167-8.075,40.156c-4.337,5.148-11.267,10.683-28.135,12.484c-9.803-0.771-11.288-6.692-14.227-12.612&#10;&#9;c-2.341-4.763-6.95-14.158-5.903-41.443C181.996,9.232,202.89,8.975,209.824,8.975z"/>
<path id="el_m79gwhTxhqm" d="M228.505,25.321c2.433,1.544-2.928,22.781,8.328,21.623c7.34-11.326,8.715-25.355-0.763-31.147&#10;&#9;c-1.792-10.039-11.486-14.158-23.85-13.771c-7.132,0.129-15.035,6.693-23.137,6.821c-12.658,0-16.56,7.723-12.07,14.801&#10;&#9;c1.95,3.089,8.583,3.732,11.467,2.703c4.022-1.545,14.687,5.663,22.333,5.405C219.523,31.499,222.536,26.736,228.505,25.321z"/>
<path id="el_qxip4wuN04D" d="M234.895,49.646c0.775-1.674,2.323-2.961,4.156-3.218c2.133-0.515,5.957,0.772,5.795,6.821&#10;&#9;s-5.304,11.197-8.458,10.297C233.233,62.774,234.895,49.646,234.895,49.646z"/>
<path id="el_YxiYbJ3JkDH" stroke-miterlimit="10" d="M237.17,52.735&#10;&#9;c0-0.772,3.029-4.247,5.469-1.802"/>
<path id="el_tPGAnW0srfI" d="M186.87,48.616c1.521,0.258,2.675,1.545,2.789,3.089c0.208,1.545-0.704,2.961-2.026,2.832&#10;&#9;c-1.521-0.258-2.672-1.416-2.786-2.96C184.631,49.903,185.541,48.616,186.87,48.616z"/>
<path id="el_e7dK1whGQGM" stroke-miterlimit="10" d="M191.464,42.31&#10;&#9;c1.36,0.516,2.306,1.802,2.482,3.347c0.475,5.405-1.542,15.702-1.407,17.633c0.184,2.831,4.331,2.574,4.331,2.574"/>
<path id="el_Gd1pqc-nd0i" stroke-miterlimit="10" d="M202.785,73.328&#10;&#9;c0,0-4.753,3.475-12.57-0.386"/>
<path id="el_FuGm-H-X_cB" stroke-miterlimit="10" d="M214.386,42.696&#10;&#9;c-1.621-0.644-6.324-0.387-9.131,0.129"/>
<path id="el_WyNivRMjUbA" stroke-miterlimit="10" d="M229.491,13.094&#10;&#9;c2.558,8.752-3.496,20.207-13.28,22.009"/>
<path id="el_HK6Qd6_4LNv" stroke-miterlimit="10" d="M234.883,64.705&#10;&#9;c-1.622,7.465-3.795,11.197-5.677,13.385c-4.333,5.148-11.265,10.683-28.132,12.484"/>
<path id="el_Grp-ygOGW7s" stroke-miterlimit="10" d="M182.649,42.825&#10;&#9;c1.585-0.644,6.28-0.772,9.12-0.387"/>
<path id="el_Odlt8CVvMLK" stroke-miterlimit="10" d="M200.571,76.546&#10;&#9;c-1.771,0.772-3.661,1.158-5.583,1.287"/>
<path id="el_WGFzSl0jP6T" d="M206.625,130.603l-4.266,19.949l4.866,11.455l6.779-11.584l-0.905-19.82l6.347-5.921&#10;&#9;l-4.056-6.821l-4.759,3.732l-4.124-3.732l-5.223,6.821L206.625,130.603z"/>
<path id="el_bLRqZ0Q8wvJ" d="M210.685,121.593l-13.446,6.692l-9.703-23.167l4.398-1.544L210.685,121.593z"/>
<path id="el_Z1Ypk_Yiawv" d="M210.627,121.593l12.33,6.564l13.598-23.039l-4.141-1.544L210.627,121.593z"/>
<path id="el_OcKDYTaXxs0" d="M208.737,48.616c1.521,0.258,2.674,1.545,2.785,3.089c0.209,1.545-0.701,2.961-2.026,2.832&#10;&#9;c-1.52-0.258-2.672-1.416-2.786-2.96C206.499,49.903,207.408,48.616,208.737,48.616z"/>
<path id="el_ej9Z-aTYgCN" d="M188.208,184.145h-0.843h-0.722l0.065,0.771l0.132,1.416l0.069,0.644h0.682h0.555l0,0h0.272&#10;&#9;l0,0c2.161-0.129,3.398-0.258,5.004-1.931c0.78-0.9,1.294-2.06,1.488-3.218c1.536-7.079-2.616-23.167-6.487-26.899l-0.476-0.386&#10;&#9;l-0.49,0.386l-1.078,1.029l-0.56,0.516l0.563,0.515c0,0,0.632,0.644,1.971,4.118c2.278,5.921,5.049,13.386,3.811,19.821&#10;&#9;c-0.083,0.771-0.363,1.544-0.811,2.188C190.52,183.887,189.678,184.016,188.208,184.145z"/>
<path id="el_qrPr5o7kkPR" d="M187.19,187.877c1.623-0.129,2.839-1.159,2.733-2.446c-0.105-1.286-1.541-2.316-3.167-2.188&#10;&#9;s-2.839,1.287-2.729,2.574C184.138,187.104,185.568,188.005,187.19,187.877z"/>
<path id="el_24DK8U4CjQr" d="M173.331,185.688l0.844-0.129h0.722l0.054,0.644l0.116,1.416l0.063,0.772h-0.683l-0.555,0.129&#10;&#9;l0,0h-0.272l0,0c-2.152,0.257-3.386,0.386-5.247-0.901c-0.927-0.901-1.628-1.802-2.027-2.96c-2.737-6.693-1.438-23.296,1.739-27.672&#10;&#9;l0.386-0.515l0.56,0.386l1.218,0.772l0.644,0.386l-0.466,0.644c0,0-0.515,0.644-1.218,4.376c-1.215,6.178-2.631,14.158-0.287,20.336&#10;&#9;c0.21,0.644,0.609,1.287,1.155,1.802C171.032,185.946,171.868,185.817,173.331,185.688z"/>
<path id="el_oqrJLd-SAYT" d="M175.026,189.292c-1.622,0.129-3.024-0.771-3.13-2.059s1.128-2.446,2.752-2.574&#10;&#9;c1.627-0.258,3.029,0.644,3.131,2.059C177.882,188.005,176.649,189.035,175.026,189.292z"/>
<path id="el_es38y4i1rQs" d="M173.811,139.998c-1.105,1.673-2.117,3.604-3.035,5.405c-0.883,1.931-1.621,3.604-2.229,5.148&#10;&#9;c-0.329,0.901-0.637,1.802-0.929,2.574c-0.292,0.9-0.522,1.673-0.738,2.316c-0.269,0.772-0.494,1.416-0.677,2.188&#10;&#9;c-0.162,0.644-0.247,1.158-0.3,1.415l-0.219,1.416l1.378,0.258l1.168,0.257l1.11,0.258l1.354,0.258l0.341-1.287&#10;&#9;c0.109-0.516,0.23-0.901,0.381-1.545l0,0c0.122-0.386,0.272-0.9,0.455-1.544c0.087-0.258,0.198-0.516,0.333-0.772&#10;&#9;c0.134-0.258,0.267-0.515,0.404-0.772c0.445-0.644,0.956-1.287,1.524-1.802c2.106-2.445,5.669-2.703,8.109-0.644&#10;&#9;c0.68,0.386,1.308,1.029,1.873,1.544c0.198,0.258,0.382,0.516,0.548,0.772c0.168,0.258,0.337,0.515,0.495,0.772&#10;&#9;c0.26,0.515,0.504,0.901,0.722,1.416c0.22,0.515,0.458,1.029,0.65,1.415l0.565,1.159l1.254-0.516l1.038-0.386l1.106-0.386&#10;&#9;l1.378-0.387l-0.489-1.415c-0.105-0.258-0.292-0.772-0.557-1.416c-0.321-0.644-0.686-1.416-1.092-2.06&#10;&#9;c-0.347-0.644-0.729-1.416-1.141-2.188c-0.443-0.772-0.908-1.545-1.388-2.317c-0.912-1.544-1.955-3.089-3.147-4.762&#10;&#9;c-1.254-1.673-2.595-3.347-4.013-5.02l-0.471-0.515l-0.693,0.128l-4.015,0.387h-0.706l-0.373,0.644H173.811z M179.174,146.562&#10;&#9;c-1.068-0.128-2.14,0-3.188,0.258l0.179-0.386l0,0c0.374-0.772,0.769-1.416,1.184-2.188c0.407,0.515,0.89,1.029,1.388,1.673&#10;&#9;L179.174,146.562z"/>
<path id="el_zdxEgP2F2rd" d="M175.57,141.414c-1.643-3.861-2.817-7.852-3.5-11.97c-1.252-6.693-0.804-13.644,1.306-20.207&#10;&#9;c2.119-6.436,6.868-11.713,13.062-14.415c2.147-1.03,4.403-1.674,6.714-2.06l0.585,3.604c-2.024,0.258-4,0.901-5.881,1.674&#10;&#9;c-5.282,2.445-9.322,6.95-11.122,12.484c-1.909,5.92-2.308,12.227-1.156,18.404c0.631,3.732,1.721,7.466,3.245,11.069&#10;&#9;L175.57,141.414z"/>
<path id="el_cg0xi4XcBtz" d="M246.572,159.304c3.746-4.634,7.814-16.217,8.715-28.444&#10;&#9;c0.518-5.663,0.073-11.454-1.315-16.989c-1.201-5.02-3.944-9.523-7.84-12.999c-3.44-2.831-8.024-4.634-14.022-5.148l0.264-3.604&#10;&#9;c6.771,0.515,12.015,2.703,16,6.049c4.475,3.861,7.63,9.01,9.021,14.802c1.501,5.92,1.987,12.099,1.439,18.276&#10;&#9;c-0.953,12.741-5.396,25.227-9.508,30.374L246.572,159.304z"/>
<path id="el_SI1Oki-OXBw" d="M247.403,175.264c4.426-2.832,5.738-8.752,2.931-13.128c-0.002,0-0.005,0-0.007,0&#10;&#9;c-0.068-0.129-0.146-0.258-0.219-0.387c-3.181-4.505-9.283-5.663-13.855-2.574c-4.429,2.832-5.737,8.752-2.922,13.128&#10;&#9;c0.069,0.129,0.141,0.258,0.218,0.387C236.729,177.194,242.835,178.353,247.403,175.264z"/>
<path id="el_b_uT-54LZ0R" d="M245.548,172.561c2.956-1.802,3.833-5.792,1.958-8.752c-0.002,0-0.004,0-0.004,0&#10;&#9;c-0.044-0.129-0.094-0.129-0.146-0.258c-2.118-2.96-6.208-3.732-9.265-1.802c-2.959,1.931-3.835,5.921-1.958,8.881&#10;&#9;c0.001,0,0.002,0,0.003,0c0.044,0.129,0.092,0.129,0.146,0.258C238.4,173.848,242.488,174.62,245.548,172.561z M244.273,170.759&#10;&#9;c-2.01,1.287-4.686,0.772-6.083-1.158c-1.313-1.931-0.846-4.505,1.048-5.921h0.146c2.007-1.416,4.694-0.9,6.082,1.158&#10;&#9;c1.317,1.931,0.853,4.505-1.04,5.792c-0.002,0-0.002,0-0.002,0l-0.146,0.129H244.273z"/>
<path id="el_OySUfyLOXKJ" d="M194.335,275.14l-9.577-74.007c-0.597-4.504-5.035-9.138-9.894-10.296l-0.231-1.673&#10;&#9;c-0.361-2.832-3.085-5.664-6.054-6.307l-23.323-5.148c-2.968-0.644-5.1,1.158-4.739,3.861l0.229,1.802l-4.383-1.03&#10;&#9;c-4.89-1.029-8.397,1.803-7.802,6.436l9.566,74.006c0.596,4.505,5.084,9.139,9.976,10.297l38.43,8.366&#10;&#9;C191.42,282.604,194.933,279.644,194.335,275.14z"/>
<path id="el_cstzYi3oS7j" stroke-miterlimit="10" d="M151.891,175.135&#10;&#9;c0.459-2.316,3.07-3.604,5.834-3.089s4.632,2.831,4.174,5.148c-0.457,2.188-3.069,3.604-5.833,2.96&#10;&#9;C153.303,179.64,151.434,177.322,151.891,175.135z"/>
<line id="el_d2aR_ZzN7ZG" x1="207.229" y1="162.007" x2="203.977" y2="433.19"/>
<path id="el_-mFxUOSmBYk" d="M219.446,245.15c-3.849-1.287-11.499-5.276-14.646-6.178&#10;&#9;c-1.022-0.257-3.066-0.386-8.057-1.029c-3.393-0.644-6.739-1.545-10.023-2.574c-0.199,1.158,0.243,2.445,1.176,3.347&#10;&#9;c1.553,1.158,4.8,3.218,6.995,3.604c2.193,0.515,5.643,0.772,6.397,1.158c-2.898,0.901-5.863,1.673-5.863,1.673&#10;&#9;c-3.077-0.771-6.95-1.931-9.205-2.574c-1.416-1.158-2.894-2.188-4.427-3.217c-0.8-1.416-1.94-2.445-3.304-3.218&#10;&#9;c-0.522,0.772-0.897,1.673-1.104,2.574c-0.331-0.258-0.774-0.516-1.216-0.387l0.202,4.247l1.915,3.861v1.802l5.177,7.079&#10;&#9;l2.965,3.347l10.258,1.287c0,0,15.233-1.03,17.48-1.03l4.703,0.129L219.446,245.15z"/>
<path id="el_BID6degnJ0A" stroke-miterlimit="10" d="M177.386,238.716l0.496,2.059&#10;&#9;l6.297,6.693l9.094,2.059"/>
<path id="el_JX1w9oWEGxs" stroke-miterlimit="10" d="M178.063,246.953l4.772,4.633&#10;&#9;l8.227,2.188"/>
<path id="el_TRch4WnJq7Q" d="M222.013,261.883l0.625-18.534l-6.613-0.9l-3.382,17.633L222.013,261.883z"/>
<path id="el__s9SQWmjdpX" stroke-miterlimit="10" d="M265.752,224.815&#10;&#9;c-2.315-19.178-2.226-8.881-4.055-32.435c0,0-0.223-52.77,9.644-75.164c15.443,8.366,21.347,53.155,25.176,118.538&#10;&#9;c0,0,1.989,26.514-11.833,30.117c-13.822,3.604-74.782,0.387-74.782,0.387l2.217-27.801l53.249-1.931L265.752,224.815z"/>
<path id="el_biplfkGD4SH" stroke-miterlimit="10" d="M276.437,238.716&#10;&#9;c0,0,18.299,2.059,13.725,3.732c-4.573,1.673-18.299-2.06-13.725,1.673c2.946,2.703,5.265,5.921,6.771,9.653"/>
<path id="el_ZXakzUjMU66" d="M197.773,47.587c1.878-0.386,15.753-2.574,22.813-0.258c1.532,3.732-1.869,11.069-3.146,11.841&#10;&#9;c-1.279,0.772-13.098,0.901-15.409,0.516c-2.296-0.129-3.487-8.366-3.828-9.396c-0.097-0.387-0.173-0.644-0.247-1.03&#10;&#9;c-1.258-0.515-2.64-0.515-3.896,0c-0.066,0.387-0.148,0.644-0.246,1.03c-0.342,1.029-1.534,9.267-3.834,9.396&#10;&#9;c-2.293,0.386-7.361,0.257-8.64-0.516c-1.276-0.771-4.676-8.108-3.143-11.712c6.93-2.316,13.681-0.257,15.947,0&#10;&#9;c1.178-0.257,2.436-0.257,3.613,0L197.773,47.587z M192.202,48.616c-1.317-0.257-6.081-2.188-11.929-0.128&#10;&#9;c-1.254,2.96,1.528,8.88,2.57,9.523c1.043,0.644,3.942,0.772,5.819,0.516c1.874-0.129,2.838-6.822,3.122-7.723&#10;&#9;c0.196-0.772,0.331-1.545,0.404-2.188H192.202z M199.846,48.616c0.076,0.644,0.211,1.416,0.404,2.188&#10;&#9;c0.281,0.772,1.255,7.594,3.127,7.594c1.874,0.386,11.529,0.257,12.571-0.387c1.04-0.644,3.819-6.563,2.57-9.523&#10;&#9;c-5.836-2.06-17.362-0.129-18.681,0.128H199.846z"/>
<path id="el_Ekr84I0zEYM" stroke-miterlimit="10" d="M106.975,252.101&#10;&#9;c23.223-3.218,31.579-15.444,41.716-29.087c4.343-5.921,52.165-86.233,12.064-103.866c-16.058,11.068-35.094,49.938-47.037,90.995&#10;&#9;l-0.126,0.772"/>
<path id="el_A7rOOLwjeR9" stroke-miterlimit="10" d="M106.975,252.101&#10;&#9;c23.223-3.218,31.579-15.444,41.716-29.087c4.343-5.921,52.165-86.233,12.064-103.866c-16.058,11.068-35.094,49.938-47.037,90.995&#10;&#9;l-0.126,0.772"/>
<g id="el_OyxjtgvdGmr_an_rJY4A_--o" data-animator-group="true" data-animator-type="1"><g id="el_OyxjtgvdGmr">
	<defs>
		<path id="SVGID_1_" d="M113.936,252.615H25l0-124.33h88.935V252.615z"/>
	</defs>
	<clipPath id="SVGID_2_">
		<use xlink:href="#SVGID_1_" overflow="visible"/>
	</clipPath>
	<path id="el_77CtLHhsoLX" clip-path="url(#SVGID_2_)" d="M74.76,163.422c-0.385-1.802-4.185-14.157-4.51-15.315&#10;&#9;&#9;c-0.324-1.287-5.178-4.763-6.08-5.277c-0.906-0.515-4.821-3.475-5.821-5.148c-1.184-1.673-2.769-2.96-4.601-3.86&#10;&#9;&#9;c-1.217,0.386-0.81,5.276,1.026,7.207c1.837,1.931,3.5,2.96,4.333,3.99c0.564,0.9,0.914,1.931,1.019,3.089l-2.817,0.772&#10;&#9;&#9;c0,0-6.49-1.803-7.353-1.803c-0.864,0-5.292-2.316-5.292-2.316s-1.808-4.376-2.873-4.247c-0.536-0.129-1.027-0.386-1.565,0.515&#10;&#9;&#9;c-0.313-2.574-2.397-4.891-3.982-5.02c-0.406,0.129-0.95,1.159-0.95,1.159c-0.238-0.386-1.909-1.673-2.517-1.544&#10;&#9;&#9;c-0.373,0.129-0.661,0.386-0.766,0.773c-1.095-1.803-2.239-2.703-3.566-2.317c0.266,1.931,0.811,3.861,1.623,5.792&#10;&#9;&#9;c1.01,2.574,4.082,7.979,4.082,7.979l1.939,4.892c0,0,6.56,5.02,7.437,5.405c0.875,0.386,2.112,4.247,3.547,4.762&#10;&#9;&#9;c1.436,0.514,15.319,5.663,16.488,6.821c0.976,1.03,1.725,2.317,2.201,3.732C66.083,174.233,74.779,163.165,74.76,163.422z"/>
	<line id="el__aIjvwg9JRY" clip-path="url(#SVGID_2_)" x1="31.309" y1="136.78" x2="36.184" y2="150.81"/>
	<path id="el_rv3uCekvWmX" clip-path="url(#SVGID_2_)" stroke-miterlimit="10" d="&#10;&#9;&#9;M35.294,137.681l3.087,10.04l4.46,7.851"/>
	<path id="el_0Pi57VJIkuy" clip-path="url(#SVGID_2_)" stroke-miterlimit="10" d="&#10;&#9;&#9;M59.907,158.402c-2.932-1.673-3.849-1.802-4.947-1.802c-1.1,0-4.954,0.129-4.954,0.129l-3.301-3.861c0,0-1.837-6.563-2.028-7.465&#10;&#9;&#9;c-0.19-0.9-1.472-4.247-2.753-5.019"/>
	<path id="el_fKuTDfFfHaT" clip-path="url(#SVGID_2_)" d="M74.631,158.918l-13.9,12.227l4.217,6.05l15.196-9.268&#10;&#9;&#9;L74.631,158.918z"/>
	<path id="el_q_xDhL2TBfc" clip-path="url(#SVGID_2_)" stroke-miterlimit="10" d="&#10;&#9;&#9;M113.6,210.915c-13.781-21.365-34.513-45.305-35.377-46.463c-5.024,3.861-11.317,12.999-16.771,16.989&#10;&#9;&#9;c5.692,16.346,32.479,64.481,45.522,70.659"/>
	<path id="el_BQdXI-a4pzb" clip-path="url(#SVGID_2_)" stroke-miterlimit="10" d="&#10;&#9;&#9;M113.541,210.786c-7.997,3.732-15.077,19.692-12.487,26.385c2.59,6.821,6.05-7.851,8.645-12.87s5.188-0.901,3.893,6.563"/>
	<path id="el_w1vhc6I9U27" clip-path="url(#SVGID_2_)" d="M74.76,163.422c-0.385-1.802-4.185-14.157-4.51-15.315&#10;&#9;&#9;c-0.324-1.287-5.178-4.763-6.08-5.277c-0.906-0.515-4.821-3.475-5.821-5.148c-1.184-1.673-2.769-2.96-4.601-3.86&#10;&#9;&#9;c-1.217,0.386-0.81,5.276,1.026,7.207c1.837,1.931,3.5,2.96,4.333,3.99c0.564,0.9,0.914,1.931,1.019,3.089l-2.817,0.772&#10;&#9;&#9;c0,0-6.49-1.803-7.353-1.803c-0.864,0-5.292-2.316-5.292-2.316s-1.808-4.376-2.873-4.247c-0.536-0.129-1.027-0.386-1.565,0.515&#10;&#9;&#9;c-0.313-2.574-2.397-4.891-3.982-5.02c-0.406,0.129-0.95,1.159-0.95,1.159c-0.238-0.386-1.909-1.673-2.517-1.544&#10;&#9;&#9;c-0.373,0.129-0.661,0.386-0.766,0.773c-1.095-1.803-2.239-2.703-3.566-2.317c0.266,1.931,0.811,3.861,1.623,5.792&#10;&#9;&#9;c1.01,2.574,4.082,7.979,4.082,7.979l1.939,4.892c0,0,6.56,5.02,7.437,5.405c0.875,0.386,2.112,4.247,3.547,4.762&#10;&#9;&#9;c1.436,0.514,15.319,5.663,16.488,6.821c0.976,1.03,1.725,2.317,2.201,3.732C66.083,174.233,74.779,163.165,74.76,163.422z"/>
	<line id="el_fykOFlMqEXQ" clip-path="url(#SVGID_2_)" x1="31.309" y1="136.78" x2="36.184" y2="150.81"/>
	<path id="el_e_obnwFdb93" clip-path="url(#SVGID_2_)" stroke-miterlimit="10" d="&#10;&#9;&#9;M35.294,137.681l3.087,10.04l4.46,7.851"/>
	<path id="el_GNqMmaoDDoD" clip-path="url(#SVGID_2_)" stroke-miterlimit="10" d="&#10;&#9;&#9;M59.907,158.402c-2.932-1.673-3.849-1.802-4.947-1.802c-1.1,0-4.954,0.129-4.954,0.129l-3.301-3.861c0,0-1.837-6.563-2.028-7.465&#10;&#9;&#9;c-0.19-0.9-1.472-4.247-2.753-5.019"/>
	<path id="el_NVec8tHvG_Z" clip-path="url(#SVGID_2_)" d="M74.631,158.918l-13.9,12.227l4.217,6.05l15.196-9.268&#10;&#9;&#9;L74.631,158.918z"/>
	<path id="el_i2TvKNf1G6p" clip-path="url(#SVGID_2_)" stroke-miterlimit="10" d="&#10;&#9;&#9;M113.6,210.915c-13.781-21.365-34.513-45.305-35.377-46.463c-5.024,3.861-11.317,12.999-16.771,16.989&#10;&#9;&#9;c5.692,16.346,32.479,64.481,45.522,70.659"/>
	<path id="el_Z1ojOCwMtki" clip-path="url(#SVGID_2_)" stroke-miterlimit="10" d="&#10;&#9;&#9;M113.541,210.786c-7.997,3.732-15.077,19.692-12.487,26.385c2.59,6.821,6.05-7.851,8.645-12.87s5.188-0.901,3.893,6.563"/>
</g></g>
</svg>