<svg version="1.1" id="el_b7oPsZpo3" xmlns="http://www.w3.org/2000/svg" xmlns:xlink="http://www.w3.org/1999/xlink" x="0px" y="0px" viewBox="0 0 135 237" enable-background="new 0 0 135 237" xml:space="preserve"><style>@-webkit-keyframes kf_el_fX00LYOQZb_an_LdM1gU5MR{0%{-webkit-transform: translate(86.0499997138977px, 171.33399295806885px) rotate(3deg) translate(-86.0499997138977px, -171.33399295806885px);transform: translate(86.0499997138977px, 171.33399295806885px) rotate(3deg) translate(-86.0499997138977px, -171.33399295806885px);}8.33%{-webkit-transform: translate(86.0499997138977px, 171.33399295806885px) rotate(0deg) translate(-86.0499997138977px, -171.33399295806885px);transform: translate(86.0499997138977px, 171.33399295806885px) rotate(0deg) translate(-86.0499997138977px, -171.33399295806885px);}16.67%{-webkit-transform: translate(86.0499997138977px, 171.33399295806885px) rotate(-3deg) translate(-86.0499997138977px, -171.33399295806885px);transform: translate(86.0499997138977px, 171.33399295806885px) rotate(-3deg) translate(-86.0499997138977px, -171.33399295806885px);}25%{-webkit-transform: translate(86.0499997138977px, 171.33399295806885px) rotate(0deg) translate(-86.0499997138977px, -171.33399295806885px);transform: translate(86.0499997138977px, 171.33399295806885px) rotate(0deg) translate(-86.0499997138977px, -171.33399295806885px);}33.33%{-webkit-transform: translate(86.0499997138977px, 171.33399295806885px) rotate(3deg) translate(-86.0499997138977px, -171.33399295806885px);transform: translate(86.0499997138977px, 171.33399295806885px) rotate(3deg) translate(-86.0499997138977px, -171.33399295806885px);}41.67%{-webkit-transform: translate(86.0499997138977px, 171.33399295806885px) rotate(0deg) translate(-86.0499997138977px, -171.33399295806885px);transform: translate(86.0499997138977px, 171.33399295806885px) rotate(0deg) translate(-86.0499997138977px, -171.33399295806885px);}50%{-webkit-transform: translate(86.0499997138977px, 171.33399295806885px) rotate(-3deg) translate(-86.0499997138977px, -171.33399295806885px);transform: translate(86.0499997138977px, 171.33399295806885px) rotate(-3deg) translate(-86.0499997138977px, -171.33399295806885px);}58.33%{-webkit-transform: translate(86.0499997138977px, 171.33399295806885px) rotate(0deg) translate(-86.0499997138977px, -171.33399295806885px);transform: translate(86.0499997138977px, 171.33399295806885px) rotate(0deg) translate(-86.0499997138977px, -171.33399295806885px);}66.67%{-webkit-transform: translate(86.0499997138977px, 171.33399295806885px) rotate(3deg) translate(-86.0499997138977px, -171.33399295806885px);transform: translate(86.0499997138977px, 171.33399295806885px) rotate(3deg) translate(-86.0499997138977px, -171.33399295806885px);}75%{-webkit-transform: translate(86.0499997138977px, 171.33399295806885px) rotate(0deg) translate(-86.0499997138977px, -171.33399295806885px);transform: translate(86.0499997138977px, 171.33399295806885px) rotate(0deg) translate(-86.0499997138977px, -171.33399295806885px);}83.33%{-webkit-transform: translate(86.0499997138977px, 171.33399295806885px) rotate(-3deg) translate(-86.0499997138977px, -171.33399295806885px);transform: translate(86.0499997138977px, 171.33399295806885px) rotate(-3deg) translate(-86.0499997138977px, -171.33399295806885px);}91.67%{-webkit-transform: translate(86.0499997138977px, 171.33399295806885px) rotate(0deg) translate(-86.0499997138977px, -171.33399295806885px);transform: translate(86.0499997138977px, 171.33399295806885px) rotate(0deg) translate(-86.0499997138977px, -171.33399295806885px);}100%{-webkit-transform: translate(86.0499997138977px, 171.33399295806885px) rotate(3deg) translate(-86.0499997138977px, -171.33399295806885px);transform: translate(86.0499997138977px, 171.33399295806885px) rotate(3deg) translate(-86.0499997138977px, -171.33399295806885px);}}@keyframes kf_el_fX00LYOQZb_an_LdM1gU5MR{0%{-webkit-transform: translate(86.0499997138977px, 171.33399295806885px) rotate(3deg) translate(-86.0499997138977px, -171.33399295806885px);transform: translate(86.0499997138977px, 171.33399295806885px) rotate(3deg) translate(-86.0499997138977px, -171.33399295806885px);}8.33%{-webkit-transform: translate(86.0499997138977px, 171.33399295806885px) rotate(0deg) translate(-86.0499997138977px, -171.33399295806885px);transform: translate(86.0499997138977px, 171.33399295806885px) rotate(0deg) translate(-86.0499997138977px, -171.33399295806885px);}16.67%{-webkit-transform: translate(86.0499997138977px, 171.33399295806885px) rotate(-3deg) translate(-86.0499997138977px, -171.33399295806885px);transform: translate(86.0499997138977px, 171.33399295806885px) rotate(-3deg) translate(-86.0499997138977px, -171.33399295806885px);}25%{-webkit-transform: translate(86.0499997138977px, 171.33399295806885px) rotate(0deg) translate(-86.0499997138977px, -171.33399295806885px);transform: translate(86.0499997138977px, 171.33399295806885px) rotate(0deg) translate(-86.0499997138977px, -171.33399295806885px);}33.33%{-webkit-transform: translate(86.0499997138977px, 171.33399295806885px) rotate(3deg) translate(-86.0499997138977px, -171.33399295806885px);transform: translate(86.0499997138977px, 171.33399295806885px) rotate(3deg) translate(-86.0499997138977px, -171.33399295806885px);}41.67%{-webkit-transform: translate(86.0499997138977px, 171.33399295806885px) rotate(0deg) translate(-86.0499997138977px, -171.33399295806885px);transform: translate(86.0499997138977px, 171.33399295806885px) rotate(0deg) translate(-86.0499997138977px, -171.33399295806885px);}50%{-webkit-transform: translate(86.0499997138977px, 171.33399295806885px) rotate(-3deg) translate(-86.0499997138977px, -171.33399295806885px);transform: translate(86.0499997138977px, 171.33399295806885px) rotate(-3deg) translate(-86.0499997138977px, -171.33399295806885px);}58.33%{-webkit-transform: translate(86.0499997138977px, 171.33399295806885px) rotate(0deg) translate(-86.0499997138977px, -171.33399295806885px);transform: translate(86.0499997138977px, 171.33399295806885px) rotate(0deg) translate(-86.0499997138977px, -171.33399295806885px);}66.67%{-webkit-transform: translate(86.0499997138977px, 171.33399295806885px) rotate(3deg) translate(-86.0499997138977px, -171.33399295806885px);transform: translate(86.0499997138977px, 171.33399295806885px) rotate(3deg) translate(-86.0499997138977px, -171.33399295806885px);}75%{-webkit-transform: translate(86.0499997138977px, 171.33399295806885px) rotate(0deg) translate(-86.0499997138977px, -171.33399295806885px);transform: translate(86.0499997138977px, 171.33399295806885px) rotate(0deg) translate(-86.0499997138977px, -171.33399295806885px);}83.33%{-webkit-transform: translate(86.0499997138977px, 171.33399295806885px) rotate(-3deg) translate(-86.0499997138977px, -171.33399295806885px);transform: translate(86.0499997138977px, 171.33399295806885px) rotate(-3deg) translate(-86.0499997138977px, -171.33399295806885px);}91.67%{-webkit-transform: translate(86.0499997138977px, 171.33399295806885px) rotate(0deg) translate(-86.0499997138977px, -171.33399295806885px);transform: translate(86.0499997138977px, 171.33399295806885px) rotate(0deg) translate(-86.0499997138977px, -171.33399295806885px);}100%{-webkit-transform: translate(86.0499997138977px, 171.33399295806885px) rotate(3deg) translate(-86.0499997138977px, -171.33399295806885px);transform: translate(86.0499997138977px, 171.33399295806885px) rotate(3deg) translate(-86.0499997138977px, -171.33399295806885px);}}@-webkit-keyframes kf_el_PXsCi00aZtn_an_vba0GjJ58{0%{-webkit-transform: translate(65.60499572753906px, 171.25px) rotate(-5deg) translate(-65.60499572753906px, -171.25px);transform: translate(65.60499572753906px, 171.25px) rotate(-5deg) translate(-65.60499572753906px, -171.25px);}8.33%{-webkit-transform: translate(65.60499572753906px, 171.25px) rotate(0deg) translate(-65.60499572753906px, -171.25px);transform: translate(65.60499572753906px, 171.25px) rotate(0deg) translate(-65.60499572753906px, -171.25px);}16.67%{-webkit-transform: translate(65.60499572753906px, 171.25px) rotate(5deg) translate(-65.60499572753906px, -171.25px);transform: translate(65.60499572753906px, 171.25px) rotate(5deg) translate(-65.60499572753906px, -171.25px);}25%{-webkit-transform: translate(65.60499572753906px, 171.25px) rotate(0deg) translate(-65.60499572753906px, -171.25px);transform: translate(65.60499572753906px, 171.25px) rotate(0deg) translate(-65.60499572753906px, -171.25px);}33.33%{-webkit-transform: translate(65.60499572753906px, 171.25px) rotate(-5deg) translate(-65.60499572753906px, -171.25px);transform: translate(65.60499572753906px, 171.25px) rotate(-5deg) translate(-65.60499572753906px, -171.25px);}41.67%{-webkit-transform: translate(65.60499572753906px, 171.25px) rotate(0deg) translate(-65.60499572753906px, -171.25px);transform: translate(65.60499572753906px, 171.25px) rotate(0deg) translate(-65.60499572753906px, -171.25px);}50%{-webkit-transform: translate(65.60499572753906px, 171.25px) rotate(5deg) translate(-65.60499572753906px, -171.25px);transform: translate(65.60499572753906px, 171.25px) rotate(5deg) translate(-65.60499572753906px, -171.25px);}58.33%{-webkit-transform: translate(65.60499572753906px, 171.25px) rotate(0deg) translate(-65.60499572753906px, -171.25px);transform: translate(65.60499572753906px, 171.25px) rotate(0deg) translate(-65.60499572753906px, -171.25px);}66.67%{-webkit-transform: translate(65.60499572753906px, 171.25px) rotate(-5deg) translate(-65.60499572753906px, -171.25px);transform: translate(65.60499572753906px, 171.25px) rotate(-5deg) translate(-65.60499572753906px, -171.25px);}75%{-webkit-transform: translate(65.60499572753906px, 171.25px) rotate(0deg) translate(-65.60499572753906px, -171.25px);transform: translate(65.60499572753906px, 171.25px) rotate(0deg) translate(-65.60499572753906px, -171.25px);}83.33%{-webkit-transform: translate(65.60499572753906px, 171.25px) rotate(5deg) translate(-65.60499572753906px, -171.25px);transform: translate(65.60499572753906px, 171.25px) rotate(5deg) translate(-65.60499572753906px, -171.25px);}91.67%{-webkit-transform: translate(65.60499572753906px, 171.25px) rotate(0deg) translate(-65.60499572753906px, -171.25px);transform: translate(65.60499572753906px, 171.25px) rotate(0deg) translate(-65.60499572753906px, -171.25px);}100%{-webkit-transform: translate(65.60499572753906px, 171.25px) rotate(-5deg) translate(-65.60499572753906px, -171.25px);transform: translate(65.60499572753906px, 171.25px) rotate(-5deg) translate(-65.60499572753906px, -171.25px);}}@keyframes kf_el_PXsCi00aZtn_an_vba0GjJ58{0%{-webkit-transform: translate(65.60499572753906px, 171.25px) rotate(-5deg) translate(-65.60499572753906px, -171.25px);transform: translate(65.60499572753906px, 171.25px) rotate(-5deg) translate(-65.60499572753906px, -171.25px);}8.33%{-webkit-transform: translate(65.60499572753906px, 171.25px) rotate(0deg) translate(-65.60499572753906px, -171.25px);transform: translate(65.60499572753906px, 171.25px) rotate(0deg) translate(-65.60499572753906px, -171.25px);}16.67%{-webkit-transform: translate(65.60499572753906px, 171.25px) rotate(5deg) translate(-65.60499572753906px, -171.25px);transform: translate(65.60499572753906px, 171.25px) rotate(5deg) translate(-65.60499572753906px, -171.25px);}25%{-webkit-transform: translate(65.60499572753906px, 171.25px) rotate(0deg) translate(-65.60499572753906px, -171.25px);transform: translate(65.60499572753906px, 171.25px) rotate(0deg) translate(-65.60499572753906px, -171.25px);}33.33%{-webkit-transform: translate(65.60499572753906px, 171.25px) rotate(-5deg) translate(-65.60499572753906px, -171.25px);transform: translate(65.60499572753906px, 171.25px) rotate(-5deg) translate(-65.60499572753906px, -171.25px);}41.67%{-webkit-transform: translate(65.60499572753906px, 171.25px) rotate(0deg) translate(-65.60499572753906px, -171.25px);transform: translate(65.60499572753906px, 171.25px) rotate(0deg) translate(-65.60499572753906px, -171.25px);}50%{-webkit-transform: translate(65.60499572753906px, 171.25px) rotate(5deg) translate(-65.60499572753906px, -171.25px);transform: translate(65.60499572753906px, 171.25px) rotate(5deg) translate(-65.60499572753906px, -171.25px);}58.33%{-webkit-transform: translate(65.60499572753906px, 171.25px) rotate(0deg) translate(-65.60499572753906px, -171.25px);transform: translate(65.60499572753906px, 171.25px) rotate(0deg) translate(-65.60499572753906px, -171.25px);}66.67%{-webkit-transform: translate(65.60499572753906px, 171.25px) rotate(-5deg) translate(-65.60499572753906px, -171.25px);transform: translate(65.60499572753906px, 171.25px) rotate(-5deg) translate(-65.60499572753906px, -171.25px);}75%{-webkit-transform: translate(65.60499572753906px, 171.25px) rotate(0deg) translate(-65.60499572753906px, -171.25px);transform: translate(65.60499572753906px, 171.25px) rotate(0deg) translate(-65.60499572753906px, -171.25px);}83.33%{-webkit-transform: translate(65.60499572753906px, 171.25px) rotate(5deg) translate(-65.60499572753906px, -171.25px);transform: translate(65.60499572753906px, 171.25px) rotate(5deg) translate(-65.60499572753906px, -171.25px);}91.67%{-webkit-transform: translate(65.60499572753906px, 171.25px) rotate(0deg) translate(-65.60499572753906px, -171.25px);transform: translate(65.60499572753906px, 171.25px) rotate(0deg) translate(-65.60499572753906px, -171.25px);}100%{-webkit-transform: translate(65.60499572753906px, 171.25px) rotate(-5deg) translate(-65.60499572753906px, -171.25px);transform: translate(65.60499572753906px, 171.25px) rotate(-5deg) translate(-65.60499572753906px, -171.25px);}}#el_b7oPsZpo3 *{-webkit-animation-duration: 6s;animation-duration: 6s;-webkit-animation-iteration-count: infinite;animation-iteration-count: infinite;-webkit-animation-timing-function: cubic-bezier(0, 0, 1, 1);animation-timing-function: cubic-bezier(0, 0, 1, 1);}#el_k43hzv0GWp{fill: #ADB249;}#el_TtW7viuK8W{fill: #939137;}#el_MKh1miyLkr{fill: #ADB249;}#el_kjFhJn2_3G{fill: #939137;}#el_UT4cfEqclN{fill: #ADB249;}#el_VHRREYeal-{fill: #939137;}#el_kX5bM8qAkD{fill: #ADB249;}#el_jCEMrbxbCS{fill: #939137;}#el_km-wY-jrEb{fill: #ADB249;}#el_KjA8S9Um92{fill: #939137;}#el_1X0OLhSgBV{fill: #ADB249;}#el_0XTmmBzP-I{fill: #939137;}#el_Dgz0oB9goRL{fill: #ADB249;}#el_ciqFJ3vr73Z{fill: #939137;}#el_Vwn1jSkWd5i{fill: none;stroke: #231F20;stroke-width: 0.2;}#el_1-qil1W3ijl{fill: #ADB249;}#el_pcBrl1Kdte-{fill: #939137;}#el_S2_tWEiGH5G{fill: #ADB249;}#el_-g9eAi4gVEJ{fill: #939137;}#el_lscNhj4QwIz{fill: #ADB249;}#el_2jf8YZM6kAi{fill: #939137;}#el_WbncVV77wB6{fill: #ADB249;}#el_aWkYVioBd5h{fill: #E76B5B;}#el_PXsCi00aZtn_an_vba0GjJ58{-webkit-animation-fill-mode: backwards;animation-fill-mode: backwards;-webkit-transform: translate(65.60499572753906px, 171.25px) rotate(-5deg) translate(-65.60499572753906px, -171.25px);transform: translate(65.60499572753906px, 171.25px) rotate(-5deg) translate(-65.60499572753906px, -171.25px);-webkit-animation-name: kf_el_PXsCi00aZtn_an_vba0GjJ58;animation-name: kf_el_PXsCi00aZtn_an_vba0GjJ58;-webkit-animation-timing-function: cubic-bezier(0, 0, 1, 1);animation-timing-function: cubic-bezier(0, 0, 1, 1);}#el_fX00LYOQZb_an_LdM1gU5MR{-webkit-animation-fill-mode: backwards;animation-fill-mode: backwards;-webkit-transform: translate(86.0499997138977px, 171.33399295806885px) rotate(3deg) translate(-86.0499997138977px, -171.33399295806885px);transform: translate(86.0499997138977px, 171.33399295806885px) rotate(3deg) translate(-86.0499997138977px, -171.33399295806885px);-webkit-animation-name: kf_el_fX00LYOQZb_an_LdM1gU5MR;animation-name: kf_el_fX00LYOQZb_an_LdM1gU5MR;-webkit-animation-timing-function: cubic-bezier(0, 0, 1, 1);animation-timing-function: cubic-bezier(0, 0, 1, 1);}</style>
<g id="el_fX00LYOQZb_an_LdM1gU5MR" data-animator-group="true" data-animator-type="1"><g id="el_fX00LYOQZb">
	<g id="el_q72nyd-sO8">
		<defs>
			<rect id="SVGID_1_" x="2.834" y="3.167" width="86.666" height="170.667"/>
		</defs>
		<clipPath id="SVGID_2_">
			<use xlink:href="#SVGID_1_" overflow="visible"/>
		</clipPath>
		<g clip-path="url(#SVGID_2_)" id="el_ewm3W9MByg">
			<path d="M65.987,162.334l-0.833-4.5l-19.764-12.87C52.48,126.5,35.784,122,35.784,122H5.591l13.107,27.199&#10;&#9;&#9;&#9;&#9;c0,0,11.273,13.054,24.804-1.26L65.987,162.334z" id="el_k43hzv0GWp"/>
			<path d="M5.646,122.113l13.053,27.086c0,0,11.273,13.054,24.804-1.26l0.022,0.015&#10;&#9;&#9;&#9;&#9;c0.417-0.699,0.629-1.12,0.629-1.12L5.646,122.113z" id="el_TtW7viuK8W"/>
			<path d="M53.577,107.625l-0.611-3.305l-14.517-9.453C43.656,81.305,31.392,78,31.392,78H9.215l9.628,19.978&#10;&#9;&#9;&#9;&#9;c0,0,8.279,9.588,18.218-0.925L53.577,107.625z" id="el_MKh1miyLkr"/>
			<path d="M9.256,78.083l9.588,19.895c0,0,8.279,9.588,18.218-0.925l0.017,0.011&#10;&#9;&#9;&#9;&#9;c0.307-0.514,0.462-0.823,0.462-0.823L9.256,78.083z" id="el_kjFhJn2_3G"/>
			<path d="M53.819,105.917l4.079-0.74l7.23-11.696c16.702,6.477,20.829-8.632,20.829-8.632L86.05,57.5&#10;&#9;&#9;&#9;&#9;L61.374,69.291c0,0-11.858,10.17,1.065,22.47L53.819,105.917z" id="el_UT4cfEqclN"/>
			<path d="M85.947,57.549L61.374,69.291c0,0-11.858,10.17,1.065,22.47l-0.013,0.021&#10;&#9;&#9;&#9;&#9;c0.632,0.38,1.013,0.572,1.013,0.572L85.947,57.549z" id="el_VHRREYeal-"/>
			<path d="M45.317,65.333l-0.516-2.789l-12.25-7.977c4.394-11.444-5.955-14.234-5.955-14.234H7.881l8.125,16.859&#10;&#9;&#9;&#9;&#9;c0,0,6.986,8.091,15.373-0.781L45.317,65.333z" id="el_kX5bM8qAkD"/>
			<path d="M7.916,40.404l8.091,16.789c0,0,6.986,8.091,15.373-0.781l0.015,0.009c0.259-0.434,0.39-0.695,0.39-0.695&#10;&#9;&#9;&#9;&#9;L7.916,40.404z" id="el_jCEMrbxbCS"/>
			<path d="M46.947,65.536l-0.739-2.738l7.606-12.484c-8.903-8.426-0.773-15.41-0.773-15.41l16.882-8.079&#10;&#9;&#9;&#9;&#9;l-0.052,18.714c0,0-2.809,10.314-14.204,5.932L46.947,65.536z" id="el_km-wY-jrEb"/>
			<path d="M69.92,26.837l-16.825,8.014c0,0-8.124,6.949,0.71,15.376l-0.009,0.014&#10;&#9;&#9;&#9;&#9;c0.432,0.261,0.693,0.393,0.693,0.393L69.92,26.837z" id="el_KjA8S9Um92"/>
			<path d="M39.788,45.454l1.51-2.118L38.75,30.174c10.347-4.397,5.59-12.999,5.59-12.999L32.411,4.835&#10;&#9;&#9;&#9;&#9;l-5.937,16.103c0,0-0.883,9.764,10.313,9.639L39.788,45.454z" id="el_1X0OLhSgBV"/>
			<path d="M32.387,4.902l-5.912,16.036c0,0-0.883,9.764,10.313,9.639l0.002,0.015&#10;&#9;&#9;&#9;&#9;c0.452-0.105,0.707-0.186,0.707-0.186L32.387,4.902z" id="el_0XTmmBzP-I"/>
			<polygon points="67.32,171.334 38.486,38.667 39.592,34.925 72.195,171.117 &#9;&#9;&#9;" id="el_Dgz0oB9goRL"/>
		</g>
	</g>
</g></g>
<g id="el_PXsCi00aZtn_an_vba0GjJ58" data-animator-group="true" data-animator-type="1"><g id="el_PXsCi00aZtn">
	<g id="el_VHiC7DUzuAQ">
		<defs>
			<rect id="SVGID_3_" x="63.168" y="63.833" width="69.332" height="119.667"/>
		</defs>
		<clipPath id="SVGID_4_">
			<use xlink:href="#SVGID_3_" overflow="visible"/>
		</clipPath>
		<g clip-path="url(#SVGID_4_)" id="el_7t88EduCbis">
			<path d="M102.797,97.703l1.824-0.861l3.266-9.873c8.668,0.946,8.711-6.678,8.711-6.678l-3.395-12.873&#10;&#9;&#9;&#9;&#9;l-10.122,8.647c0,0-4.299,6.272,3.325,10.432L102.797,97.703z" id="el_ciqFJ3vr73Z"/>
			<path stroke-miterlimit="10" d="M113.161,67.455l-10.08,8.611&#10;&#9;&#9;&#9;&#9;c0,0-4.299,6.272,3.325,10.432l-0.006,0.011c0.348,0.1,0.551,0.142,0.551,0.142L113.161,67.455z" id="el_Vwn1jSkWd5i"/>
			<path d="M98.124,113.222l0.638,1.564l11.654-6.235c6.145,7.487,12.104,1.471,12.104,1.471l7.31-12.853&#10;&#9;&#9;&#9;&#9;l-14.751-1.005c0,0-8.286,1.637-5.469,10.862L98.124,113.222z" id="el_1-qil1W3ijl"/>
			<path d="M129.768,97.165l-14.689-1.001c0,0-8.286,1.637-5.469,10.862l-0.014,0.006&#10;&#9;&#9;&#9;&#9;c0.196,0.348,0.325,0.54,0.325,0.54L129.768,97.165z" id="el_pcBrl1Kdte-"/>
			<path d="M87.796,146.012l0.774,1.9l14.164-7.578c7.467,9.1,14.711,1.788,14.711,1.788l8.883-15.62l-17.93-1.223&#10;&#9;&#9;&#9;&#9;c0,0-10.069,1.99-6.646,13.201L87.796,146.012z" id="el_S2_tWEiGH5G"/>
			<path d="M126.254,126.497l-17.854-1.218c0,0-10.07,1.99-6.646,13.201l-0.018,0.008&#10;&#9;&#9;&#9;&#9;c0.24,0.424,0.396,0.656,0.396,0.656L126.254,126.497z" id="el_-g9eAi4gVEJ"/>
			<path d="M87.132,147.279l2.052-0.771l-7.678-15.338c9.928-7.704,2.335-15.647,2.335-15.647l-16.413-9.933&#10;&#9;&#9;&#9;&#9;l-1.823,19.1c0,0,1.83,10.806,13.896,7.476L87.132,147.279z" id="el_lscNhj4QwIz"/>
			<path d="M67.421,105.669l-1.816,19.021c0,0,1.83,10.806,13.896,7.476l0.008,0.019&#10;&#9;&#9;&#9;&#9;c0.458-0.244,0.712-0.402,0.712-0.402L67.421,105.669z" id="el_2jf8YZM6kAi"/>
			<polygon points="78.152,170.916 104.236,93.083 106.341,91.813 81.652,171.25 &#9;&#9;&#9;" id="el_WbncVV77wB6"/>
		</g>
	</g>
</g></g>
<polygon points="37.028,234 24.028,169.75 108.402,169.75 97.527,234 " id="el_aWkYVioBd5h"/>
</svg>